<?xml version="1.0" encoding="UTF-8" standalone="no"?>
<!DOCTYPE svg PUBLIC "-//W3C//DTD SVG 1.1//EN"
 "http://www.w3.org/Graphics/SVG/1.1/DTD/svg11.dtd">
<!-- Generated by graphviz version 2.38.0 (20140413.2041)
 -->
<!-- Title: test Pages: 1 -->
<svg width="1066pt" height="735pt"
 viewBox="0.00 0.00 1066.30 735.30" xmlns="http://www.w3.org/2000/svg" xmlns:xlink="http://www.w3.org/1999/xlink">
<g id="graph0" class="graph" transform="scale(1 1) rotate(0) translate(0 735.303)">
<title>test</title>
<polygon fill="white" stroke="none" points="0,-0 0,-735.303 1066.3,-735.303 1066.3,-0 0,-0"/>
<g id="clust1" class="cluster"><title>cluster_long_mult</title>
<polygon fill="#ccebc5" stroke="black" stroke-width="2" points="18.3013,-8 18.3013,-727.303 1058.3,-727.303 1058.3,-8 18.3013,-8"/>
<text text-anchor="middle" x="538.301" y="-712.103" font-family="Times,serif" font-size="14.00">long_mult</text>
</g>
<g id="clust2" class="cluster"><title>cluster_add_together</title>
<path fill="grey" stroke="black" d="M234.301,-16C234.301,-16 952.301,-16 952.301,-16 958.301,-16 964.301,-22 964.301,-28 964.301,-28 964.301,-364.303 964.301,-364.303 964.301,-370.303 958.301,-376.303 952.301,-376.303 952.301,-376.303 234.301,-376.303 234.301,-376.303 228.301,-376.303 222.301,-370.303 222.301,-364.303 222.301,-364.303 222.301,-28 222.301,-28 222.301,-22 228.301,-16 234.301,-16"/>
<text text-anchor="middle" x="593.301" y="-361.103" font-family="Times,serif" font-size="14.00">add_together</text>
</g>
<g id="clust3" class="cluster"><title>cluster_part_multiply</title>
<path fill="yellow" stroke="black" d="M50.3013,-438.303C50.3013,-438.303 1026.3,-438.303 1026.3,-438.303 1032.3,-438.303 1038.3,-444.303 1038.3,-450.303 1038.3,-450.303 1038.3,-524.303 1038.3,-524.303 1038.3,-530.303 1032.3,-536.303 1026.3,-536.303 1026.3,-536.303 50.3013,-536.303 50.3013,-536.303 44.3013,-536.303 38.3013,-530.303 38.3013,-524.303 38.3013,-524.303 38.3013,-450.303 38.3013,-450.303 38.3013,-444.303 44.3013,-438.303 50.3013,-438.303"/>
<text text-anchor="middle" x="538.301" y="-521.103" font-family="Times,serif" font-size="14.00">part_multiply</text>
</g>
<g id="clust4" class="cluster"><title>cluster_take_b_apart</title>
<path fill="DeepSkyBlue" stroke="black" d="M427.301,-598.303C427.301,-598.303 765.301,-598.303 765.301,-598.303 771.301,-598.303 777.301,-604.303 777.301,-610.303 777.301,-610.303 777.301,-684.303 777.301,-684.303 777.301,-690.303 771.301,-696.303 765.301,-696.303 765.301,-696.303 427.301,-696.303 427.301,-696.303 421.301,-696.303 415.301,-690.303 415.301,-684.303 415.301,-684.303 415.301,-610.303 415.301,-610.303 415.301,-604.303 421.301,-598.303 427.301,-598.303"/>
<text text-anchor="middle" x="596.301" y="-681.103" font-family="Times,serif" font-size="14.00">take_b_apart</text>
</g>
<!-- job_1__long_mult -->
<g id="node1" class="node"><title>job_1__long_mult</title>
<polygon fill="DeepSkyBlue" stroke="black" points="587.301,-665.303 427.301,-665.303 423.301,-661.303 423.301,-606.303 583.301,-606.303 587.301,-610.303 587.301,-665.303"/>
<polyline fill="none" stroke="black" points="583.301,-661.303 423.301,-661.303 "/>
<polyline fill="none" stroke="black" points="583.301,-661.303 583.301,-606.303 "/>
<polyline fill="none" stroke="black" points="583.301,-661.303 587.301,-665.303 "/>
<text text-anchor="start" x="448.301" y="-649.603" font-family="Times,serif" font-style="italic" text-decoration="underline" font-size="14.00">job_id:</text>
<text text-anchor="start" x="538.801" y="-649.603" font-family="Times,serif" font-style="italic" font-size="14.00">1</text>
<text text-anchor="start" x="432.801" y="-631.603" font-family="Times,serif" font-size="14.00">a_multiplier:</text>
<text text-anchor="start" x="506.301" y="-631.603" font-family="Times,serif" font-size="14.00"> 9650156169</text>
<text text-anchor="start" x="432.301" y="-614.603" font-family="Times,serif" font-size="14.00">b_multiplier:</text>
<text text-anchor="start" x="509.801" y="-614.603" font-family="Times,serif" font-size="14.00"> 327358788</text>
</g>
<!-- job_3__long_mult -->
<g id="node2" class="node"><title>job_3__long_mult</title>
<polygon fill="grey" stroke="black" points="397.301,-66 299.301,-66 295.301,-62 295.301,-24 393.301,-24 397.301,-28 397.301,-66"/>
<polyline fill="none" stroke="black" points="393.301,-62 295.301,-62 "/>
<polyline fill="none" stroke="black" points="393.301,-62 393.301,-24 "/>
<polyline fill="none" stroke="black" points="393.301,-62 397.301,-66 "/>
<text text-anchor="start" x="321.801" y="-50.8" font-family="Times,serif" font-style="italic" text-decoration="underline" font-size="14.00">job_id:</text>
<text text-anchor="start" x="381.301" y="-50.8" font-family="Times,serif" font-style="italic" font-size="14.00">3</text>
<text text-anchor="start" x="304.301" y="-33.8" font-family="Times,serif" font-style="italic" text-decoration="underline" font-size="14.00">params from:</text>
<text text-anchor="start" x="381.301" y="-33.8" font-family="Times,serif" font-style="italic" font-size="14.00">1</text>
</g>
<!-- job_1__long_mult&#45;&gt;job_3__long_mult -->
<g id="edge4" class="edge"><title>job_1__long_mult&#45;&gt;job_3__long_mult</title>
<path fill="none" stroke="blue" d="M423.007,-629.737C301.273,-620.334 82.3716,-595.466 34.3013,-536.303 -99.3475,-371.812 196.407,-147.144 306.855,-71.8086"/>
<polygon fill="blue" stroke="blue" points="309.088,-74.5238 315.409,-66.0208 305.165,-68.7264 309.088,-74.5238"/>
</g>
<!-- job_4__long_mult -->
<g id="node3" class="node"><title>job_4__long_mult</title>
<polygon fill="DeepSkyBlue" stroke="black" points="648.301,-505.303 546.301,-505.303 542.301,-501.303 542.301,-446.303 644.301,-446.303 648.301,-450.303 648.301,-505.303"/>
<polyline fill="none" stroke="black" points="644.301,-501.303 542.301,-501.303 "/>
<polyline fill="none" stroke="black" points="644.301,-501.303 644.301,-446.303 "/>
<polyline fill="none" stroke="black" points="644.301,-501.303 648.301,-505.303 "/>
<text text-anchor="start" x="568.801" y="-489.603" font-family="Times,serif" font-style="italic" text-decoration="underline" font-size="14.00">job_id:</text>
<text text-anchor="start" x="630.301" y="-489.603" font-family="Times,serif" font-style="italic" font-size="14.00">4</text>
<text text-anchor="start" x="551.301" y="-472.603" font-family="Times,serif" font-style="italic" text-decoration="underline" font-size="14.00">params from:</text>
<text text-anchor="start" x="630.301" y="-472.603" font-family="Times,serif" font-style="italic" font-size="14.00">1</text>
<text text-anchor="start" x="574.301" y="-454.603" font-family="Times,serif" font-size="14.00">digit:</text>
<text text-anchor="start" x="628.301" y="-454.603" font-family="Times,serif" font-size="14.00"> 2</text>
</g>
<!-- job_1__long_mult&#45;&gt;job_4__long_mult -->
<g id="edge5" class="edge"><title>job_1__long_mult&#45;&gt;job_4__long_mult</title>
<path fill="none" stroke="blue" d="M521.6,-606.19C536.272,-580.432 557.931,-542.408 573.976,-514.24"/>
<polygon fill="blue" stroke="blue" points="577.064,-515.89 578.972,-505.469 570.982,-512.426 577.064,-515.89"/>
</g>
<!-- job_5__long_mult -->
<g id="node5" class="node"><title>job_5__long_mult</title>
<polygon fill="DeepSkyBlue" stroke="black" points="524.301,-505.303 422.301,-505.303 418.301,-501.303 418.301,-446.303 520.301,-446.303 524.301,-450.303 524.301,-505.303"/>
<polyline fill="none" stroke="black" points="520.301,-501.303 418.301,-501.303 "/>
<polyline fill="none" stroke="black" points="520.301,-501.303 520.301,-446.303 "/>
<polyline fill="none" stroke="black" points="520.301,-501.303 524.301,-505.303 "/>
<text text-anchor="start" x="444.801" y="-489.603" font-family="Times,serif" font-style="italic" text-decoration="underline" font-size="14.00">job_id:</text>
<text text-anchor="start" x="506.301" y="-489.603" font-family="Times,serif" font-style="italic" font-size="14.00">5</text>
<text text-anchor="start" x="427.301" y="-472.603" font-family="Times,serif" font-style="italic" text-decoration="underline" font-size="14.00">params from:</text>
<text text-anchor="start" x="506.301" y="-472.603" font-family="Times,serif" font-style="italic" font-size="14.00">1</text>
<text text-anchor="start" x="450.301" y="-454.603" font-family="Times,serif" font-size="14.00">digit:</text>
<text text-anchor="start" x="504.301" y="-454.603" font-family="Times,serif" font-size="14.00"> 3</text>
</g>
<!-- job_1__long_mult&#45;&gt;job_5__long_mult -->
<g id="edge6" class="edge"><title>job_1__long_mult&#45;&gt;job_5__long_mult</title>
<path fill="none" stroke="blue" d="M499.144,-606.19C493.673,-580.766 485.631,-543.393 479.595,-515.342"/>
<polygon fill="blue" stroke="blue" points="482.996,-514.509 477.47,-505.469 476.152,-515.981 482.996,-514.509"/>
</g>
<!-- job_6__long_mult -->
<g id="node6" class="node"><title>job_6__long_mult</title>
<polygon fill="DeepSkyBlue" stroke="black" points="400.301,-505.303 298.301,-505.303 294.301,-501.303 294.301,-446.303 396.301,-446.303 400.301,-450.303 400.301,-505.303"/>
<polyline fill="none" stroke="black" points="396.301,-501.303 294.301,-501.303 "/>
<polyline fill="none" stroke="black" points="396.301,-501.303 396.301,-446.303 "/>
<polyline fill="none" stroke="black" points="396.301,-501.303 400.301,-505.303 "/>
<text text-anchor="start" x="320.801" y="-489.603" font-family="Times,serif" font-style="italic" text-decoration="underline" font-size="14.00">job_id:</text>
<text text-anchor="start" x="382.301" y="-489.603" font-family="Times,serif" font-style="italic" font-size="14.00">6</text>
<text text-anchor="start" x="303.301" y="-472.603" font-family="Times,serif" font-style="italic" text-decoration="underline" font-size="14.00">params from:</text>
<text text-anchor="start" x="382.301" y="-472.603" font-family="Times,serif" font-style="italic" font-size="14.00">1</text>
<text text-anchor="start" x="326.301" y="-454.603" font-family="Times,serif" font-size="14.00">digit:</text>
<text text-anchor="start" x="380.301" y="-454.603" font-family="Times,serif" font-size="14.00"> 5</text>
</g>
<!-- job_1__long_mult&#45;&gt;job_6__long_mult -->
<g id="edge7" class="edge"><title>job_1__long_mult&#45;&gt;job_6__long_mult</title>
<path fill="none" stroke="blue" d="M476.689,-606.19C450.484,-579.986 411.586,-541.087 383.284,-512.786"/>
<polygon fill="blue" stroke="blue" points="385.514,-510.065 375.968,-505.469 380.564,-515.015 385.514,-510.065"/>
</g>
<!-- job_7__long_mult -->
<g id="node7" class="node"><title>job_7__long_mult</title>
<polygon fill="green" stroke="black" points="276.301,-505.303 174.301,-505.303 170.301,-501.303 170.301,-446.303 272.301,-446.303 276.301,-450.303 276.301,-505.303"/>
<polyline fill="none" stroke="black" points="272.301,-501.303 170.301,-501.303 "/>
<polyline fill="none" stroke="black" points="272.301,-501.303 272.301,-446.303 "/>
<polyline fill="none" stroke="black" points="272.301,-501.303 276.301,-505.303 "/>
<text text-anchor="start" x="196.801" y="-489.603" font-family="Times,serif" font-style="italic" text-decoration="underline" font-size="14.00">job_id:</text>
<text text-anchor="start" x="258.301" y="-489.603" font-family="Times,serif" font-style="italic" font-size="14.00">7</text>
<text text-anchor="start" x="179.301" y="-472.603" font-family="Times,serif" font-style="italic" text-decoration="underline" font-size="14.00">params from:</text>
<text text-anchor="start" x="258.301" y="-472.603" font-family="Times,serif" font-style="italic" font-size="14.00">1</text>
<text text-anchor="start" x="202.301" y="-454.603" font-family="Times,serif" font-size="14.00">digit:</text>
<text text-anchor="start" x="256.301" y="-454.603" font-family="Times,serif" font-size="14.00"> 7</text>
</g>
<!-- job_1__long_mult&#45;&gt;job_7__long_mult -->
<g id="edge8" class="edge"><title>job_1__long_mult&#45;&gt;job_7__long_mult</title>
<path fill="none" stroke="blue" d="M424.211,-606.268C381.084,-589.217 328.25,-565.239 285.301,-536.303 275.152,-529.464 265.141,-520.899 256.222,-512.416"/>
<polygon fill="blue" stroke="blue" points="258.6,-509.846 249.007,-505.349 253.702,-514.847 258.6,-509.846"/>
</g>
<!-- job_8__long_mult -->
<g id="node8" class="node"><title>job_8__long_mult</title>
<polygon fill="green" stroke="black" points="152.301,-505.303 50.3013,-505.303 46.3013,-501.303 46.3013,-446.303 148.301,-446.303 152.301,-450.303 152.301,-505.303"/>
<polyline fill="none" stroke="black" points="148.301,-501.303 46.3013,-501.303 "/>
<polyline fill="none" stroke="black" points="148.301,-501.303 148.301,-446.303 "/>
<polyline fill="none" stroke="black" points="148.301,-501.303 152.301,-505.303 "/>
<text text-anchor="start" x="72.8013" y="-489.603" font-family="Times,serif" font-style="italic" text-decoration="underline" font-size="14.00">job_id:</text>
<text text-anchor="start" x="134.301" y="-489.603" font-family="Times,serif" font-style="italic" font-size="14.00">8</text>
<text text-anchor="start" x="55.3013" y="-472.603" font-family="Times,serif" font-style="italic" text-decoration="underline" font-size="14.00">params from:</text>
<text text-anchor="start" x="134.301" y="-472.603" font-family="Times,serif" font-style="italic" font-size="14.00">1</text>
<text text-anchor="start" x="78.3013" y="-454.603" font-family="Times,serif" font-size="14.00">digit:</text>
<text text-anchor="start" x="132.301" y="-454.603" font-family="Times,serif" font-size="14.00"> 8</text>
</g>
<!-- job_1__long_mult&#45;&gt;job_8__long_mult -->
<g id="edge9" class="edge"><title>job_1__long_mult&#45;&gt;job_8__long_mult</title>
<path fill="none" stroke="blue" d="M423.066,-622.807C350.479,-609.612 243.697,-583.682 161.301,-536.303 150.389,-530.028 139.935,-521.426 130.822,-512.712"/>
<polygon fill="blue" stroke="blue" points="133.056,-509.997 123.503,-505.415 128.114,-514.954 133.056,-509.997"/>
</g>
<!-- semaphore_1__long_mult -->
<g id="node4" class="node"><title>semaphore_1__long_mult</title>
<polygon fill="grey" stroke="black" points="590.403,-283.747 410.301,-345.454 230.2,-283.747 230.368,-183.904 590.234,-183.904 590.403,-283.747"/>
<text text-anchor="start" x="388.801" y="-295.951" font-family="Times,serif" font-weight="bold" font-style="italic" font-size="14.00" fill="brown">local: 2</text>
<text text-anchor="start" x="408.301" y="-277.951" font-family="Times,serif" font-size="14.00"> </text>
<text text-anchor="start" x="331.301" y="-261.951" font-family="Times,serif" font-weight="bold" text-decoration="underline" font-size="14.00">partial_product</text>
<text text-anchor="start" x="308.301" y="-243.951" font-family="Times,serif" font-size="14.00">{2}</text>
<text text-anchor="start" x="364.301" y="-244.951" font-family="Times,serif" font-size="14.00"> </text>
<text text-anchor="start" x="368.301" y="-244.951" font-family="Times,serif" font-weight="bold" font-size="14.00">&#45;&#45;&gt;</text>
<text text-anchor="start" x="386.301" y="-244.951" font-family="Times,serif" font-size="14.00"> </text>
<text text-anchor="start" x="425.301" y="-243.951" font-family="Times,serif" font-size="14.00">&quot;19300312338&quot;</text>
<text text-anchor="start" x="308.301" y="-226.951" font-family="Times,serif" font-size="14.00">{3}</text>
<text text-anchor="start" x="364.301" y="-227.951" font-family="Times,serif" font-size="14.00"> </text>
<text text-anchor="start" x="368.301" y="-227.951" font-family="Times,serif" font-weight="bold" font-size="14.00">&#45;&#45;&gt;</text>
<text text-anchor="start" x="386.301" y="-227.951" font-family="Times,serif" font-size="14.00"> </text>
<text text-anchor="start" x="425.301" y="-226.951" font-family="Times,serif" font-size="14.00">&quot;28950468507&quot;</text>
<text text-anchor="start" x="308.301" y="-209.951" font-family="Times,serif" font-size="14.00">{5}</text>
<text text-anchor="start" x="364.301" y="-210.951" font-family="Times,serif" font-size="14.00"> </text>
<text text-anchor="start" x="368.301" y="-210.951" font-family="Times,serif" font-weight="bold" font-size="14.00">&#45;&#45;&gt;</text>
<text text-anchor="start" x="386.301" y="-210.951" font-family="Times,serif" font-size="14.00"> </text>
<text text-anchor="start" x="425.301" y="-209.951" font-family="Times,serif" font-size="14.00">&quot;48250780845&quot;</text>
</g>
<!-- job_4__long_mult&#45;&gt;semaphore_1__long_mult -->
<g id="edge14" class="edge"><title>job_4__long_mult&#45;&gt;semaphore_1__long_mult</title>
<path fill="none" stroke="darkgreen" stroke-dasharray="5,2" d="M570.735,-445.9C544.787,-415.372 502.943,-366.144 468.495,-325.616"/>
</g>
<!-- semaphore_1__long_mult&#45;&gt;job_3__long_mult -->
<g id="edge19" class="edge"><title>semaphore_1__long_mult:s&#45;&gt;job_3__long_mult:n</title>
<path fill="none" stroke="red" stroke-dasharray="5,2" d="M410.301,-183.151C410.301,-125.559 349.996,-125.294 346.463,-71.061"/>
<polygon fill="red" stroke="red" points="341.336,-67.1591 351.331,-66.8398 351.395,-68.8388 341.4,-69.1581 341.336,-67.1591"/>
<polyline fill="none" stroke="red" points="346.301,-66 346.461,-70.9975 "/>
</g>
<!-- job_5__long_mult&#45;&gt;semaphore_1__long_mult -->
<g id="edge15" class="edge"><title>job_5__long_mult&#45;&gt;semaphore_1__long_mult</title>
<path fill="none" stroke="darkgreen" stroke-dasharray="5,2" d="M463.201,-445.9C455.488,-418.379 443.515,-375.659 432.909,-337.817"/>
</g>
<!-- job_6__long_mult&#45;&gt;semaphore_1__long_mult -->
<g id="edge16" class="edge"><title>job_6__long_mult&#45;&gt;semaphore_1__long_mult</title>
<path fill="none" stroke="darkgreen" stroke-dasharray="5,2" d="M355.667,-445.9C363.633,-418.379 375.999,-375.659 386.952,-337.817"/>
</g>
<!-- job_7__long_mult&#45;&gt;semaphore_1__long_mult -->
<g id="edge17" class="edge"><title>job_7__long_mult&#45;&gt;semaphore_1__long_mult</title>
<path fill="none" stroke="red" stroke-dasharray="5,2" d="M248.133,-445.9C273.542,-416.326 314.03,-369.202 348.193,-329.44"/>
<polygon fill="red" stroke="red" points="347.034,-323.116 354.619,-329.633 353.316,-331.15 345.731,-324.633 347.034,-323.116"/>
<polyline fill="none" stroke="red" points="351.478,-325.616 348.22,-329.409 "/>
</g>
<!-- job_8__long_mult&#45;&gt;semaphore_1__long_mult -->
<g id="edge18" class="edge"><title>job_8__long_mult&#45;&gt;semaphore_1__long_mult</title>
<path fill="none" stroke="red" stroke-dasharray="5,2" d="M140.279,-446.125C186.105,-414.054 261.707,-361.144 321.276,-319.455"/>
<polygon fill="red" stroke="red" points="321.851,-312.95 327.585,-321.143 325.946,-322.29 320.212,-314.097 321.851,-312.95"/>
<polyline fill="none" stroke="red" points="325.537,-316.473 321.441,-319.34 "/>
</g>
<!-- job_2__long_mult -->
<g id="node9" class="node"><title>job_2__long_mult</title>
<polygon fill="DeepSkyBlue" stroke="black" points="769.301,-665.303 609.301,-665.303 605.301,-661.303 605.301,-606.303 765.301,-606.303 769.301,-610.303 769.301,-665.303"/>
<polyline fill="none" stroke="black" points="765.301,-661.303 605.301,-661.303 "/>
<polyline fill="none" stroke="black" points="765.301,-661.303 765.301,-606.303 "/>
<polyline fill="none" stroke="black" points="765.301,-661.303 769.301,-665.303 "/>
<text text-anchor="start" x="630.301" y="-649.603" font-family="Times,serif" font-style="italic" text-decoration="underline" font-size="14.00">job_id:</text>
<text text-anchor="start" x="720.801" y="-649.603" font-family="Times,serif" font-style="italic" font-size="14.00">2</text>
<text text-anchor="start" x="614.801" y="-631.603" font-family="Times,serif" font-size="14.00">a_multiplier:</text>
<text text-anchor="start" x="691.801" y="-631.603" font-family="Times,serif" font-size="14.00"> 327358788</text>
<text text-anchor="start" x="614.301" y="-614.603" font-family="Times,serif" font-size="14.00">b_multiplier:</text>
<text text-anchor="start" x="688.301" y="-614.603" font-family="Times,serif" font-size="14.00"> 9650156169</text>
</g>
<!-- job_9__long_mult -->
<g id="node10" class="node"><title>job_9__long_mult</title>
<polygon fill="grey" stroke="black" points="894.301,-66 796.301,-66 792.301,-62 792.301,-24 890.301,-24 894.301,-28 894.301,-66"/>
<polyline fill="none" stroke="black" points="890.301,-62 792.301,-62 "/>
<polyline fill="none" stroke="black" points="890.301,-62 890.301,-24 "/>
<polyline fill="none" stroke="black" points="890.301,-62 894.301,-66 "/>
<text text-anchor="start" x="818.801" y="-50.8" font-family="Times,serif" font-style="italic" text-decoration="underline" font-size="14.00">job_id:</text>
<text text-anchor="start" x="878.301" y="-50.8" font-family="Times,serif" font-style="italic" font-size="14.00">9</text>
<text text-anchor="start" x="801.301" y="-33.8" font-family="Times,serif" font-style="italic" text-decoration="underline" font-size="14.00">params from:</text>
<text text-anchor="start" x="878.301" y="-33.8" font-family="Times,serif" font-style="italic" font-size="14.00">2</text>
</g>
<!-- job_2__long_mult&#45;&gt;job_9__long_mult -->
<g id="edge13" class="edge"><title>job_2__long_mult&#45;&gt;job_9__long_mult</title>
<path fill="none" stroke="blue" d="M769.433,-623.575C863.646,-608.816 1009.4,-579.58 1042.3,-536.303 1103.17,-456.248 1025.9,-269.711 965.301,-167 942.951,-129.117 905.875,-94.733 878.451,-72.3843"/>
<polygon fill="blue" stroke="blue" points="880.629,-69.6444 870.635,-66.126 876.254,-75.1085 880.629,-69.6444"/>
</g>
<!-- job_10__long_mult -->
<g id="node11" class="node"><title>job_10__long_mult</title>
<polygon fill="DeepSkyBlue" stroke="black" points="775.801,-505.303 670.801,-505.303 666.801,-501.303 666.801,-446.303 771.801,-446.303 775.801,-450.303 775.801,-505.303"/>
<polyline fill="none" stroke="black" points="771.801,-501.303 666.801,-501.303 "/>
<polyline fill="none" stroke="black" points="771.801,-501.303 771.801,-446.303 "/>
<polyline fill="none" stroke="black" points="771.801,-501.303 775.801,-505.303 "/>
<text text-anchor="start" x="693.801" y="-489.603" font-family="Times,serif" font-style="italic" text-decoration="underline" font-size="14.00">job_id:</text>
<text text-anchor="start" x="753.301" y="-489.603" font-family="Times,serif" font-style="italic" font-size="14.00">10</text>
<text text-anchor="start" x="676.301" y="-472.603" font-family="Times,serif" font-style="italic" text-decoration="underline" font-size="14.00">params from:</text>
<text text-anchor="start" x="756.801" y="-472.603" font-family="Times,serif" font-style="italic" font-size="14.00">2</text>
<text text-anchor="start" x="699.301" y="-454.603" font-family="Times,serif" font-size="14.00">digit:</text>
<text text-anchor="start" x="754.801" y="-454.603" font-family="Times,serif" font-size="14.00"> 5</text>
</g>
<!-- job_2__long_mult&#45;&gt;job_10__long_mult -->
<g id="edge10" class="edge"><title>job_2__long_mult&#45;&gt;job_10__long_mult</title>
<path fill="none" stroke="blue" d="M693.458,-606.19C698.929,-580.766 706.972,-543.393 713.008,-515.342"/>
<polygon fill="blue" stroke="blue" points="716.45,-515.981 715.133,-505.469 709.607,-514.509 716.45,-515.981"/>
</g>
<!-- job_11__long_mult -->
<g id="node13" class="node"><title>job_11__long_mult</title>
<polygon fill="DeepSkyBlue" stroke="black" points="1029.8,-505.303 924.801,-505.303 920.801,-501.303 920.801,-446.303 1025.8,-446.303 1029.8,-450.303 1029.8,-505.303"/>
<polyline fill="none" stroke="black" points="1025.8,-501.303 920.801,-501.303 "/>
<polyline fill="none" stroke="black" points="1025.8,-501.303 1025.8,-446.303 "/>
<polyline fill="none" stroke="black" points="1025.8,-501.303 1029.8,-505.303 "/>
<text text-anchor="start" x="947.801" y="-489.603" font-family="Times,serif" font-style="italic" text-decoration="underline" font-size="14.00">job_id:</text>
<text text-anchor="start" x="1007.3" y="-489.603" font-family="Times,serif" font-style="italic" font-size="14.00">11</text>
<text text-anchor="start" x="930.301" y="-472.603" font-family="Times,serif" font-style="italic" text-decoration="underline" font-size="14.00">params from:</text>
<text text-anchor="start" x="1010.8" y="-472.603" font-family="Times,serif" font-style="italic" font-size="14.00">2</text>
<text text-anchor="start" x="953.301" y="-454.603" font-family="Times,serif" font-size="14.00">digit:</text>
<text text-anchor="start" x="1008.8" y="-454.603" font-family="Times,serif" font-size="14.00"> 6</text>
</g>
<!-- job_2__long_mult&#45;&gt;job_11__long_mult -->
<g id="edge11" class="edge"><title>job_2__long_mult&#45;&gt;job_11__long_mult</title>
<path fill="none" stroke="blue" d="M769.373,-606.729C813.606,-589.705 868.033,-565.607 912.301,-536.303 922.592,-529.49 932.757,-520.935 941.819,-512.452"/>
<polygon fill="blue" stroke="blue" points="944.381,-514.844 949.151,-505.384 939.522,-509.805 944.381,-514.844"/>
</g>
<!-- job_12__long_mult -->
<g id="node14" class="node"><title>job_12__long_mult</title>
<polygon fill="green" stroke="black" points="902.801,-505.303 797.801,-505.303 793.801,-501.303 793.801,-446.303 898.801,-446.303 902.801,-450.303 902.801,-505.303"/>
<polyline fill="none" stroke="black" points="898.801,-501.303 793.801,-501.303 "/>
<polyline fill="none" stroke="black" points="898.801,-501.303 898.801,-446.303 "/>
<polyline fill="none" stroke="black" points="898.801,-501.303 902.801,-505.303 "/>
<text text-anchor="start" x="820.801" y="-489.603" font-family="Times,serif" font-style="italic" text-decoration="underline" font-size="14.00">job_id:</text>
<text text-anchor="start" x="880.301" y="-489.603" font-family="Times,serif" font-style="italic" font-size="14.00">12</text>
<text text-anchor="start" x="803.301" y="-472.603" font-family="Times,serif" font-style="italic" text-decoration="underline" font-size="14.00">params from:</text>
<text text-anchor="start" x="883.801" y="-472.603" font-family="Times,serif" font-style="italic" font-size="14.00">2</text>
<text text-anchor="start" x="826.301" y="-454.603" font-family="Times,serif" font-size="14.00">digit:</text>
<text text-anchor="start" x="881.801" y="-454.603" font-family="Times,serif" font-size="14.00"> 9</text>
</g>
<!-- job_2__long_mult&#45;&gt;job_12__long_mult -->
<g id="edge12" class="edge"><title>job_2__long_mult&#45;&gt;job_12__long_mult</title>
<path fill="none" stroke="blue" d="M716.457,-606.19C743.159,-579.986 782.796,-541.087 811.635,-512.786"/>
<polygon fill="blue" stroke="blue" points="814.405,-514.971 819.091,-505.469 809.502,-509.975 814.405,-514.971"/>
</g>
<!-- semaphore_2__long_mult -->
<g id="node12" class="node"><title>semaphore_2__long_mult</title>
<polygon fill="grey" stroke="black" points="956.166,-279.045 782.301,-330.237 608.437,-279.045 608.599,-196.214 956.004,-196.214 956.166,-279.045"/>
<text text-anchor="start" x="761.301" y="-286.951" font-family="Times,serif" font-weight="bold" font-style="italic" font-size="14.00" fill="brown">local: 1</text>
<text text-anchor="start" x="780.801" y="-268.951" font-family="Times,serif" font-size="14.00"> </text>
<text text-anchor="start" x="707.301" y="-252.951" font-family="Times,serif" font-weight="bold" text-decoration="underline" font-size="14.00">partial_product</text>
<text text-anchor="start" x="684.301" y="-234.951" font-family="Times,serif" font-size="14.00">{5}</text>
<text text-anchor="start" x="740.301" y="-235.951" font-family="Times,serif" font-size="14.00"> </text>
<text text-anchor="start" x="744.301" y="-235.951" font-family="Times,serif" font-weight="bold" font-size="14.00">&#45;&#45;&gt;</text>
<text text-anchor="start" x="762.301" y="-235.951" font-family="Times,serif" font-size="14.00"> </text>
<text text-anchor="start" x="801.301" y="-234.951" font-family="Times,serif" font-size="14.00">&quot;1636793940&quot;</text>
<text text-anchor="start" x="684.301" y="-217.951" font-family="Times,serif" font-size="14.00">{6}</text>
<text text-anchor="start" x="740.301" y="-218.951" font-family="Times,serif" font-size="14.00"> </text>
<text text-anchor="start" x="744.301" y="-218.951" font-family="Times,serif" font-weight="bold" font-size="14.00">&#45;&#45;&gt;</text>
<text text-anchor="start" x="762.301" y="-218.951" font-family="Times,serif" font-size="14.00"> </text>
<text text-anchor="start" x="801.301" y="-217.951" font-family="Times,serif" font-size="14.00">&quot;1964152728&quot;</text>
</g>
<!-- job_10__long_mult&#45;&gt;semaphore_2__long_mult -->
<g id="edge1" class="edge"><title>job_10__long_mult&#45;&gt;semaphore_2__long_mult</title>
<path fill="none" stroke="darkgreen" stroke-dasharray="5,2" d="M729.402,-445.9C738.022,-415.141 751.964,-365.397 763.371,-324.697"/>
</g>
<!-- semaphore_2__long_mult&#45;&gt;job_9__long_mult -->
<g id="edge20" class="edge"><title>semaphore_2__long_mult:s&#45;&gt;job_9__long_mult:n</title>
<path fill="none" stroke="red" stroke-dasharray="5,2" d="M782.301,-195.151C782.301,-133.406 840.011,-129.647 843.167,-71.0725"/>
<polygon fill="red" stroke="red" points="838.277,-66.8672 848.273,-67.1321 848.22,-69.1314 838.224,-68.8665 838.277,-66.8672"/>
<polyline fill="none" stroke="red" points="843.301,-66 843.169,-70.9982 "/>
</g>
<!-- job_11__long_mult&#45;&gt;semaphore_2__long_mult -->
<g id="edge2" class="edge"><title>job_11__long_mult&#45;&gt;semaphore_2__long_mult</title>
<path fill="none" stroke="darkgreen" stroke-dasharray="5,2" d="M949.672,-445.9C920.244,-412.713 871.217,-357.424 833.811,-315.24"/>
</g>
<!-- job_12__long_mult&#45;&gt;semaphore_2__long_mult -->
<g id="edge3" class="edge"><title>job_12__long_mult&#45;&gt;semaphore_2__long_mult</title>
<path fill="none" stroke="red" stroke-dasharray="5,2" d="M839.537,-445.9C830.574,-416.343 816.295,-369.254 804.242,-329.506"/>
<polygon fill="red" stroke="red" points="798.289,-327.105 807.859,-324.203 808.439,-326.116 798.869,-329.018 798.289,-327.105"/>
<polyline fill="none" stroke="red" points="802.784,-324.697 804.235,-329.481 "/>
</g>
</g>
</svg>
