<?xml version="1.0" encoding="UTF-8" standalone="no"?>
<!DOCTYPE svg PUBLIC "-//W3C//DTD SVG 1.1//EN"
 "http://www.w3.org/Graphics/SVG/1.1/DTD/svg11.dtd">
<!-- Generated by graphviz version 2.38.0 (20140413.2041)
 -->
<!-- Title: test Pages: 1 -->
<svg width="550pt" height="688pt"
 viewBox="0.00 0.00 550.00 688.20" xmlns="http://www.w3.org/2000/svg" xmlns:xlink="http://www.w3.org/1999/xlink">
<g id="graph0" class="graph" transform="scale(1 1) rotate(0) translate(72 616.197)">
<title>test</title>
<polygon fill="white" stroke="none" points="-72,72 -72,-616.197 478,-616.197 478,72 -72,72"/>
<g id="clust1" class="cluster"><title>cluster_long_mult</title>
<polygon fill="#ccebc5" stroke="black" stroke-width="2" points="8,-8 8,-536.197 383,-536.197 383,-8 8,-8"/>
<text text-anchor="middle" x="195.5" y="-520.997" font-family="Times,serif" font-size="14.00">long_mult</text>
</g>
<g id="clust2" class="cluster"><title>cluster_cl_dfr_1_mp</title>
<polygon fill="#deebf7" stroke="#deebf7" points="140,-107 140,-297 375,-297 375,-107 140,-107"/>
</g>
<!-- analysis_take_b_apart -->
<g id="node1" class="node"><title>analysis_take_b_apart</title>
<path fill="DeepSkyBlue" stroke="black" d="M70,-445.697C70,-445.697 162,-445.697 162,-445.697 168,-445.697 174,-451.697 174,-457.697 174,-457.697 174,-492.697 174,-492.697 174,-498.697 168,-504.697 162,-504.697 162,-504.697 70,-504.697 70,-504.697 64,-504.697 58,-498.697 58,-492.697 58,-492.697 58,-457.697 58,-457.697 58,-451.697 64,-445.697 70,-445.697"/>
<text text-anchor="start" x="71" y="-487.997" font-family="Times,serif" font-size="14.00">take_b_apart (1)</text>
<text text-anchor="start" x="114" y="-470.997" font-family="Times,serif" font-size="14.00"> </text>
<polygon fill="DeepSkyBlue" stroke="none" points="66,-449.197 66,-466.197 166,-466.197 166,-449.197 66,-449.197"/>
<text text-anchor="start" x="109" y="-453.997" font-family="Times,serif" font-size="14.00">2d</text>
</g>
<!-- dfr_1_mp -->
<g id="node2" class="node"><title>dfr_1_mp</title>
<ellipse fill="black" stroke="black" cx="76" cy="-259" rx="0.36" ry="0.36"/>
</g>
<!-- analysis_take_b_apart&#45;&gt;dfr_1_mp -->
<g id="edge3" class="edge"><title>analysis_take_b_apart&#45;&gt;dfr_1_mp:n</title>
<path fill="none" stroke="black" d="M102.49,-445.597C96.0474,-430.626 88.9081,-411.791 85,-394.197 72.1342,-336.275 76,-320.334 76,-261"/>
<text text-anchor="middle" x="93" y="-371.398" font-family="Helvetica,sans-Serif" font-size="14.00">#1</text>
</g>
<!-- dfr_2_mp -->
<g id="node5" class="node"><title>dfr_2_mp</title>
<polygon fill="blueviolet" stroke="black" points="220.329,-355.954 226.505,-356.059 232.617,-356.216 238.641,-356.425 244.552,-356.685 250.325,-356.996 255.939,-357.356 261.371,-357.765 266.601,-358.222 271.609,-358.724 276.378,-359.272 280.891,-359.863 285.132,-360.496 289.088,-361.168 292.748,-361.879 296.102,-362.626 299.14,-363.408 301.858,-364.221 304.249,-365.064 306.311,-365.935 308.043,-366.831 309.444,-367.749 310.518,-368.688 311.266,-369.644 311.695,-370.615 311.811,-371.599 311.62,-372.592 311.132,-373.592 310.357,-374.596 309.306,-375.601 307.989,-376.605 306.419,-377.605 304.609,-378.598 302.572,-379.581 300.322,-380.553 297.872,-381.509 295.235,-382.447 292.426,-383.366 289.458,-384.262 286.344,-385.132 283.097,-385.976 279.73,-386.789 276.254,-387.57 272.681,-388.318 269.021,-389.028 265.284,-389.701 261.48,-390.334 257.618,-390.925 253.705,-391.472 249.748,-391.975 245.754,-392.432 241.73,-392.841 237.679,-393.201 233.607,-393.512 229.518,-393.772 225.416,-393.981 221.304,-394.138 217.185,-394.243 213.062,-394.296 208.938,-394.296 204.815,-394.243 200.696,-394.138 196.584,-393.981 192.482,-393.772 188.393,-393.512 184.321,-393.201 180.27,-392.841 176.246,-392.432 172.252,-391.975 168.295,-391.472 164.382,-390.925 160.52,-390.334 156.716,-389.701 152.979,-389.028 149.319,-388.318 145.746,-387.57 142.27,-386.789 138.903,-385.976 135.656,-385.132 132.542,-384.262 129.574,-383.366 126.765,-382.447 124.128,-381.509 121.678,-380.553 119.428,-379.581 117.391,-378.598 115.581,-377.605 114.011,-376.605 112.694,-375.601 111.643,-374.596 110.868,-373.592 110.38,-372.592 110.189,-371.599 110.305,-370.615 110.734,-369.644 111.482,-368.688 112.556,-367.749 113.957,-366.831 115.689,-365.935 117.751,-365.064 120.142,-364.221 122.86,-363.408 125.898,-362.626 129.252,-361.879 132.912,-361.168 136.868,-360.496 141.109,-359.863 145.622,-359.272 150.391,-358.724 155.399,-358.222 160.629,-357.765 166.061,-357.356 171.675,-356.996 177.448,-356.685 183.359,-356.425 189.383,-356.216 195.495,-356.059 201.671,-355.954 207.886,-355.901 214.114,-355.901 220.329,-355.954"/>
<text text-anchor="start" x="153" y="-369.898" font-family="Courier,monospace" font-size="14.00" fill="white">WHEN #digit#&gt;1</text>
</g>
<!-- analysis_take_b_apart&#45;&gt;dfr_2_mp -->
<g id="edge4" class="edge"><title>analysis_take_b_apart&#45;&gt;dfr_2_mp:n</title>
<path fill="none" stroke="black" d="M174.271,-448.426C191.016,-437.441 205.877,-422.805 209.919,-404.255"/>
<polygon fill="black" stroke="black" points="213.412,-404.514 211,-394.197 206.452,-403.766 213.412,-404.514"/>
<text text-anchor="middle" x="215" y="-415.997" font-family="Helvetica,sans-Serif" font-size="14.00">#2</text>
</g>
<!-- analysis_add_together -->
<g id="node3" class="node"><title>analysis_add_together</title>
<path fill="grey" stroke="black" d="M28,-103.5C28,-103.5 120,-103.5 120,-103.5 126,-103.5 132,-109.5 132,-115.5 132,-115.5 132,-150.5 132,-150.5 132,-156.5 126,-162.5 120,-162.5 120,-162.5 28,-162.5 28,-162.5 22,-162.5 16,-156.5 16,-150.5 16,-150.5 16,-115.5 16,-115.5 16,-109.5 22,-103.5 28,-103.5"/>
<text text-anchor="start" x="28.5" y="-145.8" font-family="Times,serif" font-size="14.00">add_together (3)</text>
<text text-anchor="start" x="72" y="-128.8" font-family="Times,serif" font-size="14.00"> </text>
<polygon fill="grey" stroke="none" points="24,-107 24,-124 124,-124 124,-107 24,-107"/>
<text text-anchor="start" x="67.5" y="-111.8" font-family="Times,serif" font-size="14.00">2s</text>
</g>
<!-- dfr_1_mp&#45;&gt;analysis_add_together -->
<g id="edge5" class="edge"><title>dfr_1_mp:s&#45;&gt;analysis_add_together</title>
<path fill="none" stroke="blue" d="M76,-257C76,-228.908 75.472,-197.212 74.9586,-173.032"/>
<polygon fill="blue" stroke="blue" points="78.4532,-172.747 74.7334,-162.827 71.455,-172.901 78.4532,-172.747"/>
</g>
<!-- table_final_result -->
<g id="node4" class="node"><title>table_final_result</title>
<polygon fill="orange" stroke="black" points="134,-52 28,-52 28,-56 16,-56 16,-16 134,-16 134,-52"/>
<polyline fill="none" stroke="black" points="16,-52 28,-52 "/>
<text text-anchor="start" x="25" y="-29.8" font-family="Courier,monospace" font-size="14.00">final_result</text>
</g>
<!-- analysis_add_together&#45;&gt;table_final_result -->
<g id="edge1" class="edge"><title>analysis_add_together&#45;&gt;table_final_result</title>
<path fill="none" stroke="blue" d="M74.2946,-103.421C74.4288,-90.4109 74.5867,-75.0855 74.7192,-62.2404"/>
<polygon fill="blue" stroke="blue" points="78.2199,-62.1748 74.8233,-52.1393 71.2203,-62.1026 78.2199,-62.1748"/>
<text text-anchor="middle" x="83" y="-73.8" font-family="Helvetica,sans-Serif" font-size="14.00" fill="blue">#1</text>
</g>
<!-- dfr_2_mp&#45;&gt;dfr_1_mp -->
<g id="edge7" class="edge"><title>dfr_2_mp&#45;&gt;dfr_1_mp</title>
<path fill="none" stroke="red" stroke-dasharray="5,2" d="M181.695,-349.331C147.838,-320.716 94.8713,-275.95 80.001,-263.382"/>
<polygon fill="red" stroke="red" points="181.971,-349.564 186.704,-359.456 185.79,-352.792 189.609,-356.019 189.609,-356.019 189.609,-356.019 185.79,-352.792 192.514,-352.582 181.971,-349.564 181.971,-349.564"/>
<polygon fill="red" stroke="red" points="73.5911,-264.511 80.0462,-256.873 81.5737,-258.164 75.1186,-265.802 73.5911,-264.511"/>
<polyline fill="none" stroke="red" points="76.0549,-260.046 79.8737,-263.274 "/>
</g>
<!-- analysis_part_multiply -->
<g id="node6" class="node"><title>analysis_part_multiply</title>
<path fill="yellow" stroke="black" d="M160.5,-229.5C160.5,-229.5 269.5,-229.5 269.5,-229.5 275.5,-229.5 281.5,-235.5 281.5,-241.5 281.5,-241.5 281.5,-276.5 281.5,-276.5 281.5,-282.5 275.5,-288.5 269.5,-288.5 269.5,-288.5 160.5,-288.5 160.5,-288.5 154.5,-288.5 148.5,-282.5 148.5,-276.5 148.5,-276.5 148.5,-241.5 148.5,-241.5 148.5,-235.5 154.5,-229.5 160.5,-229.5"/>
<text text-anchor="start" x="168.5" y="-271.8" font-family="Times,serif" font-size="14.00">part_multiply (2)</text>
<text text-anchor="start" x="213.5" y="-254.8" font-family="Times,serif" font-size="14.00"> </text>
<polygon fill="green" stroke="none" points="157,-233 157,-250 194,-250 194,-233 157,-233"/>
<text text-anchor="start" x="169.5" y="-237.8" font-family="Times,serif" font-size="14.00">3r</text>
<polygon fill="DeepSkyBlue" stroke="none" points="194,-233 194,-250 256,-250 256,-233 194,-233"/>
<text text-anchor="start" x="218" y="-237.8" font-family="Times,serif" font-size="14.00">5d</text>
<text text-anchor="start" x="257" y="-237.8" font-family="Times,serif" font-size="14.00">=8</text>
</g>
<!-- dfr_2_mp&#45;&gt;analysis_part_multiply -->
<g id="edge6" class="edge"><title>dfr_2_mp:cond_0&#45;&gt;analysis_part_multiply</title>
<path fill="none" stroke="blue" d="M211,-364.098C211,-342.482 211.872,-318.36 212.802,-298.783"/>
<polygon fill="blue" stroke="blue" points="216.301,-298.871 213.304,-288.709 209.31,-298.522 216.301,-298.871"/>
<text text-anchor="middle" x="256" y="-310.8" font-family="Helvetica,sans-Serif" font-size="14.00" fill="blue">INPUT_PLUS </text>
</g>
<!-- sink_dfr_1_mp -->
<g id="node7" class="node"><title>sink_dfr_1_mp</title>
<polygon fill="darkgreen" stroke="black" points="149.662,-127.438 190,-115 230.338,-127.438 230.3,-147.562 149.7,-147.562 149.662,-127.438"/>
<text text-anchor="middle" x="190" y="-129.3" font-family="Courier,monospace" font-size="14.00" fill="white">Accu</text>
</g>
<!-- analysis_part_multiply&#45;&gt;sink_dfr_1_mp -->
<g id="edge2" class="edge"><title>analysis_part_multiply&#45;&gt;sink_dfr_1_mp</title>
<path fill="none" stroke="darkgreen" stroke-dasharray="5,2" d="M207.174,-219.185C203.103,-198.991 198.259,-174.963 194.755,-157.583"/>
<polygon fill="darkgreen" stroke="darkgreen" points="207.225,-219.437 204.79,-230.13 208.213,-224.339 209.202,-229.24 209.202,-229.24 209.202,-229.24 208.213,-224.339 213.613,-228.351 207.225,-219.437 207.225,-219.437"/>
<polygon fill="darkgreen" stroke="darkgreen" points="198.172,-156.825 192.765,-147.714 191.31,-158.209 198.172,-156.825"/>
<text text-anchor="middle" x="305.5" y="-199.8" font-family="Helvetica,sans-Serif" font-size="14.00" fill="darkgreen">#1</text>
<text text-anchor="middle" x="305.5" y="-184.8" font-family="Helvetica,sans-Serif" font-size="14.00" fill="darkgreen">=&gt; partial_product{digit}:=product</text>
</g>
</g>
</svg>
