<?xml version="1.0" encoding="UTF-8" standalone="no"?>
<!DOCTYPE svg PUBLIC "-//W3C//DTD SVG 1.1//EN"
 "http://www.w3.org/Graphics/SVG/1.1/DTD/svg11.dtd">
<!-- Generated by graphviz version 2.38.0 (20140413.2041)
 -->
<!-- Title: test Pages: 1 -->
<svg width="1067pt" height="676pt"
 viewBox="0.00 0.00 1066.62 675.87" xmlns="http://www.w3.org/2000/svg" xmlns:xlink="http://www.w3.org/1999/xlink">
<g id="graph0" class="graph" transform="scale(1 1) rotate(0) translate(0 675.868)">
<title>test</title>
<polygon fill="white" stroke="none" points="0,-0 0,-675.868 1066.62,-675.868 1066.62,-0 0,-0"/>
<g id="clust1" class="cluster"><title>cluster_long_mult</title>
<polygon fill="#ccebc5" stroke="black" stroke-width="2" points="14.3616,-8 14.3616,-667.868 1054.36,-667.868 1054.36,-8 14.3616,-8"/>
<text text-anchor="middle" x="534.362" y="-652.668" font-family="Times,serif" font-size="14.00">long_mult</text>
</g>
<g id="clust2" class="cluster"><title>cluster_add_together</title>
<path fill="grey" stroke="black" d="M301.362,-16C301.362,-16 735.362,-16 735.362,-16 741.362,-16 747.362,-22 747.362,-28 747.362,-28 747.362,-304.868 747.362,-304.868 747.362,-310.868 741.362,-316.868 735.362,-316.868 735.362,-316.868 301.362,-316.868 301.362,-316.868 295.362,-316.868 289.362,-310.868 289.362,-304.868 289.362,-304.868 289.362,-28 289.362,-28 289.362,-22 295.362,-16 301.362,-16"/>
<text text-anchor="middle" x="518.362" y="-301.668" font-family="Times,serif" font-size="14.00">add_together</text>
</g>
<g id="clust3" class="cluster"><title>cluster_part_multiply</title>
<path fill="yellow" stroke="black" d="M46.3616,-378.868C46.3616,-378.868 1022.36,-378.868 1022.36,-378.868 1028.36,-378.868 1034.36,-384.868 1034.36,-390.868 1034.36,-390.868 1034.36,-464.868 1034.36,-464.868 1034.36,-470.868 1028.36,-476.868 1022.36,-476.868 1022.36,-476.868 46.3616,-476.868 46.3616,-476.868 40.3616,-476.868 34.3616,-470.868 34.3616,-464.868 34.3616,-464.868 34.3616,-390.868 34.3616,-390.868 34.3616,-384.868 40.3616,-378.868 46.3616,-378.868"/>
<text text-anchor="middle" x="534.362" y="-461.668" font-family="Times,serif" font-size="14.00">part_multiply</text>
</g>
<g id="clust4" class="cluster"><title>cluster_take_b_apart</title>
<path fill="DeepSkyBlue" stroke="black" d="M423.362,-538.868C423.362,-538.868 761.362,-538.868 761.362,-538.868 767.362,-538.868 773.362,-544.868 773.362,-550.868 773.362,-550.868 773.362,-624.868 773.362,-624.868 773.362,-630.868 767.362,-636.868 761.362,-636.868 761.362,-636.868 423.362,-636.868 423.362,-636.868 417.362,-636.868 411.362,-630.868 411.362,-624.868 411.362,-624.868 411.362,-550.868 411.362,-550.868 411.362,-544.868 417.362,-538.868 423.362,-538.868"/>
<text text-anchor="middle" x="592.362" y="-621.668" font-family="Times,serif" font-size="14.00">take_b_apart</text>
</g>
<!-- job_1__long_mult -->
<g id="node1" class="node"><title>job_1__long_mult</title>
<polygon fill="DeepSkyBlue" stroke="black" points="583.362,-605.868 423.362,-605.868 419.362,-601.868 419.362,-546.868 579.362,-546.868 583.362,-550.868 583.362,-605.868"/>
<polyline fill="none" stroke="black" points="579.362,-601.868 419.362,-601.868 "/>
<polyline fill="none" stroke="black" points="579.362,-601.868 579.362,-546.868 "/>
<polyline fill="none" stroke="black" points="579.362,-601.868 583.362,-605.868 "/>
<text text-anchor="start" x="444.362" y="-590.168" font-family="Times,serif" font-style="italic" text-decoration="underline" font-size="14.00">job_id:</text>
<text text-anchor="start" x="534.862" y="-590.168" font-family="Times,serif" font-style="italic" font-size="14.00">1</text>
<text text-anchor="start" x="428.862" y="-572.168" font-family="Times,serif" font-size="14.00">a_multiplier:</text>
<text text-anchor="start" x="502.362" y="-572.168" font-family="Times,serif" font-size="14.00"> 9650156169</text>
<text text-anchor="start" x="428.362" y="-555.168" font-family="Times,serif" font-size="14.00">b_multiplier:</text>
<text text-anchor="start" x="505.862" y="-555.168" font-family="Times,serif" font-size="14.00"> 327358788</text>
</g>
<!-- job_3__long_mult -->
<g id="node2" class="node"><title>job_3__long_mult</title>
<polygon fill="grey" stroke="black" points="464.362,-66 366.362,-66 362.362,-62 362.362,-24 460.362,-24 464.362,-28 464.362,-66"/>
<polyline fill="none" stroke="black" points="460.362,-62 362.362,-62 "/>
<polyline fill="none" stroke="black" points="460.362,-62 460.362,-24 "/>
<polyline fill="none" stroke="black" points="460.362,-62 464.362,-66 "/>
<text text-anchor="start" x="388.862" y="-50.8" font-family="Times,serif" font-style="italic" text-decoration="underline" font-size="14.00">job_id:</text>
<text text-anchor="start" x="448.362" y="-50.8" font-family="Times,serif" font-style="italic" font-size="14.00">3</text>
<text text-anchor="start" x="371.362" y="-33.8" font-family="Times,serif" font-style="italic" text-decoration="underline" font-size="14.00">params from:</text>
<text text-anchor="start" x="448.362" y="-33.8" font-family="Times,serif" font-style="italic" font-size="14.00">1</text>
</g>
<!-- job_1__long_mult&#45;&gt;job_3__long_mult -->
<g id="edge4" class="edge"><title>job_1__long_mult&#45;&gt;job_3__long_mult</title>
<path fill="none" stroke="blue" d="M419.067,-570.303C297.333,-560.9 78.4319,-536.031 30.3616,-476.868 -99.685,-316.812 227.75,-135.27 360.465,-70.5248"/>
<polygon fill="blue" stroke="blue" points="362.199,-73.5741 369.675,-66.0669 359.149,-67.2734 362.199,-73.5741"/>
</g>
<!-- job_4__long_mult -->
<g id="node3" class="node"><title>job_4__long_mult</title>
<polygon fill="DeepSkyBlue" stroke="black" points="644.362,-445.868 542.362,-445.868 538.362,-441.868 538.362,-386.868 640.362,-386.868 644.362,-390.868 644.362,-445.868"/>
<polyline fill="none" stroke="black" points="640.362,-441.868 538.362,-441.868 "/>
<polyline fill="none" stroke="black" points="640.362,-441.868 640.362,-386.868 "/>
<polyline fill="none" stroke="black" points="640.362,-441.868 644.362,-445.868 "/>
<text text-anchor="start" x="564.862" y="-430.168" font-family="Times,serif" font-style="italic" text-decoration="underline" font-size="14.00">job_id:</text>
<text text-anchor="start" x="626.362" y="-430.168" font-family="Times,serif" font-style="italic" font-size="14.00">4</text>
<text text-anchor="start" x="547.362" y="-413.168" font-family="Times,serif" font-style="italic" text-decoration="underline" font-size="14.00">params from:</text>
<text text-anchor="start" x="626.362" y="-413.168" font-family="Times,serif" font-style="italic" font-size="14.00">1</text>
<text text-anchor="start" x="570.362" y="-395.168" font-family="Times,serif" font-size="14.00">digit:</text>
<text text-anchor="start" x="624.362" y="-395.168" font-family="Times,serif" font-size="14.00"> 2</text>
</g>
<!-- job_1__long_mult&#45;&gt;job_4__long_mult -->
<g id="edge5" class="edge"><title>job_1__long_mult&#45;&gt;job_4__long_mult</title>
<path fill="none" stroke="blue" d="M517.66,-546.756C532.332,-520.997 553.992,-482.973 570.037,-454.806"/>
<polygon fill="blue" stroke="blue" points="573.124,-456.456 575.033,-446.035 567.042,-452.991 573.124,-456.456"/>
</g>
<!-- job_5__long_mult -->
<g id="node5" class="node"><title>job_5__long_mult</title>
<polygon fill="green" stroke="black" points="520.362,-445.868 418.362,-445.868 414.362,-441.868 414.362,-386.868 516.362,-386.868 520.362,-390.868 520.362,-445.868"/>
<polyline fill="none" stroke="black" points="516.362,-441.868 414.362,-441.868 "/>
<polyline fill="none" stroke="black" points="516.362,-441.868 516.362,-386.868 "/>
<polyline fill="none" stroke="black" points="516.362,-441.868 520.362,-445.868 "/>
<text text-anchor="start" x="440.862" y="-430.168" font-family="Times,serif" font-style="italic" text-decoration="underline" font-size="14.00">job_id:</text>
<text text-anchor="start" x="502.362" y="-430.168" font-family="Times,serif" font-style="italic" font-size="14.00">5</text>
<text text-anchor="start" x="423.362" y="-413.168" font-family="Times,serif" font-style="italic" text-decoration="underline" font-size="14.00">params from:</text>
<text text-anchor="start" x="502.362" y="-413.168" font-family="Times,serif" font-style="italic" font-size="14.00">1</text>
<text text-anchor="start" x="446.362" y="-395.168" font-family="Times,serif" font-size="14.00">digit:</text>
<text text-anchor="start" x="500.362" y="-395.168" font-family="Times,serif" font-size="14.00"> 3</text>
</g>
<!-- job_1__long_mult&#45;&gt;job_5__long_mult -->
<g id="edge6" class="edge"><title>job_1__long_mult&#45;&gt;job_5__long_mult</title>
<path fill="none" stroke="blue" d="M495.204,-546.756C489.734,-521.332 481.691,-483.959 475.655,-455.908"/>
<polygon fill="blue" stroke="blue" points="479.056,-455.075 473.53,-446.035 472.212,-456.547 479.056,-455.075"/>
</g>
<!-- job_6__long_mult -->
<g id="node6" class="node"><title>job_6__long_mult</title>
<polygon fill="green" stroke="black" points="396.362,-445.868 294.362,-445.868 290.362,-441.868 290.362,-386.868 392.362,-386.868 396.362,-390.868 396.362,-445.868"/>
<polyline fill="none" stroke="black" points="392.362,-441.868 290.362,-441.868 "/>
<polyline fill="none" stroke="black" points="392.362,-441.868 392.362,-386.868 "/>
<polyline fill="none" stroke="black" points="392.362,-441.868 396.362,-445.868 "/>
<text text-anchor="start" x="316.862" y="-430.168" font-family="Times,serif" font-style="italic" text-decoration="underline" font-size="14.00">job_id:</text>
<text text-anchor="start" x="378.362" y="-430.168" font-family="Times,serif" font-style="italic" font-size="14.00">6</text>
<text text-anchor="start" x="299.362" y="-413.168" font-family="Times,serif" font-style="italic" text-decoration="underline" font-size="14.00">params from:</text>
<text text-anchor="start" x="378.362" y="-413.168" font-family="Times,serif" font-style="italic" font-size="14.00">1</text>
<text text-anchor="start" x="322.362" y="-395.168" font-family="Times,serif" font-size="14.00">digit:</text>
<text text-anchor="start" x="376.362" y="-395.168" font-family="Times,serif" font-size="14.00"> 5</text>
</g>
<!-- job_1__long_mult&#45;&gt;job_6__long_mult -->
<g id="edge7" class="edge"><title>job_1__long_mult&#45;&gt;job_6__long_mult</title>
<path fill="none" stroke="blue" d="M472.749,-546.756C446.545,-520.551 407.646,-481.653 379.345,-453.351"/>
<polygon fill="blue" stroke="blue" points="381.574,-450.631 372.028,-446.035 376.624,-455.581 381.574,-450.631"/>
</g>
<!-- job_7__long_mult -->
<g id="node7" class="node"><title>job_7__long_mult</title>
<polygon fill="green" stroke="black" points="272.362,-445.868 170.362,-445.868 166.362,-441.868 166.362,-386.868 268.362,-386.868 272.362,-390.868 272.362,-445.868"/>
<polyline fill="none" stroke="black" points="268.362,-441.868 166.362,-441.868 "/>
<polyline fill="none" stroke="black" points="268.362,-441.868 268.362,-386.868 "/>
<polyline fill="none" stroke="black" points="268.362,-441.868 272.362,-445.868 "/>
<text text-anchor="start" x="192.862" y="-430.168" font-family="Times,serif" font-style="italic" text-decoration="underline" font-size="14.00">job_id:</text>
<text text-anchor="start" x="254.362" y="-430.168" font-family="Times,serif" font-style="italic" font-size="14.00">7</text>
<text text-anchor="start" x="175.362" y="-413.168" font-family="Times,serif" font-style="italic" text-decoration="underline" font-size="14.00">params from:</text>
<text text-anchor="start" x="254.362" y="-413.168" font-family="Times,serif" font-style="italic" font-size="14.00">1</text>
<text text-anchor="start" x="198.362" y="-395.168" font-family="Times,serif" font-size="14.00">digit:</text>
<text text-anchor="start" x="252.362" y="-395.168" font-family="Times,serif" font-size="14.00"> 7</text>
</g>
<!-- job_1__long_mult&#45;&gt;job_7__long_mult -->
<g id="edge8" class="edge"><title>job_1__long_mult&#45;&gt;job_7__long_mult</title>
<path fill="none" stroke="blue" d="M420.271,-546.834C377.144,-529.783 324.31,-505.805 281.362,-476.868 271.212,-470.03 261.201,-461.465 252.282,-452.982"/>
<polygon fill="blue" stroke="blue" points="254.661,-450.412 245.068,-445.915 249.762,-455.413 254.661,-450.412"/>
</g>
<!-- job_8__long_mult -->
<g id="node8" class="node"><title>job_8__long_mult</title>
<polygon fill="green" stroke="black" points="148.362,-445.868 46.3616,-445.868 42.3616,-441.868 42.3616,-386.868 144.362,-386.868 148.362,-390.868 148.362,-445.868"/>
<polyline fill="none" stroke="black" points="144.362,-441.868 42.3616,-441.868 "/>
<polyline fill="none" stroke="black" points="144.362,-441.868 144.362,-386.868 "/>
<polyline fill="none" stroke="black" points="144.362,-441.868 148.362,-445.868 "/>
<text text-anchor="start" x="68.8616" y="-430.168" font-family="Times,serif" font-style="italic" text-decoration="underline" font-size="14.00">job_id:</text>
<text text-anchor="start" x="130.362" y="-430.168" font-family="Times,serif" font-style="italic" font-size="14.00">8</text>
<text text-anchor="start" x="51.3616" y="-413.168" font-family="Times,serif" font-style="italic" text-decoration="underline" font-size="14.00">params from:</text>
<text text-anchor="start" x="130.362" y="-413.168" font-family="Times,serif" font-style="italic" font-size="14.00">1</text>
<text text-anchor="start" x="74.3616" y="-395.168" font-family="Times,serif" font-size="14.00">digit:</text>
<text text-anchor="start" x="128.362" y="-395.168" font-family="Times,serif" font-size="14.00"> 8</text>
</g>
<!-- job_1__long_mult&#45;&gt;job_8__long_mult -->
<g id="edge9" class="edge"><title>job_1__long_mult&#45;&gt;job_8__long_mult</title>
<path fill="none" stroke="blue" d="M419.127,-563.373C346.539,-550.178 239.758,-524.248 157.362,-476.868 146.449,-470.594 135.995,-461.992 126.883,-453.278"/>
<polygon fill="blue" stroke="blue" points="129.116,-450.562 119.563,-445.981 124.174,-455.52 129.116,-450.562"/>
</g>
<!-- semaphore_1__long_mult -->
<g id="node4" class="node"><title>semaphore_1__long_mult</title>
<polygon fill="grey" stroke="black" points="657.463,-244.78 477.362,-285.803 297.26,-244.78 297.429,-178.404 657.295,-178.404 657.463,-244.78"/>
<text text-anchor="start" x="455.862" y="-249.234" font-family="Times,serif" font-weight="bold" font-style="italic" font-size="14.00" fill="brown">local: 4</text>
<text text-anchor="start" x="475.362" y="-231.234" font-family="Times,serif" font-size="14.00"> </text>
<text text-anchor="start" x="398.362" y="-215.234" font-family="Times,serif" font-weight="bold" text-decoration="underline" font-size="14.00">partial_product</text>
<text text-anchor="start" x="375.362" y="-197.234" font-family="Times,serif" font-size="14.00">{2}</text>
<text text-anchor="start" x="431.362" y="-198.234" font-family="Times,serif" font-size="14.00"> </text>
<text text-anchor="start" x="435.362" y="-198.234" font-family="Times,serif" font-weight="bold" font-size="14.00">&#45;&#45;&gt;</text>
<text text-anchor="start" x="453.362" y="-198.234" font-family="Times,serif" font-size="14.00"> </text>
<text text-anchor="start" x="492.362" y="-197.234" font-family="Times,serif" font-size="14.00">&quot;19300312338&quot;</text>
</g>
<!-- job_4__long_mult&#45;&gt;semaphore_1__long_mult -->
<g id="edge14" class="edge"><title>job_4__long_mult&#45;&gt;semaphore_1__long_mult</title>
<path fill="none" stroke="darkgreen" stroke-dasharray="5,2" d="M574.047,-386.825C556.732,-358.279 529.715,-313.741 508.637,-278.994"/>
</g>
<!-- semaphore_1__long_mult&#45;&gt;job_3__long_mult -->
<g id="edge19" class="edge"><title>semaphore_1__long_mult:s&#45;&gt;job_3__long_mult:n</title>
<path fill="none" stroke="red" stroke-dasharray="5,2" d="M477.362,-177.434C477.362,-122.106 417.299,-122.997 413.545,-71.1825"/>
<polygon fill="red" stroke="red" points="408.4,-67.1765 418.394,-66.8223 418.465,-68.821 408.471,-69.1752 408.4,-67.1765"/>
<polyline fill="none" stroke="red" points="413.362,-66 413.539,-70.9969 "/>
</g>
<!-- job_5__long_mult&#45;&gt;semaphore_1__long_mult -->
<g id="edge15" class="edge"><title>job_5__long_mult&#45;&gt;semaphore_1__long_mult</title>
<path fill="none" stroke="red" stroke-dasharray="5,2" d="M468.88,-386.825C470.234,-361.386 472.263,-323.246 473.998,-290.653"/>
<polygon fill="red" stroke="red" points="469.227,-286.205 479.213,-286.737 479.107,-288.734 469.121,-288.202 469.227,-286.205"/>
<polyline fill="none" stroke="red" points="474.273,-285.472 474.008,-290.465 "/>
</g>
<!-- job_6__long_mult&#45;&gt;semaphore_1__long_mult -->
<g id="edge16" class="edge"><title>job_6__long_mult&#45;&gt;semaphore_1__long_mult</title>
<path fill="none" stroke="red" stroke-dasharray="5,2" d="M363.713,-386.825C383.483,-359.098 414.01,-316.284 438.449,-282.008"/>
<polygon fill="red" stroke="red" points="436.747,-275.784 444.889,-281.589 443.728,-283.218 435.586,-277.412 436.747,-275.784"/>
<polyline fill="none" stroke="red" points="441.398,-277.872 438.496,-281.944 "/>
</g>
<!-- job_7__long_mult&#45;&gt;semaphore_1__long_mult -->
<g id="edge17" class="edge"><title>job_7__long_mult&#45;&gt;semaphore_1__long_mult</title>
<path fill="none" stroke="red" stroke-dasharray="5,2" d="M258.546,-386.825C299.268,-357.162 363.696,-310.231 412.116,-274.961"/>
<polygon fill="red" stroke="red" points="412.408,-268.562 418.296,-276.645 416.68,-277.823 410.792,-269.74 412.408,-268.562"/>
<polyline fill="none" stroke="red" points="416.16,-272.015 412.119,-274.959 "/>
</g>
<!-- job_8__long_mult&#45;&gt;semaphore_1__long_mult -->
<g id="edge18" class="edge"><title>job_8__long_mult&#45;&gt;semaphore_1__long_mult</title>
<path fill="none" stroke="red" stroke-dasharray="5,2" d="M142.844,-386.832C147.714,-384.081 152.615,-381.382 157.362,-378.868 233.08,-338.769 321.224,-297.436 385.808,-268.104"/>
<polygon fill="red" stroke="red" points="387.441,-261.873 391.572,-270.98 389.751,-271.806 385.619,-262.7 387.441,-261.873"/>
<polyline fill="none" stroke="red" points="390.417,-266.013 385.864,-268.079 "/>
</g>
<!-- job_2__long_mult -->
<g id="node9" class="node"><title>job_2__long_mult</title>
<polygon fill="DeepSkyBlue" stroke="black" points="765.362,-605.868 605.362,-605.868 601.362,-601.868 601.362,-546.868 761.362,-546.868 765.362,-550.868 765.362,-605.868"/>
<polyline fill="none" stroke="black" points="761.362,-601.868 601.362,-601.868 "/>
<polyline fill="none" stroke="black" points="761.362,-601.868 761.362,-546.868 "/>
<polyline fill="none" stroke="black" points="761.362,-601.868 765.362,-605.868 "/>
<text text-anchor="start" x="626.362" y="-590.168" font-family="Times,serif" font-style="italic" text-decoration="underline" font-size="14.00">job_id:</text>
<text text-anchor="start" x="716.862" y="-590.168" font-family="Times,serif" font-style="italic" font-size="14.00">2</text>
<text text-anchor="start" x="610.862" y="-572.168" font-family="Times,serif" font-size="14.00">a_multiplier:</text>
<text text-anchor="start" x="687.862" y="-572.168" font-family="Times,serif" font-size="14.00"> 327358788</text>
<text text-anchor="start" x="610.362" y="-555.168" font-family="Times,serif" font-size="14.00">b_multiplier:</text>
<text text-anchor="start" x="684.362" y="-555.168" font-family="Times,serif" font-size="14.00"> 9650156169</text>
</g>
<!-- job_9__long_mult -->
<g id="node10" class="node"><title>job_9__long_mult</title>
<polygon fill="grey" stroke="black" points="739.362,-66 641.362,-66 637.362,-62 637.362,-24 735.362,-24 739.362,-28 739.362,-66"/>
<polyline fill="none" stroke="black" points="735.362,-62 637.362,-62 "/>
<polyline fill="none" stroke="black" points="735.362,-62 735.362,-24 "/>
<polyline fill="none" stroke="black" points="735.362,-62 739.362,-66 "/>
<text text-anchor="start" x="663.862" y="-50.8" font-family="Times,serif" font-style="italic" text-decoration="underline" font-size="14.00">job_id:</text>
<text text-anchor="start" x="723.362" y="-50.8" font-family="Times,serif" font-style="italic" font-size="14.00">9</text>
<text text-anchor="start" x="646.362" y="-33.8" font-family="Times,serif" font-style="italic" text-decoration="underline" font-size="14.00">params from:</text>
<text text-anchor="start" x="723.362" y="-33.8" font-family="Times,serif" font-style="italic" font-size="14.00">2</text>
</g>
<!-- job_2__long_mult&#45;&gt;job_9__long_mult -->
<g id="edge13" class="edge"><title>job_2__long_mult&#45;&gt;job_9__long_mult</title>
<path fill="none" stroke="blue" d="M765.493,-564.141C859.706,-549.382 1005.46,-520.146 1038.36,-476.868 1158.45,-318.918 858.997,-136.34 737.153,-70.9109"/>
<polygon fill="blue" stroke="blue" points="738.474,-67.6491 728.003,-66.0383 735.184,-73.8278 738.474,-67.6491"/>
</g>
<!-- job_10__long_mult -->
<g id="node11" class="node"><title>job_10__long_mult</title>
<polygon fill="green" stroke="black" points="771.862,-445.868 666.862,-445.868 662.862,-441.868 662.862,-386.868 767.862,-386.868 771.862,-390.868 771.862,-445.868"/>
<polyline fill="none" stroke="black" points="767.862,-441.868 662.862,-441.868 "/>
<polyline fill="none" stroke="black" points="767.862,-441.868 767.862,-386.868 "/>
<polyline fill="none" stroke="black" points="767.862,-441.868 771.862,-445.868 "/>
<text text-anchor="start" x="689.862" y="-430.168" font-family="Times,serif" font-style="italic" text-decoration="underline" font-size="14.00">job_id:</text>
<text text-anchor="start" x="749.362" y="-430.168" font-family="Times,serif" font-style="italic" font-size="14.00">10</text>
<text text-anchor="start" x="672.362" y="-413.168" font-family="Times,serif" font-style="italic" text-decoration="underline" font-size="14.00">params from:</text>
<text text-anchor="start" x="752.862" y="-413.168" font-family="Times,serif" font-style="italic" font-size="14.00">2</text>
<text text-anchor="start" x="695.362" y="-395.168" font-family="Times,serif" font-size="14.00">digit:</text>
<text text-anchor="start" x="750.862" y="-395.168" font-family="Times,serif" font-size="14.00"> 5</text>
</g>
<!-- job_2__long_mult&#45;&gt;job_10__long_mult -->
<g id="edge10" class="edge"><title>job_2__long_mult&#45;&gt;job_10__long_mult</title>
<path fill="none" stroke="blue" d="M689.519,-546.756C694.99,-521.332 703.032,-483.959 709.068,-455.908"/>
<polygon fill="blue" stroke="blue" points="712.511,-456.547 711.193,-446.035 705.667,-455.075 712.511,-456.547"/>
</g>
<!-- job_11__long_mult -->
<g id="node13" class="node"><title>job_11__long_mult</title>
<polygon fill="green" stroke="black" points="1025.86,-445.868 920.862,-445.868 916.862,-441.868 916.862,-386.868 1021.86,-386.868 1025.86,-390.868 1025.86,-445.868"/>
<polyline fill="none" stroke="black" points="1021.86,-441.868 916.862,-441.868 "/>
<polyline fill="none" stroke="black" points="1021.86,-441.868 1021.86,-386.868 "/>
<polyline fill="none" stroke="black" points="1021.86,-441.868 1025.86,-445.868 "/>
<text text-anchor="start" x="943.862" y="-430.168" font-family="Times,serif" font-style="italic" text-decoration="underline" font-size="14.00">job_id:</text>
<text text-anchor="start" x="1003.36" y="-430.168" font-family="Times,serif" font-style="italic" font-size="14.00">11</text>
<text text-anchor="start" x="926.362" y="-413.168" font-family="Times,serif" font-style="italic" text-decoration="underline" font-size="14.00">params from:</text>
<text text-anchor="start" x="1006.86" y="-413.168" font-family="Times,serif" font-style="italic" font-size="14.00">2</text>
<text text-anchor="start" x="949.362" y="-395.168" font-family="Times,serif" font-size="14.00">digit:</text>
<text text-anchor="start" x="1004.86" y="-395.168" font-family="Times,serif" font-size="14.00"> 6</text>
</g>
<!-- job_2__long_mult&#45;&gt;job_11__long_mult -->
<g id="edge11" class="edge"><title>job_2__long_mult&#45;&gt;job_11__long_mult</title>
<path fill="none" stroke="blue" d="M765.433,-547.295C809.667,-530.27 864.093,-506.172 908.362,-476.868 918.652,-470.056 928.817,-461.5 937.879,-453.018"/>
<polygon fill="blue" stroke="blue" points="940.441,-455.41 945.211,-445.95 935.583,-450.37 940.441,-455.41"/>
</g>
<!-- job_12__long_mult -->
<g id="node14" class="node"><title>job_12__long_mult</title>
<polygon fill="green" stroke="black" points="898.862,-445.868 793.862,-445.868 789.862,-441.868 789.862,-386.868 894.862,-386.868 898.862,-390.868 898.862,-445.868"/>
<polyline fill="none" stroke="black" points="894.862,-441.868 789.862,-441.868 "/>
<polyline fill="none" stroke="black" points="894.862,-441.868 894.862,-386.868 "/>
<polyline fill="none" stroke="black" points="894.862,-441.868 898.862,-445.868 "/>
<text text-anchor="start" x="816.862" y="-430.168" font-family="Times,serif" font-style="italic" text-decoration="underline" font-size="14.00">job_id:</text>
<text text-anchor="start" x="876.362" y="-430.168" font-family="Times,serif" font-style="italic" font-size="14.00">12</text>
<text text-anchor="start" x="799.362" y="-413.168" font-family="Times,serif" font-style="italic" text-decoration="underline" font-size="14.00">params from:</text>
<text text-anchor="start" x="879.862" y="-413.168" font-family="Times,serif" font-style="italic" font-size="14.00">2</text>
<text text-anchor="start" x="822.362" y="-395.168" font-family="Times,serif" font-size="14.00">digit:</text>
<text text-anchor="start" x="877.862" y="-395.168" font-family="Times,serif" font-size="14.00"> 9</text>
</g>
<!-- job_2__long_mult&#45;&gt;job_12__long_mult -->
<g id="edge12" class="edge"><title>job_2__long_mult&#45;&gt;job_12__long_mult</title>
<path fill="none" stroke="blue" d="M712.518,-546.756C739.219,-520.551 778.857,-481.653 807.695,-453.351"/>
<polygon fill="blue" stroke="blue" points="810.465,-455.537 815.151,-446.035 805.562,-450.541 810.465,-455.537"/>
</g>
<!-- semaphore_2__long_mult -->
<g id="node12" class="node"><title>semaphore_2__long_mult</title>
<polygon fill="grey" stroke="black" points="738.964,-231.996 707.362,-244.434 675.76,-231.996 675.789,-211.872 738.934,-211.872 738.964,-231.996"/>
<text text-anchor="start" x="686.362" y="-223.234" font-family="Times,serif" font-weight="bold" font-style="italic" font-size="14.00" fill="brown">local: 3</text>
</g>
<!-- job_10__long_mult&#45;&gt;semaphore_2__long_mult -->
<g id="edge1" class="edge"><title>job_10__long_mult&#45;&gt;semaphore_2__long_mult</title>
<path fill="none" stroke="red" stroke-dasharray="5,2" d="M715.843,-386.825C713.841,-349.202 710.361,-283.8 708.543,-249.645"/>
<polygon fill="red" stroke="red" points="703.327,-245.705 713.313,-245.174 713.419,-247.171 703.433,-247.702 703.327,-245.705"/>
<polyline fill="none" stroke="red" points="708.267,-244.441 708.532,-249.434 "/>
</g>
<!-- semaphore_2__long_mult&#45;&gt;job_9__long_mult -->
<g id="edge20" class="edge"><title>semaphore_2__long_mult:s&#45;&gt;job_9__long_mult:n</title>
<path fill="none" stroke="red" stroke-dasharray="5,2" d="M707.362,-210.434C707.362,-147.459 689.386,-131.6 688.403,-71.2015"/>
<polygon fill="red" stroke="red" points="683.37,-67.0403 693.37,-66.9597 693.386,-68.9596 683.386,-69.0402 683.37,-67.0403"/>
<polyline fill="none" stroke="red" points="688.362,-66 688.402,-70.9998 "/>
</g>
<!-- job_11__long_mult&#45;&gt;semaphore_2__long_mult -->
<g id="edge2" class="edge"><title>job_11__long_mult&#45;&gt;semaphore_2__long_mult</title>
<path fill="none" stroke="red" stroke-dasharray="5,2" d="M931.266,-386.825C873.81,-345.924 770.237,-272.193 727.077,-241.469"/>
<polygon fill="red" stroke="red" points="720.763,-243.112 726.562,-234.965 728.192,-236.125 722.392,-244.272 720.763,-243.112"/>
<polyline fill="none" stroke="red" points="722.848,-238.458 726.921,-241.358 "/>
</g>
<!-- job_12__long_mult&#45;&gt;semaphore_2__long_mult -->
<g id="edge3" class="edge"><title>job_12__long_mult&#45;&gt;semaphore_2__long_mult</title>
<path fill="none" stroke="red" stroke-dasharray="5,2" d="M823.554,-386.825C794.899,-347.517 744.139,-277.885 720.348,-245.248"/>
<polygon fill="red" stroke="red" points="713.86,-244.836 721.94,-238.945 723.119,-240.561 715.038,-246.452 713.86,-244.836"/>
<polyline fill="none" stroke="red" points="717.311,-241.082 720.256,-245.123 "/>
</g>
</g>
</svg>
