<?xml version="1.0" encoding="UTF-8" standalone="no"?>
<!DOCTYPE svg PUBLIC "-//W3C//DTD SVG 1.1//EN"
 "http://www.w3.org/Graphics/SVG/1.1/DTD/svg11.dtd">
<!-- Generated by graphviz version 2.38.0 (20140413.2041)
 -->
<!-- Title: test Pages: 1 -->
<svg width="662pt" height="593pt"
 viewBox="0.00 0.00 662.00 593.00" xmlns="http://www.w3.org/2000/svg" xmlns:xlink="http://www.w3.org/1999/xlink">
<g id="graph0" class="graph" transform="scale(1 1) rotate(0) translate(0 593)">
<title>test</title>
<polygon fill="white" stroke="none" points="0,-0 0,-593 662,-593 662,-0 0,-0"/>
<g id="clust1" class="cluster"><title>cluster_long_mult</title>
<polygon fill="#ccebc5" stroke="black" stroke-width="2" points="8,-8 8,-585 654,-585 654,-8 8,-8"/>
<text text-anchor="middle" x="331" y="-569.8" font-family="Times,serif" font-size="14.00">long_mult</text>
</g>
<g id="clust2" class="cluster"><title>cluster_add_together</title>
<path fill="grey" stroke="black" d="M218,-16C218,-16 312,-16 312,-16 318,-16 324,-22 324,-28 324,-28 324,-222 324,-222 324,-228 318,-234 312,-234 312,-234 218,-234 218,-234 212,-234 206,-228 206,-222 206,-222 206,-28 206,-28 206,-22 212,-16 218,-16"/>
<text text-anchor="middle" x="265" y="-218.8" font-family="Times,serif" font-size="14.00">add_together</text>
</g>
<g id="clust3" class="cluster"><title>cluster_part_multiply</title>
<path fill="green" stroke="black" d="M40,-296C40,-296 634,-296 634,-296 640,-296 646,-302 646,-308 646,-308 646,-382 646,-382 646,-388 640,-394 634,-394 634,-394 40,-394 40,-394 34,-394 28,-388 28,-382 28,-382 28,-308 28,-308 28,-302 34,-296 40,-296"/>
<text text-anchor="middle" x="337" y="-378.8" font-family="Times,serif" font-size="14.00">part_multiply</text>
</g>
<g id="clust4" class="cluster"><title>cluster_take_b_apart</title>
<path fill="yellow" stroke="black" d="M52,-456C52,-456 390,-456 390,-456 396,-456 402,-462 402,-468 402,-468 402,-542 402,-542 402,-548 396,-554 390,-554 390,-554 52,-554 52,-554 46,-554 40,-548 40,-542 40,-542 40,-468 40,-468 40,-462 46,-456 52,-456"/>
<text text-anchor="middle" x="221" y="-538.8" font-family="Times,serif" font-size="14.00">take_b_apart</text>
</g>
<!-- job_1__long_mult -->
<g id="node1" class="node"><title>job_1__long_mult</title>
<polygon fill="DeepSkyBlue" stroke="black" points="394,-523 234,-523 230,-519 230,-464 390,-464 394,-468 394,-523"/>
<polyline fill="none" stroke="black" points="390,-519 230,-519 "/>
<polyline fill="none" stroke="black" points="390,-519 390,-464 "/>
<polyline fill="none" stroke="black" points="390,-519 394,-523 "/>
<text text-anchor="start" x="255" y="-507.3" font-family="Times,serif" font-style="italic" text-decoration="underline" font-size="14.00">job_id:</text>
<text text-anchor="start" x="345.5" y="-507.3" font-family="Times,serif" font-style="italic" font-size="14.00">1</text>
<text text-anchor="start" x="239.5" y="-489.3" font-family="Times,serif" font-size="14.00">a_multiplier:</text>
<text text-anchor="start" x="313" y="-489.3" font-family="Times,serif" font-size="14.00"> 9650156169</text>
<text text-anchor="start" x="239" y="-472.3" font-family="Times,serif" font-size="14.00">b_multiplier:</text>
<text text-anchor="start" x="316.5" y="-472.3" font-family="Times,serif" font-size="14.00"> 327358788</text>
</g>
<!-- job_3__long_mult -->
<g id="node2" class="node"><title>job_3__long_mult</title>
<polygon fill="grey" stroke="black" points="316,-66 218,-66 214,-62 214,-24 312,-24 316,-28 316,-66"/>
<polyline fill="none" stroke="black" points="312,-62 214,-62 "/>
<polyline fill="none" stroke="black" points="312,-62 312,-24 "/>
<polyline fill="none" stroke="black" points="312,-62 316,-66 "/>
<text text-anchor="start" x="240.5" y="-50.8" font-family="Times,serif" font-style="italic" text-decoration="underline" font-size="14.00">job_id:</text>
<text text-anchor="start" x="300" y="-50.8" font-family="Times,serif" font-style="italic" font-size="14.00">3</text>
<text text-anchor="start" x="223" y="-33.8" font-family="Times,serif" font-style="italic" text-decoration="underline" font-size="14.00">params from:</text>
<text text-anchor="start" x="300" y="-33.8" font-family="Times,serif" font-style="italic" font-size="14.00">1</text>
</g>
<!-- job_1__long_mult&#45;&gt;job_3__long_mult -->
<g id="edge1" class="edge"><title>job_1__long_mult&#45;&gt;job_3__long_mult</title>
<path fill="none" stroke="blue" d="M242.155,-463.858C235.037,-461.128 227.893,-458.463 221,-456 134.563,-425.114 78.2954,-468.009 24,-394 -62.9798,-275.44 133.229,-129.623 223.085,-71.5833"/>
<polygon fill="blue" stroke="blue" points="225.152,-74.4159 231.694,-66.0814 221.383,-68.5177 225.152,-74.4159"/>
</g>
<!-- job_4__long_mult -->
<g id="node3" class="node"><title>job_4__long_mult</title>
<polygon fill="green" stroke="black" points="638,-363 536,-363 532,-359 532,-304 634,-304 638,-308 638,-363"/>
<polyline fill="none" stroke="black" points="634,-359 532,-359 "/>
<polyline fill="none" stroke="black" points="634,-359 634,-304 "/>
<polyline fill="none" stroke="black" points="634,-359 638,-363 "/>
<text text-anchor="start" x="558.5" y="-347.3" font-family="Times,serif" font-style="italic" text-decoration="underline" font-size="14.00">job_id:</text>
<text text-anchor="start" x="620" y="-347.3" font-family="Times,serif" font-style="italic" font-size="14.00">4</text>
<text text-anchor="start" x="541" y="-330.3" font-family="Times,serif" font-style="italic" text-decoration="underline" font-size="14.00">params from:</text>
<text text-anchor="start" x="620" y="-330.3" font-family="Times,serif" font-style="italic" font-size="14.00">1</text>
<text text-anchor="start" x="564" y="-312.3" font-family="Times,serif" font-size="14.00">digit:</text>
<text text-anchor="start" x="618" y="-312.3" font-family="Times,serif" font-size="14.00"> 2</text>
</g>
<!-- job_1__long_mult&#45;&gt;job_4__long_mult -->
<g id="edge2" class="edge"><title>job_1__long_mult&#45;&gt;job_4__long_mult</title>
<path fill="none" stroke="blue" d="M388.462,-463.96C430.032,-446.72 481.315,-422.566 523,-394 532.999,-387.148 542.896,-378.652 551.749,-370.245"/>
<polygon fill="blue" stroke="blue" points="554.21,-372.734 558.919,-363.243 549.32,-367.726 554.21,-372.734"/>
</g>
<!-- job_5__long_mult -->
<g id="node5" class="node"><title>job_5__long_mult</title>
<polygon fill="green" stroke="black" points="514,-363 412,-363 408,-359 408,-304 510,-304 514,-308 514,-363"/>
<polyline fill="none" stroke="black" points="510,-359 408,-359 "/>
<polyline fill="none" stroke="black" points="510,-359 510,-304 "/>
<polyline fill="none" stroke="black" points="510,-359 514,-363 "/>
<text text-anchor="start" x="434.5" y="-347.3" font-family="Times,serif" font-style="italic" text-decoration="underline" font-size="14.00">job_id:</text>
<text text-anchor="start" x="496" y="-347.3" font-family="Times,serif" font-style="italic" font-size="14.00">5</text>
<text text-anchor="start" x="417" y="-330.3" font-family="Times,serif" font-style="italic" text-decoration="underline" font-size="14.00">params from:</text>
<text text-anchor="start" x="496" y="-330.3" font-family="Times,serif" font-style="italic" font-size="14.00">1</text>
<text text-anchor="start" x="440" y="-312.3" font-family="Times,serif" font-size="14.00">digit:</text>
<text text-anchor="start" x="494" y="-312.3" font-family="Times,serif" font-size="14.00"> 3</text>
</g>
<!-- job_1__long_mult&#45;&gt;job_5__long_mult -->
<g id="edge3" class="edge"><title>job_1__long_mult&#45;&gt;job_5__long_mult</title>
<path fill="none" stroke="blue" d="M338.983,-463.887C363.694,-437.683 400.377,-398.785 427.067,-370.483"/>
<polygon fill="blue" stroke="blue" points="429.652,-372.843 433.967,-363.166 424.559,-368.04 429.652,-372.843"/>
</g>
<!-- job_6__long_mult -->
<g id="node6" class="node"><title>job_6__long_mult</title>
<polygon fill="green" stroke="black" points="390,-363 288,-363 284,-359 284,-304 386,-304 390,-308 390,-363"/>
<polyline fill="none" stroke="black" points="386,-359 284,-359 "/>
<polyline fill="none" stroke="black" points="386,-359 386,-304 "/>
<polyline fill="none" stroke="black" points="386,-359 390,-363 "/>
<text text-anchor="start" x="310.5" y="-347.3" font-family="Times,serif" font-style="italic" text-decoration="underline" font-size="14.00">job_id:</text>
<text text-anchor="start" x="372" y="-347.3" font-family="Times,serif" font-style="italic" font-size="14.00">6</text>
<text text-anchor="start" x="293" y="-330.3" font-family="Times,serif" font-style="italic" text-decoration="underline" font-size="14.00">params from:</text>
<text text-anchor="start" x="372" y="-330.3" font-family="Times,serif" font-style="italic" font-size="14.00">1</text>
<text text-anchor="start" x="316" y="-312.3" font-family="Times,serif" font-size="14.00">digit:</text>
<text text-anchor="start" x="370" y="-312.3" font-family="Times,serif" font-size="14.00"> 5</text>
</g>
<!-- job_1__long_mult&#45;&gt;job_6__long_mult -->
<g id="edge4" class="edge"><title>job_1__long_mult&#45;&gt;job_6__long_mult</title>
<path fill="none" stroke="blue" d="M316.527,-463.887C320.532,-438.575 326.412,-401.418 330.843,-373.409"/>
<polygon fill="blue" stroke="blue" points="334.358,-373.59 332.464,-363.166 327.444,-372.496 334.358,-373.59"/>
</g>
<!-- job_7__long_mult -->
<g id="node7" class="node"><title>job_7__long_mult</title>
<polygon fill="green" stroke="black" points="266,-363 164,-363 160,-359 160,-304 262,-304 266,-308 266,-363"/>
<polyline fill="none" stroke="black" points="262,-359 160,-359 "/>
<polyline fill="none" stroke="black" points="262,-359 262,-304 "/>
<polyline fill="none" stroke="black" points="262,-359 266,-363 "/>
<text text-anchor="start" x="186.5" y="-347.3" font-family="Times,serif" font-style="italic" text-decoration="underline" font-size="14.00">job_id:</text>
<text text-anchor="start" x="248" y="-347.3" font-family="Times,serif" font-style="italic" font-size="14.00">7</text>
<text text-anchor="start" x="169" y="-330.3" font-family="Times,serif" font-style="italic" text-decoration="underline" font-size="14.00">params from:</text>
<text text-anchor="start" x="248" y="-330.3" font-family="Times,serif" font-style="italic" font-size="14.00">1</text>
<text text-anchor="start" x="192" y="-312.3" font-family="Times,serif" font-size="14.00">digit:</text>
<text text-anchor="start" x="246" y="-312.3" font-family="Times,serif" font-size="14.00"> 7</text>
</g>
<!-- job_1__long_mult&#45;&gt;job_7__long_mult -->
<g id="edge5" class="edge"><title>job_1__long_mult&#45;&gt;job_7__long_mult</title>
<path fill="none" stroke="blue" d="M294.072,-463.887C277.932,-438.129 254.107,-400.105 236.458,-371.937"/>
<polygon fill="blue" stroke="blue" points="239.237,-369.782 230.962,-363.166 233.306,-373.499 239.237,-369.782"/>
</g>
<!-- job_8__long_mult -->
<g id="node8" class="node"><title>job_8__long_mult</title>
<polygon fill="green" stroke="black" points="142,-363 40,-363 36,-359 36,-304 138,-304 142,-308 142,-363"/>
<polyline fill="none" stroke="black" points="138,-359 36,-359 "/>
<polyline fill="none" stroke="black" points="138,-359 138,-304 "/>
<polyline fill="none" stroke="black" points="138,-359 142,-363 "/>
<text text-anchor="start" x="62.5" y="-347.3" font-family="Times,serif" font-style="italic" text-decoration="underline" font-size="14.00">job_id:</text>
<text text-anchor="start" x="124" y="-347.3" font-family="Times,serif" font-style="italic" font-size="14.00">8</text>
<text text-anchor="start" x="45" y="-330.3" font-family="Times,serif" font-style="italic" text-decoration="underline" font-size="14.00">params from:</text>
<text text-anchor="start" x="124" y="-330.3" font-family="Times,serif" font-style="italic" font-size="14.00">1</text>
<text text-anchor="start" x="68" y="-312.3" font-family="Times,serif" font-size="14.00">digit:</text>
<text text-anchor="start" x="122" y="-312.3" font-family="Times,serif" font-size="14.00"> 8</text>
</g>
<!-- job_1__long_mult&#45;&gt;job_8__long_mult -->
<g id="edge6" class="edge"><title>job_1__long_mult&#45;&gt;job_8__long_mult</title>
<path fill="none" stroke="blue" d="M259.011,-463.941C226.669,-445.585 185.121,-420.314 151,-394 141.68,-386.812 132.217,-378.404 123.583,-370.21"/>
<polygon fill="blue" stroke="blue" points="125.855,-367.538 116.234,-363.101 120.987,-372.57 125.855,-367.538"/>
</g>
<!-- semaphore_1__long_mult -->
<g id="node4" class="node"><title>semaphore_1__long_mult</title>
<polygon fill="grey" stroke="black" points="306.602,-190.562 275,-203 243.398,-190.562 243.427,-170.438 306.573,-170.438 306.602,-190.562"/>
<text text-anchor="start" x="254" y="-181.8" font-family="Times,serif" font-weight="bold" font-style="italic" font-size="14.00" fill="brown">local: 5</text>
</g>
<!-- job_4__long_mult&#45;&gt;semaphore_1__long_mult -->
<g id="edge7" class="edge"><title>job_4__long_mult&#45;&gt;semaphore_1__long_mult</title>
<path fill="none" stroke="red" stroke-dasharray="5,2" d="M537.581,-303.843C532.698,-301.116 527.777,-298.455 523,-296 444.184,-255.489 347.264,-215.11 301.422,-196.549"/>
<polygon fill="red" stroke="red" points="295.672,-199.619 299.418,-190.347 301.273,-191.096 297.527,-200.368 295.672,-199.619"/>
<polyline fill="none" stroke="red" points="296.618,-194.609 301.254,-196.482 "/>
</g>
<!-- semaphore_1__long_mult&#45;&gt;job_3__long_mult -->
<g id="edge12" class="edge"><title>semaphore_1__long_mult:s&#45;&gt;job_3__long_mult:n</title>
<path fill="none" stroke="red" stroke-dasharray="5,2" d="M275,-169C275,-124.804 265.766,-112.907 265.045,-71.2339"/>
<polygon fill="red" stroke="red" points="260.009,-67.0426 270.008,-66.9573 270.025,-68.9572 260.026,-69.0426 260.009,-67.0426"/>
<polyline fill="none" stroke="red" points="265,-66 265.043,-70.9998 "/>
</g>
<!-- job_5__long_mult&#45;&gt;semaphore_1__long_mult -->
<g id="edge8" class="edge"><title>job_5__long_mult&#45;&gt;semaphore_1__long_mult</title>
<path fill="none" stroke="red" stroke-dasharray="5,2" d="M424.696,-303.906C385.397,-272.953 324.257,-224.797 293.704,-200.732"/>
<polygon fill="red" stroke="red" points="287.116,-201.908 293.304,-194.052 294.875,-195.29 288.688,-203.146 287.116,-201.908"/>
<polyline fill="none" stroke="red" points="289.425,-197.361 293.353,-200.455 "/>
</g>
<!-- job_6__long_mult&#45;&gt;semaphore_1__long_mult -->
<g id="edge9" class="edge"><title>job_6__long_mult&#45;&gt;semaphore_1__long_mult</title>
<path fill="none" stroke="red" stroke-dasharray="5,2" d="M324.899,-303.906C312.608,-274.865 293.91,-230.682 283.235,-205.459"/>
<polygon fill="red" stroke="red" points="276.997,-203.547 286.206,-199.65 286.986,-201.492 277.776,-205.389 276.997,-203.547"/>
<polyline fill="none" stroke="red" points="281.212,-200.678 283.16,-205.282 "/>
</g>
<!-- job_7__long_mult&#45;&gt;semaphore_1__long_mult -->
<g id="edge10" class="edge"><title>job_7__long_mult&#45;&gt;semaphore_1__long_mult</title>
<path fill="none" stroke="red" stroke-dasharray="5,2" d="M225.101,-303.906C237.392,-274.865 256.09,-230.682 266.765,-205.459"/>
<polygon fill="red" stroke="red" points="263.794,-199.65 273.003,-203.547 272.224,-205.389 263.014,-201.492 263.794,-199.65"/>
<polyline fill="none" stroke="red" points="268.788,-200.678 266.84,-205.282 "/>
</g>
<!-- job_8__long_mult&#45;&gt;semaphore_1__long_mult -->
<g id="edge11" class="edge"><title>job_8__long_mult&#45;&gt;semaphore_1__long_mult</title>
<path fill="none" stroke="red" stroke-dasharray="5,2" d="M125.304,-303.906C164.603,-272.953 225.743,-224.797 256.296,-200.732"/>
<polygon fill="red" stroke="red" points="256.696,-194.052 262.884,-201.908 261.312,-203.146 255.125,-195.29 256.696,-194.052"/>
<polyline fill="none" stroke="red" points="260.575,-197.361 256.647,-200.455 "/>
</g>
<!-- job_2__long_mult -->
<g id="node9" class="node"><title>job_2__long_mult</title>
<polygon fill="green" stroke="black" points="212,-523 52,-523 48,-519 48,-464 208,-464 212,-468 212,-523"/>
<polyline fill="none" stroke="black" points="208,-519 48,-519 "/>
<polyline fill="none" stroke="black" points="208,-519 208,-464 "/>
<polyline fill="none" stroke="black" points="208,-519 212,-523 "/>
<text text-anchor="start" x="73" y="-507.3" font-family="Times,serif" font-style="italic" text-decoration="underline" font-size="14.00">job_id:</text>
<text text-anchor="start" x="163.5" y="-507.3" font-family="Times,serif" font-style="italic" font-size="14.00">2</text>
<text text-anchor="start" x="57.5" y="-489.3" font-family="Times,serif" font-size="14.00">a_multiplier:</text>
<text text-anchor="start" x="134.5" y="-489.3" font-family="Times,serif" font-size="14.00"> 327358788</text>
<text text-anchor="start" x="57" y="-472.3" font-family="Times,serif" font-size="14.00">b_multiplier:</text>
<text text-anchor="start" x="131" y="-472.3" font-family="Times,serif" font-size="14.00"> 9650156169</text>
</g>
</g>
</svg>
