<?xml version="1.0" encoding="UTF-8" standalone="no"?>
<!DOCTYPE svg PUBLIC "-//W3C//DTD SVG 1.1//EN"
 "http://www.w3.org/Graphics/SVG/1.1/DTD/svg11.dtd">
<!-- Generated by graphviz version 2.38.0 (20140413.2041)
 -->
<!-- Title: test Pages: 1 -->
<svg width="1064pt" height="706pt"
 viewBox="0.00 0.00 1064.14 705.59" xmlns="http://www.w3.org/2000/svg" xmlns:xlink="http://www.w3.org/1999/xlink">
<g id="graph0" class="graph" transform="scale(1 1) rotate(0) translate(0 705.585)">
<title>test</title>
<polygon fill="white" stroke="none" points="0,-0 0,-705.585 1064.14,-705.585 1064.14,-0 0,-0"/>
<g id="clust1" class="cluster"><title>cluster_long_mult</title>
<polygon fill="#ccebc5" stroke="black" stroke-width="2" points="16.137,-8 16.137,-697.585 1056.14,-697.585 1056.14,-8 16.137,-8"/>
<text text-anchor="middle" x="536.137" y="-682.385" font-family="Times,serif" font-size="14.00">long_mult</text>
</g>
<g id="clust2" class="cluster"><title>cluster_add_together</title>
<path fill="grey" stroke="black" d="M232.137,-16C232.137,-16 950.137,-16 950.137,-16 956.137,-16 962.137,-22 962.137,-28 962.137,-28 962.137,-334.585 962.137,-334.585 962.137,-340.585 956.137,-346.585 950.137,-346.585 950.137,-346.585 232.137,-346.585 232.137,-346.585 226.137,-346.585 220.137,-340.585 220.137,-334.585 220.137,-334.585 220.137,-28 220.137,-28 220.137,-22 226.137,-16 232.137,-16"/>
<text text-anchor="middle" x="591.137" y="-331.385" font-family="Times,serif" font-size="14.00">add_together</text>
</g>
<g id="clust3" class="cluster"><title>cluster_part_multiply</title>
<path fill="yellow" stroke="black" d="M48.137,-408.585C48.137,-408.585 1024.14,-408.585 1024.14,-408.585 1030.14,-408.585 1036.14,-414.585 1036.14,-420.585 1036.14,-420.585 1036.14,-494.585 1036.14,-494.585 1036.14,-500.585 1030.14,-506.585 1024.14,-506.585 1024.14,-506.585 48.137,-506.585 48.137,-506.585 42.137,-506.585 36.137,-500.585 36.137,-494.585 36.137,-494.585 36.137,-420.585 36.137,-420.585 36.137,-414.585 42.137,-408.585 48.137,-408.585"/>
<text text-anchor="middle" x="536.137" y="-491.385" font-family="Times,serif" font-size="14.00">part_multiply</text>
</g>
<g id="clust4" class="cluster"><title>cluster_take_b_apart</title>
<path fill="DeepSkyBlue" stroke="black" d="M425.137,-568.585C425.137,-568.585 763.137,-568.585 763.137,-568.585 769.137,-568.585 775.137,-574.585 775.137,-580.585 775.137,-580.585 775.137,-654.585 775.137,-654.585 775.137,-660.585 769.137,-666.585 763.137,-666.585 763.137,-666.585 425.137,-666.585 425.137,-666.585 419.137,-666.585 413.137,-660.585 413.137,-654.585 413.137,-654.585 413.137,-580.585 413.137,-580.585 413.137,-574.585 419.137,-568.585 425.137,-568.585"/>
<text text-anchor="middle" x="594.137" y="-651.385" font-family="Times,serif" font-size="14.00">take_b_apart</text>
</g>
<!-- job_1__long_mult -->
<g id="node1" class="node"><title>job_1__long_mult</title>
<polygon fill="DeepSkyBlue" stroke="black" points="585.137,-635.585 425.137,-635.585 421.137,-631.585 421.137,-576.585 581.137,-576.585 585.137,-580.585 585.137,-635.585"/>
<polyline fill="none" stroke="black" points="581.137,-631.585 421.137,-631.585 "/>
<polyline fill="none" stroke="black" points="581.137,-631.585 581.137,-576.585 "/>
<polyline fill="none" stroke="black" points="581.137,-631.585 585.137,-635.585 "/>
<text text-anchor="start" x="446.137" y="-619.885" font-family="Times,serif" font-style="italic" text-decoration="underline" font-size="14.00">job_id:</text>
<text text-anchor="start" x="536.637" y="-619.885" font-family="Times,serif" font-style="italic" font-size="14.00">1</text>
<text text-anchor="start" x="430.637" y="-601.885" font-family="Times,serif" font-size="14.00">a_multiplier:</text>
<text text-anchor="start" x="504.137" y="-601.885" font-family="Times,serif" font-size="14.00"> 9650156169</text>
<text text-anchor="start" x="430.137" y="-584.885" font-family="Times,serif" font-size="14.00">b_multiplier:</text>
<text text-anchor="start" x="507.637" y="-584.885" font-family="Times,serif" font-size="14.00"> 327358788</text>
</g>
<!-- job_3__long_mult -->
<g id="node2" class="node"><title>job_3__long_mult</title>
<polygon fill="grey" stroke="black" points="395.137,-66 297.137,-66 293.137,-62 293.137,-24 391.137,-24 395.137,-28 395.137,-66"/>
<polyline fill="none" stroke="black" points="391.137,-62 293.137,-62 "/>
<polyline fill="none" stroke="black" points="391.137,-62 391.137,-24 "/>
<polyline fill="none" stroke="black" points="391.137,-62 395.137,-66 "/>
<text text-anchor="start" x="319.637" y="-50.8" font-family="Times,serif" font-style="italic" text-decoration="underline" font-size="14.00">job_id:</text>
<text text-anchor="start" x="379.137" y="-50.8" font-family="Times,serif" font-style="italic" font-size="14.00">3</text>
<text text-anchor="start" x="302.137" y="-33.8" font-family="Times,serif" font-style="italic" text-decoration="underline" font-size="14.00">params from:</text>
<text text-anchor="start" x="379.137" y="-33.8" font-family="Times,serif" font-style="italic" font-size="14.00">1</text>
</g>
<!-- job_1__long_mult&#45;&gt;job_3__long_mult -->
<g id="edge4" class="edge"><title>job_1__long_mult&#45;&gt;job_3__long_mult</title>
<path fill="none" stroke="blue" d="M420.843,-600.02C299.108,-590.617 80.2073,-565.749 32.137,-506.585 -94.761,-350.404 191.582,-143.349 302.556,-71.6912"/>
<polygon fill="blue" stroke="blue" points="304.641,-74.512 311.174,-66.1711 300.866,-68.6174 304.641,-74.512"/>
</g>
<!-- job_4__long_mult -->
<g id="node3" class="node"><title>job_4__long_mult</title>
<polygon fill="DeepSkyBlue" stroke="black" points="646.137,-475.585 544.137,-475.585 540.137,-471.585 540.137,-416.585 642.137,-416.585 646.137,-420.585 646.137,-475.585"/>
<polyline fill="none" stroke="black" points="642.137,-471.585 540.137,-471.585 "/>
<polyline fill="none" stroke="black" points="642.137,-471.585 642.137,-416.585 "/>
<polyline fill="none" stroke="black" points="642.137,-471.585 646.137,-475.585 "/>
<text text-anchor="start" x="566.637" y="-459.885" font-family="Times,serif" font-style="italic" text-decoration="underline" font-size="14.00">job_id:</text>
<text text-anchor="start" x="628.137" y="-459.885" font-family="Times,serif" font-style="italic" font-size="14.00">4</text>
<text text-anchor="start" x="549.137" y="-442.885" font-family="Times,serif" font-style="italic" text-decoration="underline" font-size="14.00">params from:</text>
<text text-anchor="start" x="628.137" y="-442.885" font-family="Times,serif" font-style="italic" font-size="14.00">1</text>
<text text-anchor="start" x="572.137" y="-424.885" font-family="Times,serif" font-size="14.00">digit:</text>
<text text-anchor="start" x="626.137" y="-424.885" font-family="Times,serif" font-size="14.00"> 2</text>
</g>
<!-- job_1__long_mult&#45;&gt;job_4__long_mult -->
<g id="edge5" class="edge"><title>job_1__long_mult&#45;&gt;job_4__long_mult</title>
<path fill="none" stroke="blue" d="M519.435,-576.473C534.108,-550.715 555.767,-512.691 571.812,-484.523"/>
<polygon fill="blue" stroke="blue" points="574.9,-486.173 576.808,-475.752 568.817,-482.709 574.9,-486.173"/>
</g>
<!-- job_5__long_mult -->
<g id="node5" class="node"><title>job_5__long_mult</title>
<polygon fill="green" stroke="black" points="522.137,-475.585 420.137,-475.585 416.137,-471.585 416.137,-416.585 518.137,-416.585 522.137,-420.585 522.137,-475.585"/>
<polyline fill="none" stroke="black" points="518.137,-471.585 416.137,-471.585 "/>
<polyline fill="none" stroke="black" points="518.137,-471.585 518.137,-416.585 "/>
<polyline fill="none" stroke="black" points="518.137,-471.585 522.137,-475.585 "/>
<text text-anchor="start" x="442.637" y="-459.885" font-family="Times,serif" font-style="italic" text-decoration="underline" font-size="14.00">job_id:</text>
<text text-anchor="start" x="504.137" y="-459.885" font-family="Times,serif" font-style="italic" font-size="14.00">5</text>
<text text-anchor="start" x="425.137" y="-442.885" font-family="Times,serif" font-style="italic" text-decoration="underline" font-size="14.00">params from:</text>
<text text-anchor="start" x="504.137" y="-442.885" font-family="Times,serif" font-style="italic" font-size="14.00">1</text>
<text text-anchor="start" x="448.137" y="-424.885" font-family="Times,serif" font-size="14.00">digit:</text>
<text text-anchor="start" x="502.137" y="-424.885" font-family="Times,serif" font-size="14.00"> 3</text>
</g>
<!-- job_1__long_mult&#45;&gt;job_5__long_mult -->
<g id="edge6" class="edge"><title>job_1__long_mult&#45;&gt;job_5__long_mult</title>
<path fill="none" stroke="blue" d="M496.98,-576.473C491.509,-551.049 483.467,-513.676 477.43,-485.625"/>
<polygon fill="blue" stroke="blue" points="480.831,-484.792 475.306,-475.752 473.988,-486.264 480.831,-484.792"/>
</g>
<!-- job_6__long_mult -->
<g id="node6" class="node"><title>job_6__long_mult</title>
<polygon fill="green" stroke="black" points="398.137,-475.585 296.137,-475.585 292.137,-471.585 292.137,-416.585 394.137,-416.585 398.137,-420.585 398.137,-475.585"/>
<polyline fill="none" stroke="black" points="394.137,-471.585 292.137,-471.585 "/>
<polyline fill="none" stroke="black" points="394.137,-471.585 394.137,-416.585 "/>
<polyline fill="none" stroke="black" points="394.137,-471.585 398.137,-475.585 "/>
<text text-anchor="start" x="318.637" y="-459.885" font-family="Times,serif" font-style="italic" text-decoration="underline" font-size="14.00">job_id:</text>
<text text-anchor="start" x="380.137" y="-459.885" font-family="Times,serif" font-style="italic" font-size="14.00">6</text>
<text text-anchor="start" x="301.137" y="-442.885" font-family="Times,serif" font-style="italic" text-decoration="underline" font-size="14.00">params from:</text>
<text text-anchor="start" x="380.137" y="-442.885" font-family="Times,serif" font-style="italic" font-size="14.00">1</text>
<text text-anchor="start" x="324.137" y="-424.885" font-family="Times,serif" font-size="14.00">digit:</text>
<text text-anchor="start" x="378.137" y="-424.885" font-family="Times,serif" font-size="14.00"> 5</text>
</g>
<!-- job_1__long_mult&#45;&gt;job_6__long_mult -->
<g id="edge7" class="edge"><title>job_1__long_mult&#45;&gt;job_6__long_mult</title>
<path fill="none" stroke="blue" d="M474.524,-576.473C448.32,-550.269 409.422,-511.37 381.12,-483.068"/>
<polygon fill="blue" stroke="blue" points="383.349,-480.348 373.803,-475.752 378.4,-485.298 383.349,-480.348"/>
</g>
<!-- job_7__long_mult -->
<g id="node7" class="node"><title>job_7__long_mult</title>
<polygon fill="green" stroke="black" points="274.137,-475.585 172.137,-475.585 168.137,-471.585 168.137,-416.585 270.137,-416.585 274.137,-420.585 274.137,-475.585"/>
<polyline fill="none" stroke="black" points="270.137,-471.585 168.137,-471.585 "/>
<polyline fill="none" stroke="black" points="270.137,-471.585 270.137,-416.585 "/>
<polyline fill="none" stroke="black" points="270.137,-471.585 274.137,-475.585 "/>
<text text-anchor="start" x="194.637" y="-459.885" font-family="Times,serif" font-style="italic" text-decoration="underline" font-size="14.00">job_id:</text>
<text text-anchor="start" x="256.137" y="-459.885" font-family="Times,serif" font-style="italic" font-size="14.00">7</text>
<text text-anchor="start" x="177.137" y="-442.885" font-family="Times,serif" font-style="italic" text-decoration="underline" font-size="14.00">params from:</text>
<text text-anchor="start" x="256.137" y="-442.885" font-family="Times,serif" font-style="italic" font-size="14.00">1</text>
<text text-anchor="start" x="200.137" y="-424.885" font-family="Times,serif" font-size="14.00">digit:</text>
<text text-anchor="start" x="254.137" y="-424.885" font-family="Times,serif" font-size="14.00"> 7</text>
</g>
<!-- job_1__long_mult&#45;&gt;job_7__long_mult -->
<g id="edge8" class="edge"><title>job_1__long_mult&#45;&gt;job_7__long_mult</title>
<path fill="none" stroke="blue" d="M422.046,-576.551C378.92,-559.5 326.085,-535.522 283.137,-506.585 272.988,-499.747 262.977,-491.182 254.058,-482.699"/>
<polygon fill="blue" stroke="blue" points="256.436,-480.129 246.843,-475.632 251.538,-485.13 256.436,-480.129"/>
</g>
<!-- job_8__long_mult -->
<g id="node8" class="node"><title>job_8__long_mult</title>
<polygon fill="green" stroke="black" points="150.137,-475.585 48.137,-475.585 44.137,-471.585 44.137,-416.585 146.137,-416.585 150.137,-420.585 150.137,-475.585"/>
<polyline fill="none" stroke="black" points="146.137,-471.585 44.137,-471.585 "/>
<polyline fill="none" stroke="black" points="146.137,-471.585 146.137,-416.585 "/>
<polyline fill="none" stroke="black" points="146.137,-471.585 150.137,-475.585 "/>
<text text-anchor="start" x="70.637" y="-459.885" font-family="Times,serif" font-style="italic" text-decoration="underline" font-size="14.00">job_id:</text>
<text text-anchor="start" x="132.137" y="-459.885" font-family="Times,serif" font-style="italic" font-size="14.00">8</text>
<text text-anchor="start" x="53.137" y="-442.885" font-family="Times,serif" font-style="italic" text-decoration="underline" font-size="14.00">params from:</text>
<text text-anchor="start" x="132.137" y="-442.885" font-family="Times,serif" font-style="italic" font-size="14.00">1</text>
<text text-anchor="start" x="76.137" y="-424.885" font-family="Times,serif" font-size="14.00">digit:</text>
<text text-anchor="start" x="130.137" y="-424.885" font-family="Times,serif" font-size="14.00"> 8</text>
</g>
<!-- job_1__long_mult&#45;&gt;job_8__long_mult -->
<g id="edge9" class="edge"><title>job_1__long_mult&#45;&gt;job_8__long_mult</title>
<path fill="none" stroke="blue" d="M420.902,-593.09C348.315,-579.895 241.533,-553.965 159.137,-506.585 148.225,-500.311 137.771,-491.709 128.658,-482.995"/>
<polygon fill="blue" stroke="blue" points="130.891,-480.28 121.338,-475.698 125.949,-485.237 130.891,-480.28"/>
</g>
<!-- semaphore_1__long_mult -->
<g id="node4" class="node"><title>semaphore_1__long_mult</title>
<polygon fill="grey" stroke="black" points="588.238,-259.639 408.137,-300.661 228.036,-259.639 228.204,-193.263 588.07,-193.263 588.238,-259.639"/>
<text text-anchor="start" x="386.637" y="-264.093" font-family="Times,serif" font-weight="bold" font-style="italic" font-size="14.00" fill="brown">local: 4</text>
<text text-anchor="start" x="406.137" y="-246.093" font-family="Times,serif" font-size="14.00"> </text>
<text text-anchor="start" x="329.137" y="-230.093" font-family="Times,serif" font-weight="bold" text-decoration="underline" font-size="14.00">partial_product</text>
<text text-anchor="start" x="306.137" y="-212.093" font-family="Times,serif" font-size="14.00">{2}</text>
<text text-anchor="start" x="362.137" y="-213.093" font-family="Times,serif" font-size="14.00"> </text>
<text text-anchor="start" x="366.137" y="-213.093" font-family="Times,serif" font-weight="bold" font-size="14.00">&#45;&#45;&gt;</text>
<text text-anchor="start" x="384.137" y="-213.093" font-family="Times,serif" font-size="14.00"> </text>
<text text-anchor="start" x="423.137" y="-212.093" font-family="Times,serif" font-size="14.00">&quot;19300312338&quot;</text>
</g>
<!-- job_4__long_mult&#45;&gt;semaphore_1__long_mult -->
<g id="edge14" class="edge"><title>job_4__long_mult&#45;&gt;semaphore_1__long_mult</title>
<path fill="none" stroke="darkgreen" stroke-dasharray="5,2" d="M567.023,-416.46C537.243,-383.816 488.059,-329.901 452.29,-290.692"/>
</g>
<!-- semaphore_1__long_mult&#45;&gt;job_3__long_mult -->
<g id="edge19" class="edge"><title>semaphore_1__long_mult:s&#45;&gt;job_3__long_mult:n</title>
<path fill="none" stroke="red" stroke-dasharray="5,2" d="M408.137,-192.293C408.137,-131.087 347.589,-128.997 344.278,-71.0243"/>
<polygon fill="red" stroke="red" points="339.167,-67.1399 349.163,-66.8593 349.219,-68.8585 339.223,-69.1391 339.167,-67.1399"/>
<polyline fill="none" stroke="red" points="344.137,-66 344.277,-70.998 "/>
</g>
<!-- job_5__long_mult&#45;&gt;semaphore_1__long_mult -->
<g id="edge15" class="edge"><title>job_5__long_mult&#45;&gt;semaphore_1__long_mult</title>
<path fill="none" stroke="red" stroke-dasharray="5,2" d="M460.527,-416.46C451.632,-386.89 437.488,-339.868 426.137,-302.132"/>
<polygon fill="red" stroke="red" points="420.125,-299.506 429.701,-296.625 430.278,-298.54 420.701,-301.421 420.125,-299.506"/>
<polyline fill="none" stroke="red" points="424.625,-297.108 426.066,-301.896 "/>
</g>
<!-- job_6__long_mult&#45;&gt;semaphore_1__long_mult -->
<g id="edge16" class="edge"><title>job_6__long_mult&#45;&gt;semaphore_1__long_mult</title>
<path fill="none" stroke="red" stroke-dasharray="5,2" d="M354.03,-416.46C363.216,-386.89 377.824,-339.868 389.547,-302.132"/>
<polygon fill="red" stroke="red" points="386.037,-296.579 395.586,-299.546 394.993,-301.456 385.443,-298.489 386.037,-296.579"/>
<polyline fill="none" stroke="red" points="391.108,-297.108 389.625,-301.883 "/>
</g>
<!-- job_7__long_mult&#45;&gt;semaphore_1__long_mult -->
<g id="edge17" class="edge"><title>job_7__long_mult&#45;&gt;semaphore_1__long_mult</title>
<path fill="none" stroke="red" stroke-dasharray="5,2" d="M247.533,-416.46C276.695,-384.836 324.263,-333.25 360.078,-294.41"/>
<polygon fill="red" stroke="red" points="359.153,-288.038 366.504,-294.817 365.149,-296.287 357.797,-289.508 359.153,-288.038"/>
<polyline fill="none" stroke="red" points="363.506,-290.692 360.117,-294.368 "/>
</g>
<!-- job_8__long_mult&#45;&gt;semaphore_1__long_mult -->
<g id="edge18" class="edge"><title>job_8__long_mult&#45;&gt;semaphore_1__long_mult</title>
<path fill="none" stroke="red" stroke-dasharray="5,2" d="M141.036,-416.46C192.052,-383.195 276.939,-327.842 337.318,-288.471"/>
<polygon fill="red" stroke="red" points="338.054,-282.023 343.516,-290.399 341.841,-291.492 336.378,-283.115 338.054,-282.023"/>
<polyline fill="none" stroke="red" points="341.622,-285.665 337.434,-288.396 "/>
</g>
<!-- job_2__long_mult -->
<g id="node9" class="node"><title>job_2__long_mult</title>
<polygon fill="DeepSkyBlue" stroke="black" points="767.137,-635.585 607.137,-635.585 603.137,-631.585 603.137,-576.585 763.137,-576.585 767.137,-580.585 767.137,-635.585"/>
<polyline fill="none" stroke="black" points="763.137,-631.585 603.137,-631.585 "/>
<polyline fill="none" stroke="black" points="763.137,-631.585 763.137,-576.585 "/>
<polyline fill="none" stroke="black" points="763.137,-631.585 767.137,-635.585 "/>
<text text-anchor="start" x="628.137" y="-619.885" font-family="Times,serif" font-style="italic" text-decoration="underline" font-size="14.00">job_id:</text>
<text text-anchor="start" x="718.637" y="-619.885" font-family="Times,serif" font-style="italic" font-size="14.00">2</text>
<text text-anchor="start" x="612.637" y="-601.885" font-family="Times,serif" font-size="14.00">a_multiplier:</text>
<text text-anchor="start" x="689.637" y="-601.885" font-family="Times,serif" font-size="14.00"> 327358788</text>
<text text-anchor="start" x="612.137" y="-584.885" font-family="Times,serif" font-size="14.00">b_multiplier:</text>
<text text-anchor="start" x="686.137" y="-584.885" font-family="Times,serif" font-size="14.00"> 9650156169</text>
</g>
<!-- job_9__long_mult -->
<g id="node10" class="node"><title>job_9__long_mult</title>
<polygon fill="grey" stroke="black" points="892.137,-66 794.137,-66 790.137,-62 790.137,-24 888.137,-24 892.137,-28 892.137,-66"/>
<polyline fill="none" stroke="black" points="888.137,-62 790.137,-62 "/>
<polyline fill="none" stroke="black" points="888.137,-62 888.137,-24 "/>
<polyline fill="none" stroke="black" points="888.137,-62 892.137,-66 "/>
<text text-anchor="start" x="816.637" y="-50.8" font-family="Times,serif" font-style="italic" text-decoration="underline" font-size="14.00">job_id:</text>
<text text-anchor="start" x="876.137" y="-50.8" font-family="Times,serif" font-style="italic" font-size="14.00">9</text>
<text text-anchor="start" x="799.137" y="-33.8" font-family="Times,serif" font-style="italic" text-decoration="underline" font-size="14.00">params from:</text>
<text text-anchor="start" x="876.137" y="-33.8" font-family="Times,serif" font-style="italic" font-size="14.00">2</text>
</g>
<!-- job_2__long_mult&#45;&gt;job_9__long_mult -->
<g id="edge13" class="edge"><title>job_2__long_mult&#45;&gt;job_9__long_mult</title>
<path fill="none" stroke="blue" d="M767.269,-593.858C861.482,-579.099 1007.23,-549.863 1040.14,-506.585 1099.82,-428.093 1001.65,-229.957 963.137,-167 940.211,-129.525 903.289,-95.1244 876.061,-72.662"/>
<polygon fill="blue" stroke="blue" points="877.92,-69.6635 867.948,-66.084 873.512,-75.1007 877.92,-69.6635"/>
</g>
<!-- job_10__long_mult -->
<g id="node11" class="node"><title>job_10__long_mult</title>
<polygon fill="DeepSkyBlue" stroke="black" points="773.637,-475.585 668.637,-475.585 664.637,-471.585 664.637,-416.585 769.637,-416.585 773.637,-420.585 773.637,-475.585"/>
<polyline fill="none" stroke="black" points="769.637,-471.585 664.637,-471.585 "/>
<polyline fill="none" stroke="black" points="769.637,-471.585 769.637,-416.585 "/>
<polyline fill="none" stroke="black" points="769.637,-471.585 773.637,-475.585 "/>
<text text-anchor="start" x="691.637" y="-459.885" font-family="Times,serif" font-style="italic" text-decoration="underline" font-size="14.00">job_id:</text>
<text text-anchor="start" x="751.137" y="-459.885" font-family="Times,serif" font-style="italic" font-size="14.00">10</text>
<text text-anchor="start" x="674.137" y="-442.885" font-family="Times,serif" font-style="italic" text-decoration="underline" font-size="14.00">params from:</text>
<text text-anchor="start" x="754.637" y="-442.885" font-family="Times,serif" font-style="italic" font-size="14.00">2</text>
<text text-anchor="start" x="697.137" y="-424.885" font-family="Times,serif" font-size="14.00">digit:</text>
<text text-anchor="start" x="752.637" y="-424.885" font-family="Times,serif" font-size="14.00"> 5</text>
</g>
<!-- job_2__long_mult&#45;&gt;job_10__long_mult -->
<g id="edge10" class="edge"><title>job_2__long_mult&#45;&gt;job_10__long_mult</title>
<path fill="none" stroke="blue" d="M691.294,-576.473C696.765,-551.049 704.807,-513.676 710.844,-485.625"/>
<polygon fill="blue" stroke="blue" points="714.286,-486.264 712.968,-475.752 707.443,-484.792 714.286,-486.264"/>
</g>
<!-- job_11__long_mult -->
<g id="node13" class="node"><title>job_11__long_mult</title>
<polygon fill="DeepSkyBlue" stroke="black" points="1027.64,-475.585 922.637,-475.585 918.637,-471.585 918.637,-416.585 1023.64,-416.585 1027.64,-420.585 1027.64,-475.585"/>
<polyline fill="none" stroke="black" points="1023.64,-471.585 918.637,-471.585 "/>
<polyline fill="none" stroke="black" points="1023.64,-471.585 1023.64,-416.585 "/>
<polyline fill="none" stroke="black" points="1023.64,-471.585 1027.64,-475.585 "/>
<text text-anchor="start" x="945.637" y="-459.885" font-family="Times,serif" font-style="italic" text-decoration="underline" font-size="14.00">job_id:</text>
<text text-anchor="start" x="1005.14" y="-459.885" font-family="Times,serif" font-style="italic" font-size="14.00">11</text>
<text text-anchor="start" x="928.137" y="-442.885" font-family="Times,serif" font-style="italic" text-decoration="underline" font-size="14.00">params from:</text>
<text text-anchor="start" x="1008.64" y="-442.885" font-family="Times,serif" font-style="italic" font-size="14.00">2</text>
<text text-anchor="start" x="951.137" y="-424.885" font-family="Times,serif" font-size="14.00">digit:</text>
<text text-anchor="start" x="1006.64" y="-424.885" font-family="Times,serif" font-size="14.00"> 6</text>
</g>
<!-- job_2__long_mult&#45;&gt;job_11__long_mult -->
<g id="edge11" class="edge"><title>job_2__long_mult&#45;&gt;job_11__long_mult</title>
<path fill="none" stroke="blue" d="M767.208,-577.012C811.442,-559.988 865.869,-535.89 910.137,-506.585 920.428,-499.773 930.592,-491.218 939.655,-482.735"/>
<polygon fill="blue" stroke="blue" points="942.216,-485.127 946.987,-475.667 937.358,-480.087 942.216,-485.127"/>
</g>
<!-- job_12__long_mult -->
<g id="node14" class="node"><title>job_12__long_mult</title>
<polygon fill="green" stroke="black" points="900.637,-475.585 795.637,-475.585 791.637,-471.585 791.637,-416.585 896.637,-416.585 900.637,-420.585 900.637,-475.585"/>
<polyline fill="none" stroke="black" points="896.637,-471.585 791.637,-471.585 "/>
<polyline fill="none" stroke="black" points="896.637,-471.585 896.637,-416.585 "/>
<polyline fill="none" stroke="black" points="896.637,-471.585 900.637,-475.585 "/>
<text text-anchor="start" x="818.637" y="-459.885" font-family="Times,serif" font-style="italic" text-decoration="underline" font-size="14.00">job_id:</text>
<text text-anchor="start" x="878.137" y="-459.885" font-family="Times,serif" font-style="italic" font-size="14.00">12</text>
<text text-anchor="start" x="801.137" y="-442.885" font-family="Times,serif" font-style="italic" text-decoration="underline" font-size="14.00">params from:</text>
<text text-anchor="start" x="881.637" y="-442.885" font-family="Times,serif" font-style="italic" font-size="14.00">2</text>
<text text-anchor="start" x="824.137" y="-424.885" font-family="Times,serif" font-size="14.00">digit:</text>
<text text-anchor="start" x="879.637" y="-424.885" font-family="Times,serif" font-size="14.00"> 9</text>
</g>
<!-- job_2__long_mult&#45;&gt;job_12__long_mult -->
<g id="edge12" class="edge"><title>job_2__long_mult&#45;&gt;job_12__long_mult</title>
<path fill="none" stroke="blue" d="M714.293,-576.473C740.995,-550.269 780.632,-511.37 809.471,-483.068"/>
<polygon fill="blue" stroke="blue" points="812.241,-485.254 816.926,-475.752 807.338,-480.258 812.241,-485.254"/>
</g>
<!-- semaphore_2__long_mult -->
<g id="node12" class="node"><title>semaphore_2__long_mult</title>
<polygon fill="grey" stroke="black" points="954.002,-264.187 780.137,-315.379 606.272,-264.187 606.435,-181.356 953.84,-181.356 954.002,-264.187"/>
<text text-anchor="start" x="759.137" y="-272.093" font-family="Times,serif" font-weight="bold" font-style="italic" font-size="14.00" fill="brown">local: 1</text>
<text text-anchor="start" x="778.637" y="-254.093" font-family="Times,serif" font-size="14.00"> </text>
<text text-anchor="start" x="705.137" y="-238.093" font-family="Times,serif" font-weight="bold" text-decoration="underline" font-size="14.00">partial_product</text>
<text text-anchor="start" x="682.137" y="-220.093" font-family="Times,serif" font-size="14.00">{5}</text>
<text text-anchor="start" x="738.137" y="-221.093" font-family="Times,serif" font-size="14.00"> </text>
<text text-anchor="start" x="742.137" y="-221.093" font-family="Times,serif" font-weight="bold" font-size="14.00">&#45;&#45;&gt;</text>
<text text-anchor="start" x="760.137" y="-221.093" font-family="Times,serif" font-size="14.00"> </text>
<text text-anchor="start" x="799.137" y="-220.093" font-family="Times,serif" font-size="14.00">&quot;1636793940&quot;</text>
<text text-anchor="start" x="682.137" y="-203.093" font-family="Times,serif" font-size="14.00">{6}</text>
<text text-anchor="start" x="738.137" y="-204.093" font-family="Times,serif" font-size="14.00"> </text>
<text text-anchor="start" x="742.137" y="-204.093" font-family="Times,serif" font-weight="bold" font-size="14.00">&#45;&#45;&gt;</text>
<text text-anchor="start" x="760.137" y="-204.093" font-family="Times,serif" font-size="14.00"> </text>
<text text-anchor="start" x="799.137" y="-203.093" font-family="Times,serif" font-size="14.00">&quot;1964152728&quot;</text>
</g>
<!-- job_10__long_mult&#45;&gt;semaphore_2__long_mult -->
<g id="edge1" class="edge"><title>job_10__long_mult&#45;&gt;semaphore_2__long_mult</title>
<path fill="none" stroke="darkgreen" stroke-dasharray="5,2" d="M727.747,-416.46C736.056,-388.838 748.946,-345.987 759.86,-309.702"/>
</g>
<!-- semaphore_2__long_mult&#45;&gt;job_9__long_mult -->
<g id="edge20" class="edge"><title>semaphore_2__long_mult:s&#45;&gt;job_9__long_mult:n</title>
<path fill="none" stroke="red" stroke-dasharray="5,2" d="M780.137,-180.293C780.137,-124.513 837.384,-123.582 840.962,-71.2304"/>
<polygon fill="red" stroke="red" points="836.106,-66.8322 846.101,-67.1667 846.034,-69.1656 836.039,-68.831 836.106,-66.8322"/>
<polyline fill="none" stroke="red" points="841.137,-66 840.97,-70.9972 "/>
</g>
<!-- job_11__long_mult&#45;&gt;semaphore_2__long_mult -->
<g id="edge2" class="edge"><title>job_11__long_mult&#45;&gt;semaphore_2__long_mult</title>
<path fill="none" stroke="darkgreen" stroke-dasharray="5,2" d="M945.894,-416.46C917.112,-386.218 870.956,-337.72 834.65,-299.572"/>
</g>
<!-- job_12__long_mult&#45;&gt;semaphore_2__long_mult -->
<g id="edge3" class="edge"><title>job_12__long_mult&#45;&gt;semaphore_2__long_mult</title>
<path fill="none" stroke="red" stroke-dasharray="5,2" d="M836.821,-416.46C828.218,-390.029 815.078,-349.653 803.614,-314.429"/>
<polygon fill="red" stroke="red" points="797.491,-311.77 807,-308.676 807.619,-310.577 798.11,-313.672 797.491,-311.77"/>
<polyline fill="none" stroke="red" points="801.936,-309.272 803.483,-314.027 "/>
</g>
</g>
</svg>
