<?xml version="1.0" encoding="UTF-8" standalone="no"?>
<!DOCTYPE svg PUBLIC "-//W3C//DTD SVG 1.1//EN"
 "http://www.w3.org/Graphics/SVG/1.1/DTD/svg11.dtd">
<!-- Generated by graphviz version 2.38.0 (20140413.2041)
 -->
<!-- Title: test Pages: 1 -->
<svg width="537pt" height="688pt"
 viewBox="0.00 0.00 537.00 688.20" xmlns="http://www.w3.org/2000/svg" xmlns:xlink="http://www.w3.org/1999/xlink">
<g id="graph0" class="graph" transform="scale(1 1) rotate(0) translate(72 616.197)">
<title>test</title>
<polygon fill="white" stroke="none" points="-72,72 -72,-616.197 465,-616.197 465,72 -72,72"/>
<g id="clust1" class="cluster"><title>cluster_long_mult</title>
<polygon fill="#ccebc5" stroke="black" stroke-width="2" points="8,-8 8,-536.197 377,-536.197 377,-8 8,-8"/>
<text text-anchor="middle" x="192.5" y="-520.997" font-family="Times,serif" font-size="14.00">long_mult</text>
</g>
<g id="clust2" class="cluster"><title>cluster_cl_dfr_1_mp</title>
<polygon fill="#deebf7" stroke="#deebf7" points="134,-107 134,-297 369,-297 369,-107 134,-107"/>
</g>
<!-- analysis_take_b_apart -->
<g id="node1" class="node"><title>analysis_take_b_apart</title>
<path fill="green" stroke="black" d="M62,-445.697C62,-445.697 154,-445.697 154,-445.697 160,-445.697 166,-451.697 166,-457.697 166,-457.697 166,-492.697 166,-492.697 166,-498.697 160,-504.697 154,-504.697 154,-504.697 62,-504.697 62,-504.697 56,-504.697 50,-498.697 50,-492.697 50,-492.697 50,-457.697 50,-457.697 50,-451.697 56,-445.697 62,-445.697"/>
<text text-anchor="start" x="63" y="-487.997" font-family="Times,serif" font-size="14.00">take_b_apart (1)</text>
<text text-anchor="start" x="106" y="-470.997" font-family="Times,serif" font-size="14.00"> </text>
<polygon fill="green" stroke="none" points="58,-449.197 58,-466.197 158,-466.197 158,-449.197 58,-449.197"/>
<text text-anchor="start" x="102" y="-453.997" font-family="Times,serif" font-size="14.00">2r</text>
</g>
<!-- dfr_1_mp -->
<g id="node2" class="node"><title>dfr_1_mp</title>
<ellipse fill="black" stroke="black" cx="71" cy="-259" rx="0.36" ry="0.36"/>
</g>
<!-- analysis_take_b_apart&#45;&gt;dfr_1_mp -->
<g id="edge3" class="edge"><title>analysis_take_b_apart&#45;&gt;dfr_1_mp:n</title>
<path fill="none" stroke="black" d="M91.6188,-445.569C84.0565,-430.746 75.9025,-412.052 72,-394.197 59.3593,-336.362 71,-320.2 71,-261"/>
<text text-anchor="middle" x="80" y="-371.398" font-family="Helvetica,sans-Serif" font-size="14.00">#1</text>
</g>
<!-- dfr_2_mp -->
<g id="node5" class="node"><title>dfr_2_mp</title>
<polygon fill="blueviolet" stroke="black" points="207.329,-355.954 213.505,-356.059 219.617,-356.216 225.641,-356.425 231.552,-356.685 237.325,-356.996 242.939,-357.356 248.371,-357.765 253.601,-358.222 258.609,-358.724 263.378,-359.272 267.891,-359.863 272.132,-360.496 276.088,-361.168 279.748,-361.879 283.102,-362.626 286.14,-363.408 288.858,-364.221 291.249,-365.064 293.311,-365.935 295.043,-366.831 296.444,-367.749 297.518,-368.688 298.266,-369.644 298.695,-370.615 298.811,-371.599 298.62,-372.592 298.132,-373.592 297.357,-374.596 296.306,-375.601 294.989,-376.605 293.419,-377.605 291.609,-378.598 289.572,-379.581 287.322,-380.553 284.872,-381.509 282.235,-382.447 279.426,-383.366 276.458,-384.262 273.344,-385.132 270.097,-385.976 266.73,-386.789 263.254,-387.57 259.681,-388.318 256.021,-389.028 252.284,-389.701 248.48,-390.334 244.618,-390.925 240.705,-391.472 236.748,-391.975 232.754,-392.432 228.73,-392.841 224.679,-393.201 220.607,-393.512 216.518,-393.772 212.416,-393.981 208.304,-394.138 204.185,-394.243 200.062,-394.296 195.938,-394.296 191.815,-394.243 187.696,-394.138 183.584,-393.981 179.482,-393.772 175.393,-393.512 171.321,-393.201 167.27,-392.841 163.246,-392.432 159.252,-391.975 155.295,-391.472 151.382,-390.925 147.52,-390.334 143.716,-389.701 139.979,-389.028 136.319,-388.318 132.746,-387.57 129.27,-386.789 125.903,-385.976 122.656,-385.132 119.542,-384.262 116.574,-383.366 113.765,-382.447 111.128,-381.509 108.678,-380.553 106.428,-379.581 104.391,-378.598 102.581,-377.605 101.011,-376.605 99.6944,-375.601 98.6427,-374.596 97.8676,-373.592 97.38,-372.592 97.1895,-371.599 97.3048,-370.615 97.7337,-369.644 98.4823,-368.688 99.5557,-367.749 100.957,-366.831 102.689,-365.935 104.751,-365.064 107.142,-364.221 109.86,-363.408 112.898,-362.626 116.252,-361.879 119.912,-361.168 123.868,-360.496 128.109,-359.863 132.622,-359.272 137.391,-358.724 142.399,-358.222 147.629,-357.765 153.061,-357.356 158.675,-356.996 164.448,-356.685 170.359,-356.425 176.383,-356.216 182.495,-356.059 188.671,-355.954 194.886,-355.901 201.114,-355.901 207.329,-355.954"/>
<text text-anchor="start" x="140" y="-369.898" font-family="Courier,monospace" font-size="14.00" fill="white">WHEN #digit#&gt;1</text>
</g>
<!-- analysis_take_b_apart&#45;&gt;dfr_2_mp -->
<g id="edge4" class="edge"><title>analysis_take_b_apart&#45;&gt;dfr_2_mp:n</title>
<path fill="none" stroke="black" d="M166.016,-445.701C180.574,-434.988 193.143,-421.242 196.875,-404.442"/>
<polygon fill="black" stroke="black" points="200.388,-404.519 198,-394.197 193.43,-403.755 200.388,-404.519"/>
<text text-anchor="middle" x="202" y="-415.997" font-family="Helvetica,sans-Serif" font-size="14.00">#2</text>
</g>
<!-- analysis_add_together -->
<g id="node3" class="node"><title>analysis_add_together</title>
<path fill="white" stroke="black" d="M28.5,-103.5C28.5,-103.5 113.5,-103.5 113.5,-103.5 119.5,-103.5 125.5,-109.5 125.5,-115.5 125.5,-115.5 125.5,-150.5 125.5,-150.5 125.5,-156.5 119.5,-162.5 113.5,-162.5 113.5,-162.5 28.5,-162.5 28.5,-162.5 22.5,-162.5 16.5,-156.5 16.5,-150.5 16.5,-150.5 16.5,-115.5 16.5,-115.5 16.5,-109.5 22.5,-103.5 28.5,-103.5"/>
<text text-anchor="start" x="26" y="-145.8" font-family="Times,serif" font-size="14.00">add_together (3)</text>
<text text-anchor="start" x="69.5" y="-128.8" font-family="Times,serif" font-size="14.00"> </text>
<text text-anchor="start" x="63.5" y="-111.8" font-family="Times,serif" font-size="14.00">=0</text>
</g>
<!-- dfr_1_mp&#45;&gt;analysis_add_together -->
<g id="edge5" class="edge"><title>dfr_1_mp:s&#45;&gt;analysis_add_together</title>
<path fill="none" stroke="blue" d="M71,-257C71,-228.912 71,-197.216 71,-173.034"/>
<polygon fill="blue" stroke="blue" points="74.5001,-172.829 71,-162.829 67.5001,-172.829 74.5001,-172.829"/>
</g>
<!-- table_final_result -->
<g id="node4" class="node"><title>table_final_result</title>
<polygon fill="orange" stroke="black" points="134,-52 28,-52 28,-56 16,-56 16,-16 134,-16 134,-52"/>
<polyline fill="none" stroke="black" points="16,-52 28,-52 "/>
<text text-anchor="start" x="25" y="-29.8" font-family="Courier,monospace" font-size="14.00">final_result</text>
</g>
<!-- analysis_add_together&#45;&gt;table_final_result -->
<g id="edge1" class="edge"><title>analysis_add_together&#45;&gt;table_final_result</title>
<path fill="none" stroke="blue" d="M72.1785,-103.421C72.715,-90.4109 73.347,-75.0855 73.8767,-62.2404"/>
<polygon fill="blue" stroke="blue" points="77.3781,-62.275 74.2932,-52.1393 70.3841,-61.9865 77.3781,-62.275"/>
<text text-anchor="middle" x="82" y="-73.8" font-family="Helvetica,sans-Serif" font-size="14.00" fill="blue">#1</text>
</g>
<!-- dfr_2_mp&#45;&gt;dfr_1_mp -->
<g id="edge7" class="edge"><title>dfr_2_mp&#45;&gt;dfr_1_mp</title>
<path fill="none" stroke="red" stroke-dasharray="5,2" d="M170.432,-349.331C138.868,-320.973 89.6494,-276.755 75.1506,-263.729"/>
<polygon fill="red" stroke="red" points="170.438,-349.336 174.869,-359.367 174.157,-352.678 177.876,-356.019 177.876,-356.019 177.876,-356.019 174.157,-352.678 180.884,-352.672 170.438,-349.336 170.438,-349.336"/>
<polygon fill="red" stroke="red" points="68.4539,-264.434 75.1371,-256.995 76.6249,-258.332 69.9417,-265.771 68.4539,-264.434"/>
<polyline fill="none" stroke="red" points="71.0516,-260.046 74.7711,-263.388 "/>
</g>
<!-- analysis_part_multiply -->
<g id="node6" class="node"><title>analysis_part_multiply</title>
<path fill="white" stroke="black" d="M154,-229.5C154,-229.5 242,-229.5 242,-229.5 248,-229.5 254,-235.5 254,-241.5 254,-241.5 254,-276.5 254,-276.5 254,-282.5 248,-288.5 242,-288.5 242,-288.5 154,-288.5 154,-288.5 148,-288.5 142,-282.5 142,-276.5 142,-276.5 142,-241.5 142,-241.5 142,-235.5 148,-229.5 154,-229.5"/>
<text text-anchor="start" x="151" y="-271.8" font-family="Times,serif" font-size="14.00">part_multiply (2)</text>
<text text-anchor="start" x="196" y="-254.8" font-family="Times,serif" font-size="14.00"> </text>
<text text-anchor="start" x="190" y="-237.8" font-family="Times,serif" font-size="14.00">=0</text>
</g>
<!-- dfr_2_mp&#45;&gt;analysis_part_multiply -->
<g id="edge6" class="edge"><title>dfr_2_mp:cond_0&#45;&gt;analysis_part_multiply</title>
<path fill="none" stroke="blue" d="M198,-364.098C198,-342.498 198,-318.377 198,-298.796"/>
<polygon fill="blue" stroke="blue" points="201.5,-298.72 198,-288.72 194.5,-298.72 201.5,-298.72"/>
<text text-anchor="middle" x="242" y="-310.8" font-family="Helvetica,sans-Serif" font-size="14.00" fill="blue">INPUT_PLUS </text>
</g>
<!-- sink_dfr_1_mp -->
<g id="node7" class="node"><title>sink_dfr_1_mp</title>
<polygon fill="darkgreen" stroke="black" points="143.662,-127.438 184,-115 224.338,-127.438 224.3,-147.562 143.7,-147.562 143.662,-127.438"/>
<text text-anchor="middle" x="184" y="-129.3" font-family="Courier,monospace" font-size="14.00" fill="white">Accu</text>
</g>
<!-- analysis_part_multiply&#45;&gt;sink_dfr_1_mp -->
<g id="edge2" class="edge"><title>analysis_part_multiply&#45;&gt;sink_dfr_1_mp</title>
<path fill="none" stroke="darkgreen" stroke-dasharray="5,2" d="M193.618,-219.185C191.359,-199.182 188.676,-175.417 186.718,-158.077"/>
<polygon fill="darkgreen" stroke="darkgreen" points="193.631,-219.303 190.281,-229.745 194.192,-224.272 194.753,-229.24 194.753,-229.24 194.753,-229.24 194.192,-224.272 199.225,-228.735 193.631,-219.303 193.631,-219.303"/>
<polygon fill="darkgreen" stroke="darkgreen" points="190.148,-157.258 185.548,-147.714 183.192,-158.044 190.148,-157.258"/>
<text text-anchor="middle" x="292.5" y="-199.8" font-family="Helvetica,sans-Serif" font-size="14.00" fill="darkgreen">#1</text>
<text text-anchor="middle" x="292.5" y="-184.8" font-family="Helvetica,sans-Serif" font-size="14.00" fill="darkgreen">=&gt; partial_product{digit}:=product</text>
</g>
</g>
</svg>
