<?xml version="1.0" encoding="UTF-8" standalone="no"?>
<!DOCTYPE svg PUBLIC "-//W3C//DTD SVG 1.1//EN"
 "http://www.w3.org/Graphics/SVG/1.1/DTD/svg11.dtd">
<!-- Generated by graphviz version 2.38.0 (20140413.2041)
 -->
<!-- Title: test Pages: 1 -->
<svg width="551pt" height="688pt"
 viewBox="0.00 0.00 551.00 688.20" xmlns="http://www.w3.org/2000/svg" xmlns:xlink="http://www.w3.org/1999/xlink">
<g id="graph0" class="graph" transform="scale(1 1) rotate(0) translate(72 616.197)">
<title>test</title>
<polygon fill="white" stroke="none" points="-72,72 -72,-616.197 479,-616.197 479,72 -72,72"/>
<g id="clust1" class="cluster"><title>cluster_long_mult</title>
<polygon fill="#ccebc5" stroke="black" stroke-width="2" points="8,-8 8,-536.197 383,-536.197 383,-8 8,-8"/>
<text text-anchor="middle" x="195.5" y="-520.997" font-family="Times,serif" font-size="14.00">long_mult</text>
</g>
<g id="clust2" class="cluster"><title>cluster_cl_dfr_1_mp</title>
<polygon fill="#deebf7" stroke="#deebf7" points="140,-107 140,-297 375,-297 375,-107 140,-107"/>
</g>
<!-- analysis_take_b_apart -->
<g id="node1" class="node"><title>analysis_take_b_apart</title>
<path fill="DeepSkyBlue" stroke="black" d="M71,-445.697C71,-445.697 163,-445.697 163,-445.697 169,-445.697 175,-451.697 175,-457.697 175,-457.697 175,-492.697 175,-492.697 175,-498.697 169,-504.697 163,-504.697 163,-504.697 71,-504.697 71,-504.697 65,-504.697 59,-498.697 59,-492.697 59,-492.697 59,-457.697 59,-457.697 59,-451.697 65,-445.697 71,-445.697"/>
<text text-anchor="start" x="72" y="-487.997" font-family="Times,serif" font-size="14.00">take_b_apart (1)</text>
<text text-anchor="start" x="115" y="-470.997" font-family="Times,serif" font-size="14.00"> </text>
<polygon fill="DeepSkyBlue" stroke="none" points="67,-449.197 67,-466.197 167,-466.197 167,-449.197 67,-449.197"/>
<text text-anchor="start" x="110" y="-453.997" font-family="Times,serif" font-size="14.00">2d</text>
</g>
<!-- dfr_1_mp -->
<g id="node2" class="node"><title>dfr_1_mp</title>
<ellipse fill="black" stroke="black" cx="77" cy="-259" rx="0.36" ry="0.36"/>
</g>
<!-- analysis_take_b_apart&#45;&gt;dfr_1_mp -->
<g id="edge3" class="edge"><title>analysis_take_b_apart&#45;&gt;dfr_1_mp:n</title>
<path fill="none" stroke="black" d="M103.49,-445.597C97.0474,-430.626 89.9081,-411.791 86,-394.197 73.1342,-336.275 77,-320.334 77,-261"/>
<text text-anchor="middle" x="94" y="-371.398" font-family="Helvetica,sans-Serif" font-size="14.00">#1</text>
</g>
<!-- dfr_2_mp -->
<g id="node5" class="node"><title>dfr_2_mp</title>
<polygon fill="blueviolet" stroke="black" points="221.329,-355.954 227.505,-356.059 233.617,-356.216 239.641,-356.425 245.552,-356.685 251.325,-356.996 256.939,-357.356 262.371,-357.765 267.601,-358.222 272.609,-358.724 277.378,-359.272 281.891,-359.863 286.132,-360.496 290.088,-361.168 293.748,-361.879 297.102,-362.626 300.14,-363.408 302.858,-364.221 305.249,-365.064 307.311,-365.935 309.043,-366.831 310.444,-367.749 311.518,-368.688 312.266,-369.644 312.695,-370.615 312.811,-371.599 312.62,-372.592 312.132,-373.592 311.357,-374.596 310.306,-375.601 308.989,-376.605 307.419,-377.605 305.609,-378.598 303.572,-379.581 301.322,-380.553 298.872,-381.509 296.235,-382.447 293.426,-383.366 290.458,-384.262 287.344,-385.132 284.097,-385.976 280.73,-386.789 277.254,-387.57 273.681,-388.318 270.021,-389.028 266.284,-389.701 262.48,-390.334 258.618,-390.925 254.705,-391.472 250.748,-391.975 246.754,-392.432 242.73,-392.841 238.679,-393.201 234.607,-393.512 230.518,-393.772 226.416,-393.981 222.304,-394.138 218.185,-394.243 214.062,-394.296 209.938,-394.296 205.815,-394.243 201.696,-394.138 197.584,-393.981 193.482,-393.772 189.393,-393.512 185.321,-393.201 181.27,-392.841 177.246,-392.432 173.252,-391.975 169.295,-391.472 165.382,-390.925 161.52,-390.334 157.716,-389.701 153.979,-389.028 150.319,-388.318 146.746,-387.57 143.27,-386.789 139.903,-385.976 136.656,-385.132 133.542,-384.262 130.574,-383.366 127.765,-382.447 125.128,-381.509 122.678,-380.553 120.428,-379.581 118.391,-378.598 116.581,-377.605 115.011,-376.605 113.694,-375.601 112.643,-374.596 111.868,-373.592 111.38,-372.592 111.189,-371.599 111.305,-370.615 111.734,-369.644 112.482,-368.688 113.556,-367.749 114.957,-366.831 116.689,-365.935 118.751,-365.064 121.142,-364.221 123.86,-363.408 126.898,-362.626 130.252,-361.879 133.912,-361.168 137.868,-360.496 142.109,-359.863 146.622,-359.272 151.391,-358.724 156.399,-358.222 161.629,-357.765 167.061,-357.356 172.675,-356.996 178.448,-356.685 184.359,-356.425 190.383,-356.216 196.495,-356.059 202.671,-355.954 208.886,-355.901 215.114,-355.901 221.329,-355.954"/>
<text text-anchor="start" x="154" y="-369.898" font-family="Courier,monospace" font-size="14.00" fill="white">WHEN #digit#&gt;1</text>
</g>
<!-- analysis_take_b_apart&#45;&gt;dfr_2_mp -->
<g id="edge4" class="edge"><title>analysis_take_b_apart&#45;&gt;dfr_2_mp:n</title>
<path fill="none" stroke="black" d="M175.271,-448.426C192.016,-437.441 206.877,-422.805 210.919,-404.255"/>
<polygon fill="black" stroke="black" points="214.412,-404.514 212,-394.197 207.452,-403.766 214.412,-404.514"/>
<text text-anchor="middle" x="216" y="-415.997" font-family="Helvetica,sans-Serif" font-size="14.00">#2</text>
</g>
<!-- analysis_add_together -->
<g id="node3" class="node"><title>analysis_add_together</title>
<path fill="grey" stroke="black" d="M28,-103.5C28,-103.5 120,-103.5 120,-103.5 126,-103.5 132,-109.5 132,-115.5 132,-115.5 132,-150.5 132,-150.5 132,-156.5 126,-162.5 120,-162.5 120,-162.5 28,-162.5 28,-162.5 22,-162.5 16,-156.5 16,-150.5 16,-150.5 16,-115.5 16,-115.5 16,-109.5 22,-103.5 28,-103.5"/>
<text text-anchor="start" x="28.5" y="-145.8" font-family="Times,serif" font-size="14.00">add_together (3)</text>
<text text-anchor="start" x="72" y="-128.8" font-family="Times,serif" font-size="14.00"> </text>
<polygon fill="grey" stroke="none" points="24,-107 24,-124 124,-124 124,-107 24,-107"/>
<text text-anchor="start" x="67.5" y="-111.8" font-family="Times,serif" font-size="14.00">2s</text>
</g>
<!-- dfr_1_mp&#45;&gt;analysis_add_together -->
<g id="edge5" class="edge"><title>dfr_1_mp:s&#45;&gt;analysis_add_together</title>
<path fill="none" stroke="blue" d="M77,-257C77,-228.903 76.208,-197.207 75.4379,-173.028"/>
<polygon fill="blue" stroke="blue" points="78.9291,-172.703 75.1001,-162.824 71.9329,-172.934 78.9291,-172.703"/>
</g>
<!-- table_final_result -->
<g id="node4" class="node"><title>table_final_result</title>
<polygon fill="orange" stroke="black" points="134,-52 28,-52 28,-56 16,-56 16,-16 134,-16 134,-52"/>
<polyline fill="none" stroke="black" points="16,-52 28,-52 "/>
<text text-anchor="start" x="25" y="-29.8" font-family="Courier,monospace" font-size="14.00">final_result</text>
</g>
<!-- analysis_add_together&#45;&gt;table_final_result -->
<g id="edge1" class="edge"><title>analysis_add_together&#45;&gt;table_final_result</title>
<path fill="none" stroke="blue" d="M74.2946,-103.421C74.4288,-90.4109 74.5867,-75.0855 74.7192,-62.2404"/>
<polygon fill="blue" stroke="blue" points="78.2199,-62.1748 74.8233,-52.1393 71.2203,-62.1026 78.2199,-62.1748"/>
<text text-anchor="middle" x="83" y="-73.8" font-family="Helvetica,sans-Serif" font-size="14.00" fill="blue">#1</text>
</g>
<!-- dfr_2_mp&#45;&gt;dfr_1_mp -->
<g id="edge7" class="edge"><title>dfr_2_mp&#45;&gt;dfr_1_mp</title>
<path fill="none" stroke="red" stroke-dasharray="5,2" d="M182.695,-349.331C148.838,-320.716 95.8713,-275.95 81.001,-263.382"/>
<polygon fill="red" stroke="red" points="182.971,-349.564 187.704,-359.456 186.79,-352.792 190.609,-356.019 190.609,-356.019 190.609,-356.019 186.79,-352.792 193.514,-352.582 182.971,-349.564 182.971,-349.564"/>
<polygon fill="red" stroke="red" points="74.5911,-264.511 81.0462,-256.873 82.5737,-258.164 76.1186,-265.802 74.5911,-264.511"/>
<polyline fill="none" stroke="red" points="77.0549,-260.046 80.8737,-263.274 "/>
</g>
<!-- analysis_part_multiply -->
<g id="node6" class="node"><title>analysis_part_multiply</title>
<path fill="yellow" stroke="black" d="M160.5,-229.5C160.5,-229.5 273.5,-229.5 273.5,-229.5 279.5,-229.5 285.5,-235.5 285.5,-241.5 285.5,-241.5 285.5,-276.5 285.5,-276.5 285.5,-282.5 279.5,-288.5 273.5,-288.5 273.5,-288.5 160.5,-288.5 160.5,-288.5 154.5,-288.5 148.5,-282.5 148.5,-276.5 148.5,-276.5 148.5,-241.5 148.5,-241.5 148.5,-235.5 154.5,-229.5 160.5,-229.5"/>
<text text-anchor="start" x="170.5" y="-271.8" font-family="Times,serif" font-size="14.00">part_multiply (2)</text>
<text text-anchor="start" x="215.5" y="-254.8" font-family="Times,serif" font-size="14.00"> </text>
<polygon fill="green" stroke="none" points="157,-233 157,-250 244,-250 244,-233 157,-233"/>
<text text-anchor="start" x="194.5" y="-237.8" font-family="Times,serif" font-size="14.00">7r</text>
<polygon fill="DeepSkyBlue" stroke="none" points="244,-233 244,-250 260,-250 260,-233 244,-233"/>
<text text-anchor="start" x="245" y="-237.8" font-family="Times,serif" font-size="14.00">1d</text>
<text text-anchor="start" x="261" y="-237.8" font-family="Times,serif" font-size="14.00">=8</text>
</g>
<!-- dfr_2_mp&#45;&gt;analysis_part_multiply -->
<g id="edge6" class="edge"><title>dfr_2_mp:cond_0&#45;&gt;analysis_part_multiply</title>
<path fill="none" stroke="blue" d="M212,-364.098C212,-342.473 213.09,-318.35 214.252,-298.775"/>
<polygon fill="blue" stroke="blue" points="217.751,-298.901 214.88,-288.702 210.764,-298.465 217.751,-298.901"/>
<text text-anchor="middle" x="257" y="-310.8" font-family="Helvetica,sans-Serif" font-size="14.00" fill="blue">INPUT_PLUS </text>
</g>
<!-- sink_dfr_1_mp -->
<g id="node7" class="node"><title>sink_dfr_1_mp</title>
<polygon fill="darkgreen" stroke="black" points="149.662,-127.438 190,-115 230.338,-127.438 230.3,-147.562 149.7,-147.562 149.662,-127.438"/>
<text text-anchor="middle" x="190" y="-129.3" font-family="Courier,monospace" font-size="14.00" fill="white">Accu</text>
</g>
<!-- analysis_part_multiply&#45;&gt;sink_dfr_1_mp -->
<g id="edge2" class="edge"><title>analysis_part_multiply&#45;&gt;sink_dfr_1_mp</title>
<path fill="none" stroke="darkgreen" stroke-dasharray="5,2" d="M208.548,-219.185C204.151,-198.991 198.919,-174.963 195.135,-157.583"/>
<polygon fill="darkgreen" stroke="darkgreen" points="208.61,-219.469 206.341,-230.198 209.674,-224.355 210.738,-229.24 210.738,-229.24 210.738,-229.24 209.674,-224.355 215.135,-228.283 208.61,-219.469 208.61,-219.469"/>
<polygon fill="darkgreen" stroke="darkgreen" points="198.534,-156.741 192.986,-147.714 191.694,-158.23 198.534,-156.741"/>
<text text-anchor="middle" x="306.5" y="-199.8" font-family="Helvetica,sans-Serif" font-size="14.00" fill="darkgreen">#1</text>
<text text-anchor="middle" x="306.5" y="-184.8" font-family="Helvetica,sans-Serif" font-size="14.00" fill="darkgreen">=&gt; partial_product{digit}:=product</text>
</g>
</g>
</svg>
