<?xml version="1.0" encoding="UTF-8" standalone="no"?>
<!DOCTYPE svg PUBLIC "-//W3C//DTD SVG 1.1//EN"
 "http://www.w3.org/Graphics/SVG/1.1/DTD/svg11.dtd">
<!-- Generated by graphviz version 2.38.0 (20140413.2041)
 -->
<!-- Title: test Pages: 1 -->
<svg width="562pt" height="688pt"
 viewBox="0.00 0.00 562.00 688.20" xmlns="http://www.w3.org/2000/svg" xmlns:xlink="http://www.w3.org/1999/xlink">
<g id="graph0" class="graph" transform="scale(1 1) rotate(0) translate(72 616.197)">
<title>test</title>
<polygon fill="white" stroke="none" points="-72,72 -72,-616.197 490,-616.197 490,72 -72,72"/>
<g id="clust1" class="cluster"><title>cluster_long_mult</title>
<polygon fill="#ccebc5" stroke="black" stroke-width="2" points="8,-8 8,-536.197 401,-536.197 401,-8 8,-8"/>
<text text-anchor="middle" x="204.5" y="-520.997" font-family="Times,serif" font-size="14.00">long_mult</text>
</g>
<g id="clust2" class="cluster"><title>cluster_cl_dfr_1_mp</title>
<polygon fill="#deebf7" stroke="#deebf7" points="158,-107 158,-297 393,-297 393,-107 158,-107"/>
</g>
<!-- analysis_take_b_apart -->
<g id="node1" class="node"><title>analysis_take_b_apart</title>
<path fill="DeepSkyBlue" stroke="black" d="M79,-445.697C79,-445.697 171,-445.697 171,-445.697 177,-445.697 183,-451.697 183,-457.697 183,-457.697 183,-492.697 183,-492.697 183,-498.697 177,-504.697 171,-504.697 171,-504.697 79,-504.697 79,-504.697 73,-504.697 67,-498.697 67,-492.697 67,-492.697 67,-457.697 67,-457.697 67,-451.697 73,-445.697 79,-445.697"/>
<text text-anchor="start" x="80" y="-487.997" font-family="Times,serif" font-size="14.00">take_b_apart (1)</text>
<text text-anchor="start" x="123" y="-470.997" font-family="Times,serif" font-size="14.00"> </text>
<polygon fill="DeepSkyBlue" stroke="none" points="75,-449.197 75,-466.197 175,-466.197 175,-449.197 75,-449.197"/>
<text text-anchor="start" x="118" y="-453.997" font-family="Times,serif" font-size="14.00">2d</text>
</g>
<!-- dfr_1_mp -->
<g id="node2" class="node"><title>dfr_1_mp</title>
<ellipse fill="black" stroke="black" cx="85" cy="-259" rx="0.36" ry="0.36"/>
</g>
<!-- analysis_take_b_apart&#45;&gt;dfr_1_mp -->
<g id="edge3" class="edge"><title>analysis_take_b_apart&#45;&gt;dfr_1_mp:n</title>
<path fill="none" stroke="black" d="M111.49,-445.597C105.047,-430.626 97.9081,-411.791 94,-394.197 81.1342,-336.275 85,-320.334 85,-261"/>
<text text-anchor="middle" x="102" y="-371.398" font-family="Helvetica,sans-Serif" font-size="14.00">#1</text>
</g>
<!-- dfr_2_mp -->
<g id="node5" class="node"><title>dfr_2_mp</title>
<polygon fill="blueviolet" stroke="black" points="229.329,-355.954 235.505,-356.059 241.617,-356.216 247.641,-356.425 253.552,-356.685 259.325,-356.996 264.939,-357.356 270.371,-357.765 275.601,-358.222 280.609,-358.724 285.378,-359.272 289.891,-359.863 294.132,-360.496 298.088,-361.168 301.748,-361.879 305.102,-362.626 308.14,-363.408 310.858,-364.221 313.249,-365.064 315.311,-365.935 317.043,-366.831 318.444,-367.749 319.518,-368.688 320.266,-369.644 320.695,-370.615 320.811,-371.599 320.62,-372.592 320.132,-373.592 319.357,-374.596 318.306,-375.601 316.989,-376.605 315.419,-377.605 313.609,-378.598 311.572,-379.581 309.322,-380.553 306.872,-381.509 304.235,-382.447 301.426,-383.366 298.458,-384.262 295.344,-385.132 292.097,-385.976 288.73,-386.789 285.254,-387.57 281.681,-388.318 278.021,-389.028 274.284,-389.701 270.48,-390.334 266.618,-390.925 262.705,-391.472 258.748,-391.975 254.754,-392.432 250.73,-392.841 246.679,-393.201 242.607,-393.512 238.518,-393.772 234.416,-393.981 230.304,-394.138 226.185,-394.243 222.062,-394.296 217.938,-394.296 213.815,-394.243 209.696,-394.138 205.584,-393.981 201.482,-393.772 197.393,-393.512 193.321,-393.201 189.27,-392.841 185.246,-392.432 181.252,-391.975 177.295,-391.472 173.382,-390.925 169.52,-390.334 165.716,-389.701 161.979,-389.028 158.319,-388.318 154.746,-387.57 151.27,-386.789 147.903,-385.976 144.656,-385.132 141.542,-384.262 138.574,-383.366 135.765,-382.447 133.128,-381.509 130.678,-380.553 128.428,-379.581 126.391,-378.598 124.581,-377.605 123.011,-376.605 121.694,-375.601 120.643,-374.596 119.868,-373.592 119.38,-372.592 119.189,-371.599 119.305,-370.615 119.734,-369.644 120.482,-368.688 121.556,-367.749 122.957,-366.831 124.689,-365.935 126.751,-365.064 129.142,-364.221 131.86,-363.408 134.898,-362.626 138.252,-361.879 141.912,-361.168 145.868,-360.496 150.109,-359.863 154.622,-359.272 159.391,-358.724 164.399,-358.222 169.629,-357.765 175.061,-357.356 180.675,-356.996 186.448,-356.685 192.359,-356.425 198.383,-356.216 204.495,-356.059 210.671,-355.954 216.886,-355.901 223.114,-355.901 229.329,-355.954"/>
<text text-anchor="start" x="162" y="-369.898" font-family="Courier,monospace" font-size="14.00" fill="white">WHEN #digit#&gt;1</text>
</g>
<!-- analysis_take_b_apart&#45;&gt;dfr_2_mp -->
<g id="edge4" class="edge"><title>analysis_take_b_apart&#45;&gt;dfr_2_mp:n</title>
<path fill="none" stroke="black" d="M183.271,-448.426C200.016,-437.441 214.877,-422.805 218.919,-404.255"/>
<polygon fill="black" stroke="black" points="222.412,-404.514 220,-394.197 215.452,-403.766 222.412,-404.514"/>
<text text-anchor="middle" x="224" y="-415.997" font-family="Helvetica,sans-Serif" font-size="14.00">#2</text>
</g>
<!-- analysis_add_together -->
<g id="node3" class="node"><title>analysis_add_together</title>
<path fill="green" stroke="black" d="M28,-103.5C28,-103.5 138,-103.5 138,-103.5 144,-103.5 150,-109.5 150,-115.5 150,-115.5 150,-150.5 150,-150.5 150,-156.5 144,-162.5 138,-162.5 138,-162.5 28,-162.5 28,-162.5 22,-162.5 16,-156.5 16,-150.5 16,-150.5 16,-115.5 16,-115.5 16,-109.5 22,-103.5 28,-103.5"/>
<text text-anchor="start" x="37.5" y="-145.8" font-family="Times,serif" font-size="14.00">add_together (3)</text>
<text text-anchor="start" x="81" y="-128.8" font-family="Times,serif" font-size="14.00"> </text>
<polygon fill="green" stroke="none" points="24,-107 24,-124 74,-124 74,-107 24,-107"/>
<text text-anchor="start" x="43" y="-111.8" font-family="Times,serif" font-size="14.00">1r</text>
<polygon fill="DeepSkyBlue" stroke="none" points="74,-107 74,-124 124,-124 124,-107 74,-107"/>
<text text-anchor="start" x="92" y="-111.8" font-family="Times,serif" font-size="14.00">1d</text>
<text text-anchor="start" x="125" y="-111.8" font-family="Times,serif" font-size="14.00">=2</text>
</g>
<!-- dfr_1_mp&#45;&gt;analysis_add_together -->
<g id="edge5" class="edge"><title>dfr_1_mp:s&#45;&gt;analysis_add_together</title>
<path fill="none" stroke="blue" d="M85,-257C85,-228.908 84.472,-197.212 83.9586,-173.032"/>
<polygon fill="blue" stroke="blue" points="87.4532,-172.747 83.7334,-162.827 80.455,-172.901 87.4532,-172.747"/>
</g>
<!-- table_final_result -->
<g id="node4" class="node"><title>table_final_result</title>
<polygon fill="orange" stroke="black" points="142,-52 36,-52 36,-56 24,-56 24,-16 142,-16 142,-52"/>
<polyline fill="none" stroke="black" points="24,-52 36,-52 "/>
<text text-anchor="start" x="33" y="-29.8" font-family="Courier,monospace" font-size="14.00">final_result</text>
</g>
<!-- analysis_add_together&#45;&gt;table_final_result -->
<g id="edge1" class="edge"><title>analysis_add_together&#45;&gt;table_final_result</title>
<path fill="none" stroke="blue" d="M83,-103.421C83,-90.4109 83,-75.0855 83,-62.2404"/>
<polygon fill="blue" stroke="blue" points="86.5001,-62.1392 83,-52.1393 79.5001,-62.1393 86.5001,-62.1392"/>
<text text-anchor="middle" x="91" y="-73.8" font-family="Helvetica,sans-Serif" font-size="14.00" fill="blue">#1</text>
</g>
<!-- dfr_2_mp&#45;&gt;dfr_1_mp -->
<g id="edge7" class="edge"><title>dfr_2_mp&#45;&gt;dfr_1_mp</title>
<path fill="none" stroke="red" stroke-dasharray="5,2" d="M190.695,-349.331C156.838,-320.716 103.871,-275.95 89.001,-263.382"/>
<polygon fill="red" stroke="red" points="190.971,-349.564 195.704,-359.456 194.79,-352.792 198.609,-356.019 198.609,-356.019 198.609,-356.019 194.79,-352.792 201.514,-352.582 190.971,-349.564 190.971,-349.564"/>
<polygon fill="red" stroke="red" points="82.5911,-264.511 89.0462,-256.873 90.5737,-258.164 84.1186,-265.802 82.5911,-264.511"/>
<polyline fill="none" stroke="red" points="85.0549,-260.046 88.8737,-263.274 "/>
</g>
<!-- analysis_part_multiply -->
<g id="node6" class="node"><title>analysis_part_multiply</title>
<path fill="DeepSkyBlue" stroke="black" d="M178,-229.5C178,-229.5 270,-229.5 270,-229.5 276,-229.5 282,-235.5 282,-241.5 282,-241.5 282,-276.5 282,-276.5 282,-282.5 276,-288.5 270,-288.5 270,-288.5 178,-288.5 178,-288.5 172,-288.5 166,-282.5 166,-276.5 166,-276.5 166,-241.5 166,-241.5 166,-235.5 172,-229.5 178,-229.5"/>
<text text-anchor="start" x="177" y="-271.8" font-family="Times,serif" font-size="14.00">part_multiply (2)</text>
<text text-anchor="start" x="222" y="-254.8" font-family="Times,serif" font-size="14.00"> </text>
<polygon fill="DeepSkyBlue" stroke="none" points="174,-233 174,-250 274,-250 274,-233 174,-233"/>
<text text-anchor="start" x="217" y="-237.8" font-family="Times,serif" font-size="14.00">8d</text>
</g>
<!-- dfr_2_mp&#45;&gt;analysis_part_multiply -->
<g id="edge6" class="edge"><title>dfr_2_mp:cond_0&#45;&gt;analysis_part_multiply</title>
<path fill="none" stroke="blue" d="M220,-364.098C220,-342.482 220.872,-318.36 221.802,-298.783"/>
<polygon fill="blue" stroke="blue" points="225.301,-298.871 222.304,-288.709 218.31,-298.522 225.301,-298.871"/>
<text text-anchor="middle" x="265" y="-310.8" font-family="Helvetica,sans-Serif" font-size="14.00" fill="blue">INPUT_PLUS </text>
</g>
<!-- sink_dfr_1_mp -->
<g id="node7" class="node"><title>sink_dfr_1_mp</title>
<polygon fill="darkgreen" stroke="black" points="167.662,-127.438 208,-115 248.338,-127.438 248.3,-147.562 167.7,-147.562 167.662,-127.438"/>
<text text-anchor="middle" x="208" y="-129.3" font-family="Courier,monospace" font-size="14.00" fill="white">Accu</text>
</g>
<!-- analysis_part_multiply&#45;&gt;sink_dfr_1_mp -->
<g id="edge2" class="edge"><title>analysis_part_multiply&#45;&gt;sink_dfr_1_mp</title>
<path fill="none" stroke="darkgreen" stroke-dasharray="5,2" d="M218.992,-219.185C216.411,-199.182 213.344,-175.417 211.107,-158.077"/>
<polygon fill="darkgreen" stroke="darkgreen" points="219.009,-219.322 215.826,-229.816 219.649,-224.281 220.289,-229.24 220.289,-229.24 220.289,-229.24 219.649,-224.281 224.752,-228.664 219.009,-219.322 219.009,-219.322"/>
<polygon fill="darkgreen" stroke="darkgreen" points="214.521,-157.184 209.77,-147.714 207.578,-158.08 214.521,-157.184"/>
<text text-anchor="middle" x="317.5" y="-199.8" font-family="Helvetica,sans-Serif" font-size="14.00" fill="darkgreen">#1</text>
<text text-anchor="middle" x="317.5" y="-184.8" font-family="Helvetica,sans-Serif" font-size="14.00" fill="darkgreen">=&gt; partial_product{digit}:=product</text>
</g>
</g>
</svg>
