<?xml version="1.0" encoding="UTF-8" standalone="no"?>
<!DOCTYPE svg PUBLIC "-//W3C//DTD SVG 1.1//EN"
 "http://www.w3.org/Graphics/SVG/1.1/DTD/svg11.dtd">
<!-- Generated by graphviz version 2.38.0 (20140413.2041)
 -->
<!-- Title: test Pages: 1 -->
<svg width="569pt" height="688pt"
 viewBox="0.00 0.00 569.00 688.20" xmlns="http://www.w3.org/2000/svg" xmlns:xlink="http://www.w3.org/1999/xlink">
<g id="graph0" class="graph" transform="scale(1 1) rotate(0) translate(72 616.197)">
<title>test</title>
<polygon fill="white" stroke="none" points="-72,72 -72,-616.197 497,-616.197 497,72 -72,72"/>
<g id="clust1" class="cluster"><title>cluster_long_mult</title>
<polygon fill="#ccebc5" stroke="black" stroke-width="2" points="8,-8 8,-536.197 401,-536.197 401,-8 8,-8"/>
<text text-anchor="middle" x="204.5" y="-520.997" font-family="Times,serif" font-size="14.00">long_mult</text>
</g>
<g id="clust2" class="cluster"><title>cluster_cl_dfr_1_mp</title>
<polygon fill="#deebf7" stroke="#deebf7" points="158,-107 158,-297 393,-297 393,-107 158,-107"/>
</g>
<!-- analysis_take_b_apart -->
<g id="node1" class="node"><title>analysis_take_b_apart</title>
<path fill="DeepSkyBlue" stroke="black" d="M83,-445.697C83,-445.697 175,-445.697 175,-445.697 181,-445.697 187,-451.697 187,-457.697 187,-457.697 187,-492.697 187,-492.697 187,-498.697 181,-504.697 175,-504.697 175,-504.697 83,-504.697 83,-504.697 77,-504.697 71,-498.697 71,-492.697 71,-492.697 71,-457.697 71,-457.697 71,-451.697 77,-445.697 83,-445.697"/>
<text text-anchor="start" x="84" y="-487.997" font-family="Times,serif" font-size="14.00">take_b_apart (1)</text>
<text text-anchor="start" x="127" y="-470.997" font-family="Times,serif" font-size="14.00"> </text>
<polygon fill="DeepSkyBlue" stroke="none" points="79,-449.197 79,-466.197 179,-466.197 179,-449.197 79,-449.197"/>
<text text-anchor="start" x="122" y="-453.997" font-family="Times,serif" font-size="14.00">2d</text>
</g>
<!-- dfr_1_mp -->
<g id="node2" class="node"><title>dfr_1_mp</title>
<ellipse fill="black" stroke="black" cx="89" cy="-259" rx="0.36" ry="0.36"/>
</g>
<!-- analysis_take_b_apart&#45;&gt;dfr_1_mp -->
<g id="edge3" class="edge"><title>analysis_take_b_apart&#45;&gt;dfr_1_mp:n</title>
<path fill="none" stroke="black" d="M115.49,-445.597C109.047,-430.626 101.908,-411.791 98,-394.197 85.1342,-336.275 89,-320.334 89,-261"/>
<text text-anchor="middle" x="106" y="-371.398" font-family="Helvetica,sans-Serif" font-size="14.00">#1</text>
</g>
<!-- dfr_2_mp -->
<g id="node5" class="node"><title>dfr_2_mp</title>
<polygon fill="blueviolet" stroke="black" points="233.329,-355.954 239.505,-356.059 245.617,-356.216 251.641,-356.425 257.552,-356.685 263.325,-356.996 268.939,-357.356 274.371,-357.765 279.601,-358.222 284.609,-358.724 289.378,-359.272 293.891,-359.863 298.132,-360.496 302.088,-361.168 305.748,-361.879 309.102,-362.626 312.14,-363.408 314.858,-364.221 317.249,-365.064 319.311,-365.935 321.043,-366.831 322.444,-367.749 323.518,-368.688 324.266,-369.644 324.695,-370.615 324.811,-371.599 324.62,-372.592 324.132,-373.592 323.357,-374.596 322.306,-375.601 320.989,-376.605 319.419,-377.605 317.609,-378.598 315.572,-379.581 313.322,-380.553 310.872,-381.509 308.235,-382.447 305.426,-383.366 302.458,-384.262 299.344,-385.132 296.097,-385.976 292.73,-386.789 289.254,-387.57 285.681,-388.318 282.021,-389.028 278.284,-389.701 274.48,-390.334 270.618,-390.925 266.705,-391.472 262.748,-391.975 258.754,-392.432 254.73,-392.841 250.679,-393.201 246.607,-393.512 242.518,-393.772 238.416,-393.981 234.304,-394.138 230.185,-394.243 226.062,-394.296 221.938,-394.296 217.815,-394.243 213.696,-394.138 209.584,-393.981 205.482,-393.772 201.393,-393.512 197.321,-393.201 193.27,-392.841 189.246,-392.432 185.252,-391.975 181.295,-391.472 177.382,-390.925 173.52,-390.334 169.716,-389.701 165.979,-389.028 162.319,-388.318 158.746,-387.57 155.27,-386.789 151.903,-385.976 148.656,-385.132 145.542,-384.262 142.574,-383.366 139.765,-382.447 137.128,-381.509 134.678,-380.553 132.428,-379.581 130.391,-378.598 128.581,-377.605 127.011,-376.605 125.694,-375.601 124.643,-374.596 123.868,-373.592 123.38,-372.592 123.189,-371.599 123.305,-370.615 123.734,-369.644 124.482,-368.688 125.556,-367.749 126.957,-366.831 128.689,-365.935 130.751,-365.064 133.142,-364.221 135.86,-363.408 138.898,-362.626 142.252,-361.879 145.912,-361.168 149.868,-360.496 154.109,-359.863 158.622,-359.272 163.391,-358.724 168.399,-358.222 173.629,-357.765 179.061,-357.356 184.675,-356.996 190.448,-356.685 196.359,-356.425 202.383,-356.216 208.495,-356.059 214.671,-355.954 220.886,-355.901 227.114,-355.901 233.329,-355.954"/>
<text text-anchor="start" x="166" y="-369.898" font-family="Courier,monospace" font-size="14.00" fill="white">WHEN #digit#&gt;1</text>
</g>
<!-- analysis_take_b_apart&#45;&gt;dfr_2_mp -->
<g id="edge4" class="edge"><title>analysis_take_b_apart&#45;&gt;dfr_2_mp:n</title>
<path fill="none" stroke="black" d="M187.271,-448.426C204.016,-437.441 218.877,-422.805 222.919,-404.255"/>
<polygon fill="black" stroke="black" points="226.412,-404.514 224,-394.197 219.452,-403.766 226.412,-404.514"/>
<text text-anchor="middle" x="228" y="-415.997" font-family="Helvetica,sans-Serif" font-size="14.00">#2</text>
</g>
<!-- analysis_add_together -->
<g id="node3" class="node"><title>analysis_add_together</title>
<path fill="grey" stroke="black" d="M28,-103.5C28,-103.5 138,-103.5 138,-103.5 144,-103.5 150,-109.5 150,-115.5 150,-115.5 150,-150.5 150,-150.5 150,-156.5 144,-162.5 138,-162.5 138,-162.5 28,-162.5 28,-162.5 22,-162.5 16,-156.5 16,-150.5 16,-150.5 16,-115.5 16,-115.5 16,-109.5 22,-103.5 28,-103.5"/>
<text text-anchor="start" x="37.5" y="-145.8" font-family="Times,serif" font-size="14.00">add_together (3)</text>
<text text-anchor="start" x="81" y="-128.8" font-family="Times,serif" font-size="14.00"> </text>
<polygon fill="grey" stroke="none" points="24,-107 24,-124 74,-124 74,-107 24,-107"/>
<text text-anchor="start" x="42.5" y="-111.8" font-family="Times,serif" font-size="14.00">1s</text>
<polygon fill="DeepSkyBlue" stroke="none" points="74,-107 74,-124 124,-124 124,-107 74,-107"/>
<text text-anchor="start" x="92" y="-111.8" font-family="Times,serif" font-size="14.00">1d</text>
<text text-anchor="start" x="125" y="-111.8" font-family="Times,serif" font-size="14.00">=2</text>
</g>
<!-- dfr_1_mp&#45;&gt;analysis_add_together -->
<g id="edge5" class="edge"><title>dfr_1_mp:s&#45;&gt;analysis_add_together</title>
<path fill="none" stroke="blue" d="M89,-257C89,-228.878 87.416,-197.183 85.8757,-173.011"/>
<polygon fill="blue" stroke="blue" points="89.3534,-172.556 85.2001,-162.809 82.3687,-173.019 89.3534,-172.556"/>
</g>
<!-- table_final_result -->
<g id="node4" class="node"><title>table_final_result</title>
<polygon fill="orange" stroke="black" points="142,-52 36,-52 36,-56 24,-56 24,-16 142,-16 142,-52"/>
<polyline fill="none" stroke="black" points="24,-52 36,-52 "/>
<text text-anchor="start" x="33" y="-29.8" font-family="Courier,monospace" font-size="14.00">final_result</text>
</g>
<!-- analysis_add_together&#45;&gt;table_final_result -->
<g id="edge1" class="edge"><title>analysis_add_together&#45;&gt;table_final_result</title>
<path fill="none" stroke="blue" d="M83,-103.421C83,-90.4109 83,-75.0855 83,-62.2404"/>
<polygon fill="blue" stroke="blue" points="86.5001,-62.1392 83,-52.1393 79.5001,-62.1393 86.5001,-62.1392"/>
<text text-anchor="middle" x="91" y="-73.8" font-family="Helvetica,sans-Serif" font-size="14.00" fill="blue">#1</text>
</g>
<!-- dfr_2_mp&#45;&gt;dfr_1_mp -->
<g id="edge7" class="edge"><title>dfr_2_mp&#45;&gt;dfr_1_mp</title>
<path fill="none" stroke="red" stroke-dasharray="5,2" d="M194.695,-349.331C160.838,-320.716 107.871,-275.95 93.001,-263.382"/>
<polygon fill="red" stroke="red" points="194.971,-349.564 199.704,-359.456 198.79,-352.792 202.609,-356.019 202.609,-356.019 202.609,-356.019 198.79,-352.792 205.514,-352.582 194.971,-349.564 194.971,-349.564"/>
<polygon fill="red" stroke="red" points="86.5911,-264.511 93.0462,-256.873 94.5737,-258.164 88.1186,-265.802 86.5911,-264.511"/>
<polyline fill="none" stroke="red" points="89.0549,-260.046 92.8737,-263.274 "/>
</g>
<!-- analysis_part_multiply -->
<g id="node6" class="node"><title>analysis_part_multiply</title>
<path fill="yellow" stroke="black" d="M178.5,-229.5C178.5,-229.5 289.5,-229.5 289.5,-229.5 295.5,-229.5 301.5,-235.5 301.5,-241.5 301.5,-241.5 301.5,-276.5 301.5,-276.5 301.5,-282.5 295.5,-288.5 289.5,-288.5 289.5,-288.5 178.5,-288.5 178.5,-288.5 172.5,-288.5 166.5,-282.5 166.5,-276.5 166.5,-276.5 166.5,-241.5 166.5,-241.5 166.5,-235.5 172.5,-229.5 178.5,-229.5"/>
<text text-anchor="start" x="187.5" y="-271.8" font-family="Times,serif" font-size="14.00">part_multiply (2)</text>
<text text-anchor="start" x="232.5" y="-254.8" font-family="Times,serif" font-size="14.00"> </text>
<polygon fill="green" stroke="none" points="175,-233 175,-250 189,-250 189,-233 175,-233"/>
<text text-anchor="start" x="176" y="-237.8" font-family="Times,serif" font-size="14.00">1r</text>
<polygon fill="DeepSkyBlue" stroke="none" points="189,-233 189,-250 276,-250 276,-233 189,-233"/>
<text text-anchor="start" x="225.5" y="-237.8" font-family="Times,serif" font-size="14.00">7d</text>
<text text-anchor="start" x="277" y="-237.8" font-family="Times,serif" font-size="14.00">=8</text>
</g>
<!-- dfr_2_mp&#45;&gt;analysis_part_multiply -->
<g id="edge6" class="edge"><title>dfr_2_mp:cond_0&#45;&gt;analysis_part_multiply</title>
<path fill="none" stroke="blue" d="M224,-364.098C224,-342.399 226.18,-318.271 228.504,-298.712"/>
<polygon fill="blue" stroke="blue" points="231.994,-299.006 229.759,-288.649 225.048,-298.139 231.994,-299.006"/>
<text text-anchor="middle" x="271" y="-310.8" font-family="Helvetica,sans-Serif" font-size="14.00" fill="blue">INPUT_PLUS </text>
</g>
<!-- sink_dfr_1_mp -->
<g id="node7" class="node"><title>sink_dfr_1_mp</title>
<polygon fill="darkgreen" stroke="black" points="167.662,-127.438 208,-115 248.338,-127.438 248.3,-147.562 167.7,-147.562 167.662,-127.438"/>
<text text-anchor="middle" x="208" y="-129.3" font-family="Courier,monospace" font-size="14.00" fill="white">Accu</text>
</g>
<!-- analysis_part_multiply&#45;&gt;sink_dfr_1_mp -->
<g id="edge2" class="edge"><title>analysis_part_multiply&#45;&gt;sink_dfr_1_mp</title>
<path fill="none" stroke="darkgreen" stroke-dasharray="5,2" d="M225.861,-219.185C221.627,-198.991 216.589,-174.963 212.945,-157.583"/>
<polygon fill="darkgreen" stroke="darkgreen" points="225.918,-219.453 223.565,-230.164 226.944,-224.347 227.97,-229.24 227.97,-229.24 227.97,-229.24 226.944,-224.347 232.374,-228.317 225.918,-219.453 225.918,-219.453"/>
<polygon fill="darkgreen" stroke="darkgreen" points="216.353,-156.783 210.876,-147.714 209.502,-158.22 216.353,-156.783"/>
<text text-anchor="middle" x="324.5" y="-199.8" font-family="Helvetica,sans-Serif" font-size="14.00" fill="darkgreen">#1</text>
<text text-anchor="middle" x="324.5" y="-184.8" font-family="Helvetica,sans-Serif" font-size="14.00" fill="darkgreen">=&gt; partial_product{digit}:=product</text>
</g>
</g>
</svg>
