<?xml version="1.0" encoding="UTF-8" standalone="no"?>
<!DOCTYPE svg PUBLIC "-//W3C//DTD SVG 1.1//EN"
 "http://www.w3.org/Graphics/SVG/1.1/DTD/svg11.dtd">
<!-- Generated by graphviz version 2.38.0 (20140413.2041)
 -->
<!-- Title: test Pages: 1 -->
<svg width="1072pt" height="765pt"
 viewBox="0.00 0.00 1071.93 765.02" xmlns="http://www.w3.org/2000/svg" xmlns:xlink="http://www.w3.org/1999/xlink">
<g id="graph0" class="graph" transform="scale(1 1) rotate(0) translate(0 765.02)">
<title>test</title>
<polygon fill="white" stroke="none" points="0,-0 0,-765.02 1071.93,-765.02 1071.93,-0 0,-0"/>
<g id="clust1" class="cluster"><title>cluster_long_mult</title>
<polygon fill="#ccebc5" stroke="black" stroke-width="2" points="20.5166,-8 20.5166,-757.02 1060.52,-757.02 1060.52,-8 20.5166,-8"/>
<text text-anchor="middle" x="540.517" y="-741.82" font-family="Times,serif" font-size="14.00">long_mult</text>
</g>
<g id="clust2" class="cluster"><title>cluster_add_together</title>
<path fill="green" stroke="black" d="M236.517,-16C236.517,-16 954.517,-16 954.517,-16 960.517,-16 966.517,-22 966.517,-28 966.517,-28 966.517,-394.02 966.517,-394.02 966.517,-400.02 960.517,-406.02 954.517,-406.02 954.517,-406.02 236.517,-406.02 236.517,-406.02 230.517,-406.02 224.517,-400.02 224.517,-394.02 224.517,-394.02 224.517,-28 224.517,-28 224.517,-22 230.517,-16 236.517,-16"/>
<text text-anchor="middle" x="595.517" y="-390.82" font-family="Times,serif" font-size="14.00">add_together</text>
</g>
<g id="clust3" class="cluster"><title>cluster_part_multiply</title>
<path fill="yellow" stroke="black" d="M52.5166,-468.02C52.5166,-468.02 1028.52,-468.02 1028.52,-468.02 1034.52,-468.02 1040.52,-474.02 1040.52,-480.02 1040.52,-480.02 1040.52,-554.02 1040.52,-554.02 1040.52,-560.02 1034.52,-566.02 1028.52,-566.02 1028.52,-566.02 52.5166,-566.02 52.5166,-566.02 46.5166,-566.02 40.5166,-560.02 40.5166,-554.02 40.5166,-554.02 40.5166,-480.02 40.5166,-480.02 40.5166,-474.02 46.5166,-468.02 52.5166,-468.02"/>
<text text-anchor="middle" x="540.517" y="-550.82" font-family="Times,serif" font-size="14.00">part_multiply</text>
</g>
<g id="clust4" class="cluster"><title>cluster_take_b_apart</title>
<path fill="DeepSkyBlue" stroke="black" d="M429.517,-628.02C429.517,-628.02 767.517,-628.02 767.517,-628.02 773.517,-628.02 779.517,-634.02 779.517,-640.02 779.517,-640.02 779.517,-714.02 779.517,-714.02 779.517,-720.02 773.517,-726.02 767.517,-726.02 767.517,-726.02 429.517,-726.02 429.517,-726.02 423.517,-726.02 417.517,-720.02 417.517,-714.02 417.517,-714.02 417.517,-640.02 417.517,-640.02 417.517,-634.02 423.517,-628.02 429.517,-628.02"/>
<text text-anchor="middle" x="598.517" y="-710.82" font-family="Times,serif" font-size="14.00">take_b_apart</text>
</g>
<!-- job_1__long_mult -->
<g id="node1" class="node"><title>job_1__long_mult</title>
<polygon fill="DeepSkyBlue" stroke="black" points="589.517,-695.02 429.517,-695.02 425.517,-691.02 425.517,-636.02 585.517,-636.02 589.517,-640.02 589.517,-695.02"/>
<polyline fill="none" stroke="black" points="585.517,-691.02 425.517,-691.02 "/>
<polyline fill="none" stroke="black" points="585.517,-691.02 585.517,-636.02 "/>
<polyline fill="none" stroke="black" points="585.517,-691.02 589.517,-695.02 "/>
<text text-anchor="start" x="450.517" y="-679.32" font-family="Times,serif" font-style="italic" text-decoration="underline" font-size="14.00">job_id:</text>
<text text-anchor="start" x="541.017" y="-679.32" font-family="Times,serif" font-style="italic" font-size="14.00">1</text>
<text text-anchor="start" x="435.017" y="-661.32" font-family="Times,serif" font-size="14.00">a_multiplier:</text>
<text text-anchor="start" x="508.517" y="-661.32" font-family="Times,serif" font-size="14.00"> 9650156169</text>
<text text-anchor="start" x="434.517" y="-644.32" font-family="Times,serif" font-size="14.00">b_multiplier:</text>
<text text-anchor="start" x="512.017" y="-644.32" font-family="Times,serif" font-size="14.00"> 327358788</text>
</g>
<!-- job_3__long_mult -->
<g id="node2" class="node"><title>job_3__long_mult</title>
<polygon fill="grey" stroke="black" points="399.517,-66 301.517,-66 297.517,-62 297.517,-24 395.517,-24 399.517,-28 399.517,-66"/>
<polyline fill="none" stroke="black" points="395.517,-62 297.517,-62 "/>
<polyline fill="none" stroke="black" points="395.517,-62 395.517,-24 "/>
<polyline fill="none" stroke="black" points="395.517,-62 399.517,-66 "/>
<text text-anchor="start" x="324.017" y="-50.8" font-family="Times,serif" font-style="italic" text-decoration="underline" font-size="14.00">job_id:</text>
<text text-anchor="start" x="383.517" y="-50.8" font-family="Times,serif" font-style="italic" font-size="14.00">3</text>
<text text-anchor="start" x="306.517" y="-33.8" font-family="Times,serif" font-style="italic" text-decoration="underline" font-size="14.00">params from:</text>
<text text-anchor="start" x="383.517" y="-33.8" font-family="Times,serif" font-style="italic" font-size="14.00">1</text>
</g>
<!-- job_1__long_mult&#45;&gt;job_3__long_mult -->
<g id="edge4" class="edge"><title>job_1__long_mult&#45;&gt;job_3__long_mult</title>
<path fill="none" stroke="blue" d="M425.222,-659.454C303.488,-650.051 84.5869,-625.183 36.5166,-566.02 -103.895,-393.206 200.63,-151.015 310.768,-72.0213"/>
<polygon fill="blue" stroke="blue" points="312.851,-74.8343 318.969,-66.1838 308.792,-69.1315 312.851,-74.8343"/>
</g>
<!-- job_4__long_mult -->
<g id="node3" class="node"><title>job_4__long_mult</title>
<polygon fill="DeepSkyBlue" stroke="black" points="650.517,-535.02 548.517,-535.02 544.517,-531.02 544.517,-476.02 646.517,-476.02 650.517,-480.02 650.517,-535.02"/>
<polyline fill="none" stroke="black" points="646.517,-531.02 544.517,-531.02 "/>
<polyline fill="none" stroke="black" points="646.517,-531.02 646.517,-476.02 "/>
<polyline fill="none" stroke="black" points="646.517,-531.02 650.517,-535.02 "/>
<text text-anchor="start" x="571.017" y="-519.32" font-family="Times,serif" font-style="italic" text-decoration="underline" font-size="14.00">job_id:</text>
<text text-anchor="start" x="632.517" y="-519.32" font-family="Times,serif" font-style="italic" font-size="14.00">4</text>
<text text-anchor="start" x="553.517" y="-502.32" font-family="Times,serif" font-style="italic" text-decoration="underline" font-size="14.00">params from:</text>
<text text-anchor="start" x="632.517" y="-502.32" font-family="Times,serif" font-style="italic" font-size="14.00">1</text>
<text text-anchor="start" x="576.517" y="-484.32" font-family="Times,serif" font-size="14.00">digit:</text>
<text text-anchor="start" x="630.517" y="-484.32" font-family="Times,serif" font-size="14.00"> 2</text>
</g>
<!-- job_1__long_mult&#45;&gt;job_4__long_mult -->
<g id="edge5" class="edge"><title>job_1__long_mult&#45;&gt;job_4__long_mult</title>
<path fill="none" stroke="blue" d="M523.815,-635.907C538.487,-610.149 560.147,-572.125 576.192,-543.957"/>
<polygon fill="blue" stroke="blue" points="579.279,-545.607 581.188,-535.186 573.197,-542.143 579.279,-545.607"/>
</g>
<!-- job_5__long_mult -->
<g id="node5" class="node"><title>job_5__long_mult</title>
<polygon fill="DeepSkyBlue" stroke="black" points="526.517,-535.02 424.517,-535.02 420.517,-531.02 420.517,-476.02 522.517,-476.02 526.517,-480.02 526.517,-535.02"/>
<polyline fill="none" stroke="black" points="522.517,-531.02 420.517,-531.02 "/>
<polyline fill="none" stroke="black" points="522.517,-531.02 522.517,-476.02 "/>
<polyline fill="none" stroke="black" points="522.517,-531.02 526.517,-535.02 "/>
<text text-anchor="start" x="447.017" y="-519.32" font-family="Times,serif" font-style="italic" text-decoration="underline" font-size="14.00">job_id:</text>
<text text-anchor="start" x="508.517" y="-519.32" font-family="Times,serif" font-style="italic" font-size="14.00">5</text>
<text text-anchor="start" x="429.517" y="-502.32" font-family="Times,serif" font-style="italic" text-decoration="underline" font-size="14.00">params from:</text>
<text text-anchor="start" x="508.517" y="-502.32" font-family="Times,serif" font-style="italic" font-size="14.00">1</text>
<text text-anchor="start" x="452.517" y="-484.32" font-family="Times,serif" font-size="14.00">digit:</text>
<text text-anchor="start" x="506.517" y="-484.32" font-family="Times,serif" font-size="14.00"> 3</text>
</g>
<!-- job_1__long_mult&#45;&gt;job_5__long_mult -->
<g id="edge6" class="edge"><title>job_1__long_mult&#45;&gt;job_5__long_mult</title>
<path fill="none" stroke="blue" d="M501.359,-635.907C495.889,-610.483 487.846,-573.11 481.81,-545.059"/>
<polygon fill="blue" stroke="blue" points="485.211,-544.226 479.685,-535.186 478.367,-545.698 485.211,-544.226"/>
</g>
<!-- job_6__long_mult -->
<g id="node6" class="node"><title>job_6__long_mult</title>
<polygon fill="DeepSkyBlue" stroke="black" points="402.517,-535.02 300.517,-535.02 296.517,-531.02 296.517,-476.02 398.517,-476.02 402.517,-480.02 402.517,-535.02"/>
<polyline fill="none" stroke="black" points="398.517,-531.02 296.517,-531.02 "/>
<polyline fill="none" stroke="black" points="398.517,-531.02 398.517,-476.02 "/>
<polyline fill="none" stroke="black" points="398.517,-531.02 402.517,-535.02 "/>
<text text-anchor="start" x="323.017" y="-519.32" font-family="Times,serif" font-style="italic" text-decoration="underline" font-size="14.00">job_id:</text>
<text text-anchor="start" x="384.517" y="-519.32" font-family="Times,serif" font-style="italic" font-size="14.00">6</text>
<text text-anchor="start" x="305.517" y="-502.32" font-family="Times,serif" font-style="italic" text-decoration="underline" font-size="14.00">params from:</text>
<text text-anchor="start" x="384.517" y="-502.32" font-family="Times,serif" font-style="italic" font-size="14.00">1</text>
<text text-anchor="start" x="328.517" y="-484.32" font-family="Times,serif" font-size="14.00">digit:</text>
<text text-anchor="start" x="382.517" y="-484.32" font-family="Times,serif" font-size="14.00"> 5</text>
</g>
<!-- job_1__long_mult&#45;&gt;job_6__long_mult -->
<g id="edge7" class="edge"><title>job_1__long_mult&#45;&gt;job_6__long_mult</title>
<path fill="none" stroke="blue" d="M478.904,-635.907C452.7,-609.703 413.801,-570.804 385.5,-542.503"/>
<polygon fill="blue" stroke="blue" points="387.729,-539.782 378.183,-535.186 382.779,-544.732 387.729,-539.782"/>
</g>
<!-- job_7__long_mult -->
<g id="node7" class="node"><title>job_7__long_mult</title>
<polygon fill="green" stroke="black" points="278.517,-535.02 176.517,-535.02 172.517,-531.02 172.517,-476.02 274.517,-476.02 278.517,-480.02 278.517,-535.02"/>
<polyline fill="none" stroke="black" points="274.517,-531.02 172.517,-531.02 "/>
<polyline fill="none" stroke="black" points="274.517,-531.02 274.517,-476.02 "/>
<polyline fill="none" stroke="black" points="274.517,-531.02 278.517,-535.02 "/>
<text text-anchor="start" x="199.017" y="-519.32" font-family="Times,serif" font-style="italic" text-decoration="underline" font-size="14.00">job_id:</text>
<text text-anchor="start" x="260.517" y="-519.32" font-family="Times,serif" font-style="italic" font-size="14.00">7</text>
<text text-anchor="start" x="181.517" y="-502.32" font-family="Times,serif" font-style="italic" text-decoration="underline" font-size="14.00">params from:</text>
<text text-anchor="start" x="260.517" y="-502.32" font-family="Times,serif" font-style="italic" font-size="14.00">1</text>
<text text-anchor="start" x="204.517" y="-484.32" font-family="Times,serif" font-size="14.00">digit:</text>
<text text-anchor="start" x="258.517" y="-484.32" font-family="Times,serif" font-size="14.00"> 7</text>
</g>
<!-- job_1__long_mult&#45;&gt;job_7__long_mult -->
<g id="edge8" class="edge"><title>job_1__long_mult&#45;&gt;job_7__long_mult</title>
<path fill="none" stroke="blue" d="M426.426,-635.985C383.299,-618.934 330.465,-594.956 287.517,-566.02 277.367,-559.181 267.356,-550.616 258.437,-542.133"/>
<polygon fill="blue" stroke="blue" points="260.816,-539.564 251.223,-535.066 255.917,-544.564 260.816,-539.564"/>
</g>
<!-- job_8__long_mult -->
<g id="node8" class="node"><title>job_8__long_mult</title>
<polygon fill="DeepSkyBlue" stroke="black" points="154.517,-535.02 52.5166,-535.02 48.5166,-531.02 48.5166,-476.02 150.517,-476.02 154.517,-480.02 154.517,-535.02"/>
<polyline fill="none" stroke="black" points="150.517,-531.02 48.5166,-531.02 "/>
<polyline fill="none" stroke="black" points="150.517,-531.02 150.517,-476.02 "/>
<polyline fill="none" stroke="black" points="150.517,-531.02 154.517,-535.02 "/>
<text text-anchor="start" x="75.0166" y="-519.32" font-family="Times,serif" font-style="italic" text-decoration="underline" font-size="14.00">job_id:</text>
<text text-anchor="start" x="136.517" y="-519.32" font-family="Times,serif" font-style="italic" font-size="14.00">8</text>
<text text-anchor="start" x="57.5166" y="-502.32" font-family="Times,serif" font-style="italic" text-decoration="underline" font-size="14.00">params from:</text>
<text text-anchor="start" x="136.517" y="-502.32" font-family="Times,serif" font-style="italic" font-size="14.00">1</text>
<text text-anchor="start" x="80.5166" y="-484.32" font-family="Times,serif" font-size="14.00">digit:</text>
<text text-anchor="start" x="134.517" y="-484.32" font-family="Times,serif" font-size="14.00"> 8</text>
</g>
<!-- job_1__long_mult&#45;&gt;job_8__long_mult -->
<g id="edge9" class="edge"><title>job_1__long_mult&#45;&gt;job_8__long_mult</title>
<path fill="none" stroke="blue" d="M425.281,-652.524C352.694,-639.329 245.913,-613.399 163.517,-566.02 152.604,-559.745 142.15,-551.143 133.038,-542.429"/>
<polygon fill="blue" stroke="blue" points="135.271,-539.714 125.718,-535.132 130.329,-544.671 135.271,-539.714"/>
</g>
<!-- semaphore_1__long_mult -->
<g id="node4" class="node"><title>semaphore_1__long_mult</title>
<polygon fill="grey" stroke="black" points="592.618,-303.154 412.517,-375.029 232.415,-303.154 232.583,-186.856 592.45,-186.856 592.618,-303.154"/>
<text text-anchor="start" x="391.017" y="-318.81" font-family="Times,serif" font-weight="bold" font-style="italic" font-size="14.00" fill="brown">local: 1</text>
<text text-anchor="start" x="410.517" y="-300.81" font-family="Times,serif" font-size="14.00"> </text>
<text text-anchor="start" x="333.517" y="-284.81" font-family="Times,serif" font-weight="bold" text-decoration="underline" font-size="14.00">partial_product</text>
<text text-anchor="start" x="310.517" y="-266.81" font-family="Times,serif" font-size="14.00">{2}</text>
<text text-anchor="start" x="366.517" y="-267.81" font-family="Times,serif" font-size="14.00"> </text>
<text text-anchor="start" x="370.517" y="-267.81" font-family="Times,serif" font-weight="bold" font-size="14.00">&#45;&#45;&gt;</text>
<text text-anchor="start" x="388.517" y="-267.81" font-family="Times,serif" font-size="14.00"> </text>
<text text-anchor="start" x="427.517" y="-266.81" font-family="Times,serif" font-size="14.00">&quot;19300312338&quot;</text>
<text text-anchor="start" x="310.517" y="-249.81" font-family="Times,serif" font-size="14.00">{3}</text>
<text text-anchor="start" x="366.517" y="-250.81" font-family="Times,serif" font-size="14.00"> </text>
<text text-anchor="start" x="370.517" y="-250.81" font-family="Times,serif" font-weight="bold" font-size="14.00">&#45;&#45;&gt;</text>
<text text-anchor="start" x="388.517" y="-250.81" font-family="Times,serif" font-size="14.00"> </text>
<text text-anchor="start" x="427.517" y="-249.81" font-family="Times,serif" font-size="14.00">&quot;28950468507&quot;</text>
<text text-anchor="start" x="310.517" y="-232.81" font-family="Times,serif" font-size="14.00">{5}</text>
<text text-anchor="start" x="366.517" y="-233.81" font-family="Times,serif" font-size="14.00"> </text>
<text text-anchor="start" x="370.517" y="-233.81" font-family="Times,serif" font-weight="bold" font-size="14.00">&#45;&#45;&gt;</text>
<text text-anchor="start" x="388.517" y="-233.81" font-family="Times,serif" font-size="14.00"> </text>
<text text-anchor="start" x="427.517" y="-232.81" font-family="Times,serif" font-size="14.00">&quot;48250780845&quot;</text>
<text text-anchor="start" x="310.517" y="-215.81" font-family="Times,serif" font-size="14.00">{8}</text>
<text text-anchor="start" x="366.517" y="-216.81" font-family="Times,serif" font-size="14.00"> </text>
<text text-anchor="start" x="370.517" y="-216.81" font-family="Times,serif" font-weight="bold" font-size="14.00">&#45;&#45;&gt;</text>
<text text-anchor="start" x="388.517" y="-216.81" font-family="Times,serif" font-size="14.00"> </text>
<text text-anchor="start" x="427.517" y="-215.81" font-family="Times,serif" font-size="14.00">&quot;77201249352&quot;</text>
</g>
<!-- job_4__long_mult&#45;&gt;semaphore_1__long_mult -->
<g id="edge14" class="edge"><title>job_4__long_mult&#45;&gt;semaphore_1__long_mult</title>
<path fill="none" stroke="darkgreen" stroke-dasharray="5,2" d="M574.832,-476.009C550.035,-444.845 509.236,-393.567 474.746,-350.221"/>
</g>
<!-- semaphore_1__long_mult&#45;&gt;job_3__long_mult -->
<g id="edge19" class="edge"><title>semaphore_1__long_mult:s&#45;&gt;job_3__long_mult:n</title>
<path fill="none" stroke="red" stroke-dasharray="5,2" d="M412.517,-186.01C412.517,-127.332 352.212,-126.449 348.678,-71.158"/>
<polygon fill="red" stroke="red" points="343.55,-67.1562 353.545,-66.8429 353.608,-68.8419 343.613,-69.1552 343.55,-67.1562"/>
<polyline fill="none" stroke="red" points="348.517,-66 348.673,-70.9975 "/>
</g>
<!-- job_5__long_mult&#45;&gt;semaphore_1__long_mult -->
<g id="edge15" class="edge"><title>job_5__long_mult&#45;&gt;semaphore_1__long_mult</title>
<path fill="none" stroke="darkgreen" stroke-dasharray="5,2" d="M466.037,-476.009C458.799,-448.422 447.427,-405.074 437.023,-365.419"/>
</g>
<!-- job_6__long_mult&#45;&gt;semaphore_1__long_mult -->
<g id="edge16" class="edge"><title>job_6__long_mult&#45;&gt;semaphore_1__long_mult</title>
<path fill="none" stroke="darkgreen" stroke-dasharray="5,2" d="M357.242,-476.009C364.733,-448.361 376.514,-404.884 387.278,-365.157"/>
</g>
<!-- job_7__long_mult&#45;&gt;semaphore_1__long_mult -->
<g id="edge17" class="edge"><title>job_7__long_mult&#45;&gt;semaphore_1__long_mult</title>
<path fill="none" stroke="red" stroke-dasharray="5,2" d="M248.446,-476.009C272.728,-445.819 312.19,-396.753 346.328,-354.307"/>
<polygon fill="red" stroke="red" points="345.091,-347.866 352.884,-354.134 351.63,-355.692 343.838,-349.425 345.091,-347.866"/>
<polyline fill="none" stroke="red" points="349.614,-350.221 346.481,-354.117 "/>
</g>
<!-- job_8__long_mult&#45;&gt;semaphore_1__long_mult -->
<g id="edge18" class="edge"><title>job_8__long_mult&#45;&gt;semaphore_1__long_mult</title>
<path fill="none" stroke="darkgreen" stroke-dasharray="5,2" d="M139.651,-476.009C184.905,-442.177 261.864,-384.641 322.536,-339.281"/>
</g>
<!-- job_2__long_mult -->
<g id="node9" class="node"><title>job_2__long_mult</title>
<polygon fill="DeepSkyBlue" stroke="black" points="771.517,-695.02 611.517,-695.02 607.517,-691.02 607.517,-636.02 767.517,-636.02 771.517,-640.02 771.517,-695.02"/>
<polyline fill="none" stroke="black" points="767.517,-691.02 607.517,-691.02 "/>
<polyline fill="none" stroke="black" points="767.517,-691.02 767.517,-636.02 "/>
<polyline fill="none" stroke="black" points="767.517,-691.02 771.517,-695.02 "/>
<text text-anchor="start" x="632.517" y="-679.32" font-family="Times,serif" font-style="italic" text-decoration="underline" font-size="14.00">job_id:</text>
<text text-anchor="start" x="723.017" y="-679.32" font-family="Times,serif" font-style="italic" font-size="14.00">2</text>
<text text-anchor="start" x="617.017" y="-661.32" font-family="Times,serif" font-size="14.00">a_multiplier:</text>
<text text-anchor="start" x="694.017" y="-661.32" font-family="Times,serif" font-size="14.00"> 327358788</text>
<text text-anchor="start" x="616.517" y="-644.32" font-family="Times,serif" font-size="14.00">b_multiplier:</text>
<text text-anchor="start" x="690.517" y="-644.32" font-family="Times,serif" font-size="14.00"> 9650156169</text>
</g>
<!-- job_9__long_mult -->
<g id="node10" class="node"><title>job_9__long_mult</title>
<polygon fill="green" stroke="black" points="896.517,-66 798.517,-66 794.517,-62 794.517,-24 892.517,-24 896.517,-28 896.517,-66"/>
<polyline fill="none" stroke="black" points="892.517,-62 794.517,-62 "/>
<polyline fill="none" stroke="black" points="892.517,-62 892.517,-24 "/>
<polyline fill="none" stroke="black" points="892.517,-62 896.517,-66 "/>
<text text-anchor="start" x="821.017" y="-50.8" font-family="Times,serif" font-style="italic" text-decoration="underline" font-size="14.00">job_id:</text>
<text text-anchor="start" x="880.517" y="-50.8" font-family="Times,serif" font-style="italic" font-size="14.00">9</text>
<text text-anchor="start" x="803.517" y="-33.8" font-family="Times,serif" font-style="italic" text-decoration="underline" font-size="14.00">params from:</text>
<text text-anchor="start" x="880.517" y="-33.8" font-family="Times,serif" font-style="italic" font-size="14.00">2</text>
</g>
<!-- job_2__long_mult&#45;&gt;job_9__long_mult -->
<g id="edge13" class="edge"><title>job_2__long_mult&#45;&gt;job_9__long_mult</title>
<path fill="none" stroke="blue" d="M771.648,-653.292C865.861,-638.533 1011.61,-609.297 1044.52,-566.02 1107.02,-483.818 1052.21,-314.934 967.517,-167 945.73,-128.946 908.741,-94.7003 881.19,-72.435"/>
<polygon fill="blue" stroke="blue" points="883.34,-69.6731 873.331,-66.1996 878.989,-75.1568 883.34,-69.6731"/>
</g>
<!-- job_10__long_mult -->
<g id="node11" class="node"><title>job_10__long_mult</title>
<polygon fill="DeepSkyBlue" stroke="black" points="778.017,-535.02 673.017,-535.02 669.017,-531.02 669.017,-476.02 774.017,-476.02 778.017,-480.02 778.017,-535.02"/>
<polyline fill="none" stroke="black" points="774.017,-531.02 669.017,-531.02 "/>
<polyline fill="none" stroke="black" points="774.017,-531.02 774.017,-476.02 "/>
<polyline fill="none" stroke="black" points="774.017,-531.02 778.017,-535.02 "/>
<text text-anchor="start" x="696.017" y="-519.32" font-family="Times,serif" font-style="italic" text-decoration="underline" font-size="14.00">job_id:</text>
<text text-anchor="start" x="755.517" y="-519.32" font-family="Times,serif" font-style="italic" font-size="14.00">10</text>
<text text-anchor="start" x="678.517" y="-502.32" font-family="Times,serif" font-style="italic" text-decoration="underline" font-size="14.00">params from:</text>
<text text-anchor="start" x="759.017" y="-502.32" font-family="Times,serif" font-style="italic" font-size="14.00">2</text>
<text text-anchor="start" x="701.517" y="-484.32" font-family="Times,serif" font-size="14.00">digit:</text>
<text text-anchor="start" x="757.017" y="-484.32" font-family="Times,serif" font-size="14.00"> 5</text>
</g>
<!-- job_2__long_mult&#45;&gt;job_10__long_mult -->
<g id="edge10" class="edge"><title>job_2__long_mult&#45;&gt;job_10__long_mult</title>
<path fill="none" stroke="blue" d="M695.674,-635.907C701.145,-610.483 709.187,-573.11 715.223,-545.059"/>
<polygon fill="blue" stroke="blue" points="718.666,-545.698 717.348,-535.186 711.822,-544.226 718.666,-545.698"/>
</g>
<!-- job_11__long_mult -->
<g id="node13" class="node"><title>job_11__long_mult</title>
<polygon fill="DeepSkyBlue" stroke="black" points="1032.02,-535.02 927.017,-535.02 923.017,-531.02 923.017,-476.02 1028.02,-476.02 1032.02,-480.02 1032.02,-535.02"/>
<polyline fill="none" stroke="black" points="1028.02,-531.02 923.017,-531.02 "/>
<polyline fill="none" stroke="black" points="1028.02,-531.02 1028.02,-476.02 "/>
<polyline fill="none" stroke="black" points="1028.02,-531.02 1032.02,-535.02 "/>
<text text-anchor="start" x="950.017" y="-519.32" font-family="Times,serif" font-style="italic" text-decoration="underline" font-size="14.00">job_id:</text>
<text text-anchor="start" x="1009.52" y="-519.32" font-family="Times,serif" font-style="italic" font-size="14.00">11</text>
<text text-anchor="start" x="932.517" y="-502.32" font-family="Times,serif" font-style="italic" text-decoration="underline" font-size="14.00">params from:</text>
<text text-anchor="start" x="1013.02" y="-502.32" font-family="Times,serif" font-style="italic" font-size="14.00">2</text>
<text text-anchor="start" x="955.517" y="-484.32" font-family="Times,serif" font-size="14.00">digit:</text>
<text text-anchor="start" x="1011.02" y="-484.32" font-family="Times,serif" font-size="14.00"> 6</text>
</g>
<!-- job_2__long_mult&#45;&gt;job_11__long_mult -->
<g id="edge11" class="edge"><title>job_2__long_mult&#45;&gt;job_11__long_mult</title>
<path fill="none" stroke="blue" d="M771.588,-636.447C815.822,-619.422 870.248,-595.324 914.517,-566.02 924.807,-559.208 934.972,-550.652 944.034,-542.169"/>
<polygon fill="blue" stroke="blue" points="946.596,-544.561 951.366,-535.101 941.738,-539.522 946.596,-544.561"/>
</g>
<!-- job_12__long_mult -->
<g id="node14" class="node"><title>job_12__long_mult</title>
<polygon fill="DeepSkyBlue" stroke="black" points="905.017,-535.02 800.017,-535.02 796.017,-531.02 796.017,-476.02 901.017,-476.02 905.017,-480.02 905.017,-535.02"/>
<polyline fill="none" stroke="black" points="901.017,-531.02 796.017,-531.02 "/>
<polyline fill="none" stroke="black" points="901.017,-531.02 901.017,-476.02 "/>
<polyline fill="none" stroke="black" points="901.017,-531.02 905.017,-535.02 "/>
<text text-anchor="start" x="823.017" y="-519.32" font-family="Times,serif" font-style="italic" text-decoration="underline" font-size="14.00">job_id:</text>
<text text-anchor="start" x="882.517" y="-519.32" font-family="Times,serif" font-style="italic" font-size="14.00">12</text>
<text text-anchor="start" x="805.517" y="-502.32" font-family="Times,serif" font-style="italic" text-decoration="underline" font-size="14.00">params from:</text>
<text text-anchor="start" x="886.017" y="-502.32" font-family="Times,serif" font-style="italic" font-size="14.00">2</text>
<text text-anchor="start" x="828.517" y="-484.32" font-family="Times,serif" font-size="14.00">digit:</text>
<text text-anchor="start" x="884.017" y="-484.32" font-family="Times,serif" font-size="14.00"> 9</text>
</g>
<!-- job_2__long_mult&#45;&gt;job_12__long_mult -->
<g id="edge12" class="edge"><title>job_2__long_mult&#45;&gt;job_12__long_mult</title>
<path fill="none" stroke="blue" d="M718.672,-635.907C745.374,-609.703 785.011,-570.804 813.85,-542.503"/>
<polygon fill="blue" stroke="blue" points="816.62,-544.688 821.306,-535.186 811.717,-539.692 816.62,-544.688"/>
</g>
<!-- semaphore_2__long_mult -->
<g id="node12" class="node"><title>semaphore_2__long_mult</title>
<polygon fill="darkgreen" stroke="black" points="610.652,-243.414 784.517,-181.707 958.381,-243.414 958.219,-343.257 610.814,-343.257 610.652,-243.414"/>
<text text-anchor="start" x="771.017" y="-310.81" font-family="Times,serif" font-weight="bold" font-style="italic" font-size="14.00" fill="white">open</text>
<text text-anchor="start" x="783.017" y="-292.81" font-family="Times,serif" font-size="14.00"> </text>
<text text-anchor="start" x="709.517" y="-276.81" font-family="Times,serif" font-weight="bold" text-decoration="underline" font-size="14.00">partial_product</text>
<text text-anchor="start" x="686.517" y="-258.81" font-family="Times,serif" font-size="14.00">{5}</text>
<text text-anchor="start" x="742.517" y="-259.81" font-family="Times,serif" font-size="14.00"> </text>
<text text-anchor="start" x="746.517" y="-259.81" font-family="Times,serif" font-weight="bold" font-size="14.00">&#45;&#45;&gt;</text>
<text text-anchor="start" x="764.517" y="-259.81" font-family="Times,serif" font-size="14.00"> </text>
<text text-anchor="start" x="803.517" y="-258.81" font-family="Times,serif" font-size="14.00">&quot;1636793940&quot;</text>
<text text-anchor="start" x="686.517" y="-241.81" font-family="Times,serif" font-size="14.00">{6}</text>
<text text-anchor="start" x="742.517" y="-242.81" font-family="Times,serif" font-size="14.00"> </text>
<text text-anchor="start" x="746.517" y="-242.81" font-family="Times,serif" font-weight="bold" font-size="14.00">&#45;&#45;&gt;</text>
<text text-anchor="start" x="764.517" y="-242.81" font-family="Times,serif" font-size="14.00"> </text>
<text text-anchor="start" x="803.517" y="-241.81" font-family="Times,serif" font-size="14.00">&quot;1964152728&quot;</text>
<text text-anchor="start" x="686.517" y="-224.81" font-family="Times,serif" font-size="14.00">{9}</text>
<text text-anchor="start" x="742.517" y="-225.81" font-family="Times,serif" font-size="14.00"> </text>
<text text-anchor="start" x="746.517" y="-225.81" font-family="Times,serif" font-weight="bold" font-size="14.00">&#45;&#45;&gt;</text>
<text text-anchor="start" x="764.517" y="-225.81" font-family="Times,serif" font-size="14.00"> </text>
<text text-anchor="start" x="803.517" y="-224.81" font-family="Times,serif" font-size="14.00">&quot;2946229092&quot;</text>
</g>
<!-- job_10__long_mult&#45;&gt;semaphore_2__long_mult -->
<g id="edge1" class="edge"><title>job_10__long_mult&#45;&gt;semaphore_2__long_mult</title>
<path fill="none" stroke="darkgreen" stroke-dasharray="5,2" d="M730.996,-476.009C739.586,-443.268 754,-388.328 765.706,-343.707"/>
</g>
<!-- semaphore_2__long_mult&#45;&gt;job_9__long_mult -->
<g id="edge20" class="edge"><title>semaphore_2__long_mult:s&#45;&gt;job_9__long_mult:n</title>
<path fill="none" stroke="darkgreen" stroke-dasharray="5,2" d="M784.517,-181.01C784.517,-123.15 845.517,-123.86 845.517,-66"/>
</g>
<!-- job_11__long_mult&#45;&gt;semaphore_2__long_mult -->
<g id="edge2" class="edge"><title>job_11__long_mult&#45;&gt;semaphore_2__long_mult</title>
<path fill="none" stroke="darkgreen" stroke-dasharray="5,2" d="M953.851,-476.009C926.674,-443.268 881.069,-388.328 844.031,-343.707"/>
</g>
<!-- job_12__long_mult&#45;&gt;semaphore_2__long_mult -->
<g id="edge3" class="edge"><title>job_12__long_mult&#45;&gt;semaphore_2__long_mult</title>
<path fill="none" stroke="darkgreen" stroke-dasharray="5,2" d="M842.424,-476.009C833.13,-443.268 817.535,-388.328 804.869,-343.707"/>
</g>
</g>
</svg>
