<?xml version="1.0" encoding="UTF-8" standalone="no"?>
<!DOCTYPE svg PUBLIC "-//W3C//DTD SVG 1.1//EN"
 "http://www.w3.org/Graphics/SVG/1.1/DTD/svg11.dtd">
<!-- Generated by graphviz version 2.38.0 (20140413.2041)
 -->
<!-- Title: test Pages: 1 -->
<svg width="544pt" height="688pt"
 viewBox="0.00 0.00 544.00 688.20" xmlns="http://www.w3.org/2000/svg" xmlns:xlink="http://www.w3.org/1999/xlink">
<g id="graph0" class="graph" transform="scale(1 1) rotate(0) translate(72 616.197)">
<title>test</title>
<polygon fill="white" stroke="none" points="-72,72 -72,-616.197 472,-616.197 472,72 -72,72"/>
<g id="clust1" class="cluster"><title>cluster_long_mult</title>
<polygon fill="#ccebc5" stroke="black" stroke-width="2" points="8,-8 8,-536.197 383,-536.197 383,-8 8,-8"/>
<text text-anchor="middle" x="195.5" y="-520.997" font-family="Times,serif" font-size="14.00">long_mult</text>
</g>
<g id="clust2" class="cluster"><title>cluster_cl_dfr_1_mp</title>
<polygon fill="#deebf7" stroke="#deebf7" points="140,-107 140,-297 375,-297 375,-107 140,-107"/>
</g>
<!-- analysis_take_b_apart -->
<g id="node1" class="node"><title>analysis_take_b_apart</title>
<path fill="DeepSkyBlue" stroke="black" d="M66,-445.697C66,-445.697 158,-445.697 158,-445.697 164,-445.697 170,-451.697 170,-457.697 170,-457.697 170,-492.697 170,-492.697 170,-498.697 164,-504.697 158,-504.697 158,-504.697 66,-504.697 66,-504.697 60,-504.697 54,-498.697 54,-492.697 54,-492.697 54,-457.697 54,-457.697 54,-451.697 60,-445.697 66,-445.697"/>
<text text-anchor="start" x="67" y="-487.997" font-family="Times,serif" font-size="14.00">take_b_apart (1)</text>
<text text-anchor="start" x="110" y="-470.997" font-family="Times,serif" font-size="14.00"> </text>
<polygon fill="DeepSkyBlue" stroke="none" points="62,-449.197 62,-466.197 162,-466.197 162,-449.197 62,-449.197"/>
<text text-anchor="start" x="105" y="-453.997" font-family="Times,serif" font-size="14.00">2d</text>
</g>
<!-- dfr_1_mp -->
<g id="node2" class="node"><title>dfr_1_mp</title>
<ellipse fill="black" stroke="black" cx="74" cy="-259" rx="0.36" ry="0.36"/>
</g>
<!-- analysis_take_b_apart&#45;&gt;dfr_1_mp -->
<g id="edge3" class="edge"><title>analysis_take_b_apart&#45;&gt;dfr_1_mp:n</title>
<path fill="none" stroke="black" d="M97.8774,-445.679C91.18,-430.729 83.822,-411.889 80,-394.197 67.487,-336.274 74,-320.259 74,-261"/>
<text text-anchor="middle" x="88" y="-371.398" font-family="Helvetica,sans-Serif" font-size="14.00">#1</text>
</g>
<!-- dfr_2_mp -->
<g id="node5" class="node"><title>dfr_2_mp</title>
<polygon fill="blueviolet" stroke="black" points="215.329,-355.954 221.505,-356.059 227.617,-356.216 233.641,-356.425 239.552,-356.685 245.325,-356.996 250.939,-357.356 256.371,-357.765 261.601,-358.222 266.609,-358.724 271.378,-359.272 275.891,-359.863 280.132,-360.496 284.088,-361.168 287.748,-361.879 291.102,-362.626 294.14,-363.408 296.858,-364.221 299.249,-365.064 301.311,-365.935 303.043,-366.831 304.444,-367.749 305.518,-368.688 306.266,-369.644 306.695,-370.615 306.811,-371.599 306.62,-372.592 306.132,-373.592 305.357,-374.596 304.306,-375.601 302.989,-376.605 301.419,-377.605 299.609,-378.598 297.572,-379.581 295.322,-380.553 292.872,-381.509 290.235,-382.447 287.426,-383.366 284.458,-384.262 281.344,-385.132 278.097,-385.976 274.73,-386.789 271.254,-387.57 267.681,-388.318 264.021,-389.028 260.284,-389.701 256.48,-390.334 252.618,-390.925 248.705,-391.472 244.748,-391.975 240.754,-392.432 236.73,-392.841 232.679,-393.201 228.607,-393.512 224.518,-393.772 220.416,-393.981 216.304,-394.138 212.185,-394.243 208.062,-394.296 203.938,-394.296 199.815,-394.243 195.696,-394.138 191.584,-393.981 187.482,-393.772 183.393,-393.512 179.321,-393.201 175.27,-392.841 171.246,-392.432 167.252,-391.975 163.295,-391.472 159.382,-390.925 155.52,-390.334 151.716,-389.701 147.979,-389.028 144.319,-388.318 140.746,-387.57 137.27,-386.789 133.903,-385.976 130.656,-385.132 127.542,-384.262 124.574,-383.366 121.765,-382.447 119.128,-381.509 116.678,-380.553 114.428,-379.581 112.391,-378.598 110.581,-377.605 109.011,-376.605 107.694,-375.601 106.643,-374.596 105.868,-373.592 105.38,-372.592 105.189,-371.599 105.305,-370.615 105.734,-369.644 106.482,-368.688 107.556,-367.749 108.957,-366.831 110.689,-365.935 112.751,-365.064 115.142,-364.221 117.86,-363.408 120.898,-362.626 124.252,-361.879 127.912,-361.168 131.868,-360.496 136.109,-359.863 140.622,-359.272 145.391,-358.724 150.399,-358.222 155.629,-357.765 161.061,-357.356 166.675,-356.996 172.448,-356.685 178.359,-356.425 184.383,-356.216 190.495,-356.059 196.671,-355.954 202.886,-355.901 209.114,-355.901 215.329,-355.954"/>
<text text-anchor="start" x="148" y="-369.898" font-family="Courier,monospace" font-size="14.00" fill="white">WHEN #digit#&gt;1</text>
</g>
<!-- analysis_take_b_apart&#45;&gt;dfr_2_mp -->
<g id="edge4" class="edge"><title>analysis_take_b_apart&#45;&gt;dfr_2_mp:n</title>
<path fill="none" stroke="black" d="M170.194,-447.925C186.495,-436.994 200.888,-422.542 204.895,-404.362"/>
<polygon fill="black" stroke="black" points="208.399,-404.517 206,-394.197 201.44,-403.76 208.399,-404.517"/>
<text text-anchor="middle" x="210" y="-415.997" font-family="Helvetica,sans-Serif" font-size="14.00">#2</text>
</g>
<!-- analysis_add_together -->
<g id="node3" class="node"><title>analysis_add_together</title>
<path fill="DeepSkyBlue" stroke="black" d="M28,-103.5C28,-103.5 120,-103.5 120,-103.5 126,-103.5 132,-109.5 132,-115.5 132,-115.5 132,-150.5 132,-150.5 132,-156.5 126,-162.5 120,-162.5 120,-162.5 28,-162.5 28,-162.5 22,-162.5 16,-156.5 16,-150.5 16,-150.5 16,-115.5 16,-115.5 16,-109.5 22,-103.5 28,-103.5"/>
<text text-anchor="start" x="28.5" y="-145.8" font-family="Times,serif" font-size="14.00">add_together (3)</text>
<text text-anchor="start" x="72" y="-128.8" font-family="Times,serif" font-size="14.00"> </text>
<polygon fill="DeepSkyBlue" stroke="none" points="24,-107 24,-124 124,-124 124,-107 24,-107"/>
<text text-anchor="start" x="67" y="-111.8" font-family="Times,serif" font-size="14.00">2d</text>
</g>
<!-- dfr_1_mp&#45;&gt;analysis_add_together -->
<g id="edge5" class="edge"><title>dfr_1_mp:s&#45;&gt;analysis_add_together</title>
<path fill="none" stroke="blue" d="M74,-257C74,-228.912 74,-197.216 74,-173.034"/>
<polygon fill="blue" stroke="blue" points="77.5001,-172.829 74,-162.829 70.5001,-172.829 77.5001,-172.829"/>
</g>
<!-- table_final_result -->
<g id="node4" class="node"><title>table_final_result</title>
<polygon fill="orange" stroke="black" points="134,-52 28,-52 28,-56 16,-56 16,-16 134,-16 134,-52"/>
<polyline fill="none" stroke="black" points="16,-52 28,-52 "/>
<text text-anchor="start" x="25" y="-29.8" font-family="Courier,monospace" font-size="14.00">final_result</text>
</g>
<!-- analysis_add_together&#45;&gt;table_final_result -->
<g id="edge1" class="edge"><title>analysis_add_together&#45;&gt;table_final_result</title>
<path fill="none" stroke="blue" d="M74.2946,-103.421C74.4288,-90.4109 74.5867,-75.0855 74.7192,-62.2404"/>
<polygon fill="blue" stroke="blue" points="78.2199,-62.1748 74.8233,-52.1393 71.2203,-62.1026 78.2199,-62.1748"/>
<text text-anchor="middle" x="83" y="-73.8" font-family="Helvetica,sans-Serif" font-size="14.00" fill="blue">#1</text>
</g>
<!-- dfr_2_mp&#45;&gt;dfr_1_mp -->
<g id="edge7" class="edge"><title>dfr_2_mp&#45;&gt;dfr_1_mp</title>
<path fill="none" stroke="red" stroke-dasharray="5,2" d="M177.346,-349.331C144.242,-320.716 92.452,-275.95 77.9121,-263.382"/>
<polygon fill="red" stroke="red" points="177.519,-349.48 182.141,-359.424 181.301,-352.749 185.084,-356.019 185.084,-356.019 185.084,-356.019 181.301,-352.749 188.027,-352.615 177.519,-349.48 177.519,-349.48"/>
<polygon fill="red" stroke="red" points="71.5405,-264.483 78.08,-256.918 79.5931,-258.226 73.0536,-265.791 71.5405,-264.483"/>
<polyline fill="none" stroke="red" points="74.0537,-260.046 77.8364,-263.316 "/>
</g>
<!-- analysis_part_multiply -->
<g id="node6" class="node"><title>analysis_part_multiply</title>
<path fill="DeepSkyBlue" stroke="black" d="M160,-229.5C160,-229.5 252,-229.5 252,-229.5 258,-229.5 264,-235.5 264,-241.5 264,-241.5 264,-276.5 264,-276.5 264,-282.5 258,-288.5 252,-288.5 252,-288.5 160,-288.5 160,-288.5 154,-288.5 148,-282.5 148,-276.5 148,-276.5 148,-241.5 148,-241.5 148,-235.5 154,-229.5 160,-229.5"/>
<text text-anchor="start" x="159" y="-271.8" font-family="Times,serif" font-size="14.00">part_multiply (2)</text>
<text text-anchor="start" x="204" y="-254.8" font-family="Times,serif" font-size="14.00"> </text>
<polygon fill="DeepSkyBlue" stroke="none" points="156,-233 156,-250 256,-250 256,-233 156,-233"/>
<text text-anchor="start" x="199" y="-237.8" font-family="Times,serif" font-size="14.00">8d</text>
</g>
<!-- dfr_2_mp&#45;&gt;analysis_part_multiply -->
<g id="edge6" class="edge"><title>dfr_2_mp:cond_0&#45;&gt;analysis_part_multiply</title>
<path fill="none" stroke="blue" d="M206,-364.098C206,-342.498 206,-318.377 206,-298.796"/>
<polygon fill="blue" stroke="blue" points="209.5,-298.72 206,-288.72 202.5,-298.72 209.5,-298.72"/>
<text text-anchor="middle" x="250" y="-310.8" font-family="Helvetica,sans-Serif" font-size="14.00" fill="blue">INPUT_PLUS </text>
</g>
<!-- sink_dfr_1_mp -->
<g id="node7" class="node"><title>sink_dfr_1_mp</title>
<polygon fill="darkgreen" stroke="black" points="149.662,-127.438 190,-115 230.338,-127.438 230.3,-147.562 149.7,-147.562 149.662,-127.438"/>
<text text-anchor="middle" x="190" y="-129.3" font-family="Courier,monospace" font-size="14.00" fill="white">Accu</text>
</g>
<!-- analysis_part_multiply&#45;&gt;sink_dfr_1_mp -->
<g id="edge2" class="edge"><title>analysis_part_multiply&#45;&gt;sink_dfr_1_mp</title>
<path fill="none" stroke="darkgreen" stroke-dasharray="5,2" d="M200.992,-219.185C198.411,-199.182 195.344,-175.417 193.107,-158.077"/>
<polygon fill="darkgreen" stroke="darkgreen" points="201.009,-219.322 197.826,-229.816 201.649,-224.281 202.289,-229.24 202.289,-229.24 202.289,-229.24 201.649,-224.281 206.752,-228.664 201.009,-219.322 201.009,-219.322"/>
<polygon fill="darkgreen" stroke="darkgreen" points="196.521,-157.184 191.77,-147.714 189.578,-158.08 196.521,-157.184"/>
<text text-anchor="middle" x="299.5" y="-199.8" font-family="Helvetica,sans-Serif" font-size="14.00" fill="darkgreen">#1</text>
<text text-anchor="middle" x="299.5" y="-184.8" font-family="Helvetica,sans-Serif" font-size="14.00" fill="darkgreen">=&gt; partial_product{digit}:=product</text>
</g>
</g>
</svg>
