<?xml version="1.0" encoding="UTF-8" standalone="no"?>
<!DOCTYPE svg PUBLIC "-//W3C//DTD SVG 1.1//EN"
 "http://www.w3.org/Graphics/SVG/1.1/DTD/svg11.dtd">
<!-- Generated by graphviz version 2.38.0 (20140413.2041)
 -->
<!-- Title: test Pages: 1 -->
<svg width="1060pt" height="593pt"
 viewBox="0.00 0.00 1060.40 593.00" xmlns="http://www.w3.org/2000/svg" xmlns:xlink="http://www.w3.org/1999/xlink">
<g id="graph0" class="graph" transform="scale(1 1) rotate(0) translate(0 593)">
<title>test</title>
<polygon fill="white" stroke="none" points="0,-0 0,-593 1060.4,-593 1060.4,-0 0,-0"/>
<g id="clust1" class="cluster"><title>cluster_long_mult</title>
<polygon fill="#ccebc5" stroke="black" stroke-width="2" points="12.3991,-8 12.3991,-585 1052.4,-585 1052.4,-8 12.3991,-8"/>
<text text-anchor="middle" x="532.399" y="-569.8" font-family="Times,serif" font-size="14.00">long_mult</text>
</g>
<g id="clust2" class="cluster"><title>cluster_add_together</title>
<path fill="grey" stroke="black" d="M483.399,-16C483.399,-16 697.399,-16 697.399,-16 703.399,-16 709.399,-22 709.399,-28 709.399,-28 709.399,-222 709.399,-222 709.399,-228 703.399,-234 697.399,-234 697.399,-234 483.399,-234 483.399,-234 477.399,-234 471.399,-228 471.399,-222 471.399,-222 471.399,-28 471.399,-28 471.399,-22 477.399,-16 483.399,-16"/>
<text text-anchor="middle" x="590.399" y="-218.8" font-family="Times,serif" font-size="14.00">add_together</text>
</g>
<g id="clust3" class="cluster"><title>cluster_part_multiply</title>
<path fill="green" stroke="black" d="M44.3991,-296C44.3991,-296 1020.4,-296 1020.4,-296 1026.4,-296 1032.4,-302 1032.4,-308 1032.4,-308 1032.4,-382 1032.4,-382 1032.4,-388 1026.4,-394 1020.4,-394 1020.4,-394 44.3991,-394 44.3991,-394 38.3991,-394 32.3991,-388 32.3991,-382 32.3991,-382 32.3991,-308 32.3991,-308 32.3991,-302 38.3991,-296 44.3991,-296"/>
<text text-anchor="middle" x="532.399" y="-378.8" font-family="Times,serif" font-size="14.00">part_multiply</text>
</g>
<g id="clust4" class="cluster"><title>cluster_take_b_apart</title>
<path fill="DeepSkyBlue" stroke="black" d="M421.399,-456C421.399,-456 759.399,-456 759.399,-456 765.399,-456 771.399,-462 771.399,-468 771.399,-468 771.399,-542 771.399,-542 771.399,-548 765.399,-554 759.399,-554 759.399,-554 421.399,-554 421.399,-554 415.399,-554 409.399,-548 409.399,-542 409.399,-542 409.399,-468 409.399,-468 409.399,-462 415.399,-456 421.399,-456"/>
<text text-anchor="middle" x="590.399" y="-538.8" font-family="Times,serif" font-size="14.00">take_b_apart</text>
</g>
<!-- job_1__long_mult -->
<g id="node1" class="node"><title>job_1__long_mult</title>
<polygon fill="DeepSkyBlue" stroke="black" points="581.399,-523 421.399,-523 417.399,-519 417.399,-464 577.399,-464 581.399,-468 581.399,-523"/>
<polyline fill="none" stroke="black" points="577.399,-519 417.399,-519 "/>
<polyline fill="none" stroke="black" points="577.399,-519 577.399,-464 "/>
<polyline fill="none" stroke="black" points="577.399,-519 581.399,-523 "/>
<text text-anchor="start" x="442.399" y="-507.3" font-family="Times,serif" font-style="italic" text-decoration="underline" font-size="14.00">job_id:</text>
<text text-anchor="start" x="532.899" y="-507.3" font-family="Times,serif" font-style="italic" font-size="14.00">1</text>
<text text-anchor="start" x="426.899" y="-489.3" font-family="Times,serif" font-size="14.00">a_multiplier:</text>
<text text-anchor="start" x="500.399" y="-489.3" font-family="Times,serif" font-size="14.00"> 9650156169</text>
<text text-anchor="start" x="426.399" y="-472.3" font-family="Times,serif" font-size="14.00">b_multiplier:</text>
<text text-anchor="start" x="503.899" y="-472.3" font-family="Times,serif" font-size="14.00"> 327358788</text>
</g>
<!-- job_3__long_mult -->
<g id="node2" class="node"><title>job_3__long_mult</title>
<polygon fill="grey" stroke="black" points="581.399,-66 483.399,-66 479.399,-62 479.399,-24 577.399,-24 581.399,-28 581.399,-66"/>
<polyline fill="none" stroke="black" points="577.399,-62 479.399,-62 "/>
<polyline fill="none" stroke="black" points="577.399,-62 577.399,-24 "/>
<polyline fill="none" stroke="black" points="577.399,-62 581.399,-66 "/>
<text text-anchor="start" x="505.899" y="-50.8" font-family="Times,serif" font-style="italic" text-decoration="underline" font-size="14.00">job_id:</text>
<text text-anchor="start" x="565.399" y="-50.8" font-family="Times,serif" font-style="italic" font-size="14.00">3</text>
<text text-anchor="start" x="488.399" y="-33.8" font-family="Times,serif" font-style="italic" text-decoration="underline" font-size="14.00">params from:</text>
<text text-anchor="start" x="565.399" y="-33.8" font-family="Times,serif" font-style="italic" font-size="14.00">1</text>
</g>
<!-- job_1__long_mult&#45;&gt;job_3__long_mult -->
<g id="edge4" class="edge"><title>job_1__long_mult&#45;&gt;job_3__long_mult</title>
<path fill="none" stroke="blue" d="M417.105,-487.435C295.37,-478.032 76.4693,-453.163 28.3991,-394 -110.708,-222.792 307.716,-100.046 469.448,-60.0485"/>
<polygon fill="blue" stroke="blue" points="470.381,-63.4235 479.261,-57.6454 468.716,-56.6244 470.381,-63.4235"/>
</g>
<!-- job_4__long_mult -->
<g id="node3" class="node"><title>job_4__long_mult</title>
<polygon fill="green" stroke="black" points="642.399,-363 540.399,-363 536.399,-359 536.399,-304 638.399,-304 642.399,-308 642.399,-363"/>
<polyline fill="none" stroke="black" points="638.399,-359 536.399,-359 "/>
<polyline fill="none" stroke="black" points="638.399,-359 638.399,-304 "/>
<polyline fill="none" stroke="black" points="638.399,-359 642.399,-363 "/>
<text text-anchor="start" x="562.899" y="-347.3" font-family="Times,serif" font-style="italic" text-decoration="underline" font-size="14.00">job_id:</text>
<text text-anchor="start" x="624.399" y="-347.3" font-family="Times,serif" font-style="italic" font-size="14.00">4</text>
<text text-anchor="start" x="545.399" y="-330.3" font-family="Times,serif" font-style="italic" text-decoration="underline" font-size="14.00">params from:</text>
<text text-anchor="start" x="624.399" y="-330.3" font-family="Times,serif" font-style="italic" font-size="14.00">1</text>
<text text-anchor="start" x="568.399" y="-312.3" font-family="Times,serif" font-size="14.00">digit:</text>
<text text-anchor="start" x="622.399" y="-312.3" font-family="Times,serif" font-size="14.00"> 2</text>
</g>
<!-- job_1__long_mult&#45;&gt;job_4__long_mult -->
<g id="edge5" class="edge"><title>job_1__long_mult&#45;&gt;job_4__long_mult</title>
<path fill="none" stroke="blue" d="M515.697,-463.887C530.37,-438.129 552.029,-400.105 568.074,-371.937"/>
<polygon fill="blue" stroke="blue" points="571.162,-373.588 573.07,-363.166 565.079,-370.123 571.162,-373.588"/>
</g>
<!-- job_5__long_mult -->
<g id="node5" class="node"><title>job_5__long_mult</title>
<polygon fill="green" stroke="black" points="518.399,-363 416.399,-363 412.399,-359 412.399,-304 514.399,-304 518.399,-308 518.399,-363"/>
<polyline fill="none" stroke="black" points="514.399,-359 412.399,-359 "/>
<polyline fill="none" stroke="black" points="514.399,-359 514.399,-304 "/>
<polyline fill="none" stroke="black" points="514.399,-359 518.399,-363 "/>
<text text-anchor="start" x="438.899" y="-347.3" font-family="Times,serif" font-style="italic" text-decoration="underline" font-size="14.00">job_id:</text>
<text text-anchor="start" x="500.399" y="-347.3" font-family="Times,serif" font-style="italic" font-size="14.00">5</text>
<text text-anchor="start" x="421.399" y="-330.3" font-family="Times,serif" font-style="italic" text-decoration="underline" font-size="14.00">params from:</text>
<text text-anchor="start" x="500.399" y="-330.3" font-family="Times,serif" font-style="italic" font-size="14.00">1</text>
<text text-anchor="start" x="444.399" y="-312.3" font-family="Times,serif" font-size="14.00">digit:</text>
<text text-anchor="start" x="498.399" y="-312.3" font-family="Times,serif" font-size="14.00"> 3</text>
</g>
<!-- job_1__long_mult&#45;&gt;job_5__long_mult -->
<g id="edge6" class="edge"><title>job_1__long_mult&#45;&gt;job_5__long_mult</title>
<path fill="none" stroke="blue" d="M493.242,-463.887C487.771,-438.464 479.729,-401.091 473.692,-373.04"/>
<polygon fill="blue" stroke="blue" points="477.093,-372.206 471.568,-363.166 470.25,-373.679 477.093,-372.206"/>
</g>
<!-- job_6__long_mult -->
<g id="node6" class="node"><title>job_6__long_mult</title>
<polygon fill="green" stroke="black" points="394.399,-363 292.399,-363 288.399,-359 288.399,-304 390.399,-304 394.399,-308 394.399,-363"/>
<polyline fill="none" stroke="black" points="390.399,-359 288.399,-359 "/>
<polyline fill="none" stroke="black" points="390.399,-359 390.399,-304 "/>
<polyline fill="none" stroke="black" points="390.399,-359 394.399,-363 "/>
<text text-anchor="start" x="314.899" y="-347.3" font-family="Times,serif" font-style="italic" text-decoration="underline" font-size="14.00">job_id:</text>
<text text-anchor="start" x="376.399" y="-347.3" font-family="Times,serif" font-style="italic" font-size="14.00">6</text>
<text text-anchor="start" x="297.399" y="-330.3" font-family="Times,serif" font-style="italic" text-decoration="underline" font-size="14.00">params from:</text>
<text text-anchor="start" x="376.399" y="-330.3" font-family="Times,serif" font-style="italic" font-size="14.00">1</text>
<text text-anchor="start" x="320.399" y="-312.3" font-family="Times,serif" font-size="14.00">digit:</text>
<text text-anchor="start" x="374.399" y="-312.3" font-family="Times,serif" font-size="14.00"> 5</text>
</g>
<!-- job_1__long_mult&#45;&gt;job_6__long_mult -->
<g id="edge7" class="edge"><title>job_1__long_mult&#45;&gt;job_6__long_mult</title>
<path fill="none" stroke="blue" d="M470.786,-463.887C444.582,-437.683 405.684,-398.785 377.382,-370.483"/>
<polygon fill="blue" stroke="blue" points="379.611,-367.762 370.065,-363.166 374.662,-372.712 379.611,-367.762"/>
</g>
<!-- job_7__long_mult -->
<g id="node7" class="node"><title>job_7__long_mult</title>
<polygon fill="green" stroke="black" points="270.399,-363 168.399,-363 164.399,-359 164.399,-304 266.399,-304 270.399,-308 270.399,-363"/>
<polyline fill="none" stroke="black" points="266.399,-359 164.399,-359 "/>
<polyline fill="none" stroke="black" points="266.399,-359 266.399,-304 "/>
<polyline fill="none" stroke="black" points="266.399,-359 270.399,-363 "/>
<text text-anchor="start" x="190.899" y="-347.3" font-family="Times,serif" font-style="italic" text-decoration="underline" font-size="14.00">job_id:</text>
<text text-anchor="start" x="252.399" y="-347.3" font-family="Times,serif" font-style="italic" font-size="14.00">7</text>
<text text-anchor="start" x="173.399" y="-330.3" font-family="Times,serif" font-style="italic" text-decoration="underline" font-size="14.00">params from:</text>
<text text-anchor="start" x="252.399" y="-330.3" font-family="Times,serif" font-style="italic" font-size="14.00">1</text>
<text text-anchor="start" x="196.399" y="-312.3" font-family="Times,serif" font-size="14.00">digit:</text>
<text text-anchor="start" x="250.399" y="-312.3" font-family="Times,serif" font-size="14.00"> 7</text>
</g>
<!-- job_1__long_mult&#45;&gt;job_7__long_mult -->
<g id="edge8" class="edge"><title>job_1__long_mult&#45;&gt;job_7__long_mult</title>
<path fill="none" stroke="blue" d="M418.308,-463.966C375.182,-446.914 322.347,-422.937 279.399,-394 269.25,-387.162 259.239,-378.597 250.32,-370.113"/>
<polygon fill="blue" stroke="blue" points="252.698,-367.544 243.105,-363.047 247.8,-372.545 252.698,-367.544"/>
</g>
<!-- job_8__long_mult -->
<g id="node8" class="node"><title>job_8__long_mult</title>
<polygon fill="green" stroke="black" points="146.399,-363 44.3991,-363 40.3991,-359 40.3991,-304 142.399,-304 146.399,-308 146.399,-363"/>
<polyline fill="none" stroke="black" points="142.399,-359 40.3991,-359 "/>
<polyline fill="none" stroke="black" points="142.399,-359 142.399,-304 "/>
<polyline fill="none" stroke="black" points="142.399,-359 146.399,-363 "/>
<text text-anchor="start" x="66.8991" y="-347.3" font-family="Times,serif" font-style="italic" text-decoration="underline" font-size="14.00">job_id:</text>
<text text-anchor="start" x="128.399" y="-347.3" font-family="Times,serif" font-style="italic" font-size="14.00">8</text>
<text text-anchor="start" x="49.3991" y="-330.3" font-family="Times,serif" font-style="italic" text-decoration="underline" font-size="14.00">params from:</text>
<text text-anchor="start" x="128.399" y="-330.3" font-family="Times,serif" font-style="italic" font-size="14.00">1</text>
<text text-anchor="start" x="72.3991" y="-312.3" font-family="Times,serif" font-size="14.00">digit:</text>
<text text-anchor="start" x="126.399" y="-312.3" font-family="Times,serif" font-size="14.00"> 8</text>
</g>
<!-- job_1__long_mult&#45;&gt;job_8__long_mult -->
<g id="edge9" class="edge"><title>job_1__long_mult&#45;&gt;job_8__long_mult</title>
<path fill="none" stroke="blue" d="M417.164,-480.505C344.577,-467.309 237.795,-441.38 155.399,-394 144.487,-387.725 134.033,-379.123 124.92,-370.41"/>
<polygon fill="blue" stroke="blue" points="127.154,-367.694 117.6,-363.113 122.211,-372.651 127.154,-367.694"/>
</g>
<!-- semaphore_1__long_mult -->
<g id="node4" class="node"><title>semaphore_1__long_mult</title>
<polygon fill="grey" stroke="black" points="543.001,-190.562 511.399,-203 479.797,-190.562 479.827,-170.438 542.972,-170.438 543.001,-190.562"/>
<text text-anchor="start" x="490.399" y="-181.8" font-family="Times,serif" font-weight="bold" font-style="italic" font-size="14.00" fill="brown">local: 5</text>
</g>
<!-- job_4__long_mult&#45;&gt;semaphore_1__long_mult -->
<g id="edge14" class="edge"><title>job_4__long_mult&#45;&gt;semaphore_1__long_mult</title>
<path fill="none" stroke="red" stroke-dasharray="5,2" d="M574.175,-303.906C558.565,-274.587 534.738,-229.836 521.377,-204.741"/>
<polygon fill="red" stroke="red" points="515.065,-203.524 523.892,-198.825 524.832,-200.59 516.005,-205.29 515.065,-203.524"/>
<polyline fill="none" stroke="red" points="519.008,-200.292 521.358,-204.705 "/>
</g>
<!-- semaphore_1__long_mult&#45;&gt;job_3__long_mult -->
<g id="edge19" class="edge"><title>semaphore_1__long_mult:s&#45;&gt;job_3__long_mult:n</title>
<path fill="none" stroke="red" stroke-dasharray="5,2" d="M511.399,-169C511.399,-124.177 529.015,-113.335 530.323,-71.0347"/>
<polygon fill="red" stroke="red" points="525.384,-66.9238 535.383,-67.076 535.353,-69.0758 525.354,-68.9235 525.384,-66.9238"/>
<polyline fill="none" stroke="red" points="530.399,-66 530.323,-70.9994 "/>
</g>
<!-- job_5__long_mult&#45;&gt;semaphore_1__long_mult -->
<g id="edge15" class="edge"><title>job_5__long_mult&#45;&gt;semaphore_1__long_mult</title>
<path fill="none" stroke="red" stroke-dasharray="5,2" d="M474.378,-303.906C483.398,-275.177 497.071,-231.631 505.031,-206.279"/>
<polygon fill="red" stroke="red" points="501.474,-200.918 511.015,-203.914 510.416,-205.822 500.875,-202.826 501.474,-200.918"/>
<polyline fill="none" stroke="red" points="506.544,-201.462 505.046,-206.232 "/>
</g>
<!-- job_6__long_mult&#45;&gt;semaphore_1__long_mult -->
<g id="edge16" class="edge"><title>job_6__long_mult&#45;&gt;semaphore_1__long_mult</title>
<path fill="none" stroke="red" stroke-dasharray="5,2" d="M374.58,-303.906C410.314,-273.111 465.806,-225.29 493.872,-201.104"/>
<polygon fill="red" stroke="red" points="493.787,-194.577 500.315,-202.153 498.8,-203.458 492.271,-195.883 493.787,-194.577"/>
<polyline fill="none" stroke="red" points="497.808,-197.712 494.02,-200.976 "/>
</g>
<!-- job_7__long_mult&#45;&gt;semaphore_1__long_mult -->
<g id="edge17" class="edge"><title>job_7__long_mult&#45;&gt;semaphore_1__long_mult</title>
<path fill="none" stroke="red" stroke-dasharray="5,2" d="M264.883,-303.968C269.753,-301.216 274.654,-298.515 279.399,-296 353.16,-256.902 443.164,-216.138 486.168,-197.071"/>
<polygon fill="red" stroke="red" points="487.989,-190.797 492.037,-199.942 490.208,-200.751 486.16,-191.607 487.989,-190.797"/>
<polyline fill="none" stroke="red" points="490.927,-194.965 486.355,-196.988 "/>
</g>
<!-- job_8__long_mult&#45;&gt;semaphore_1__long_mult -->
<g id="edge18" class="edge"><title>job_8__long_mult&#45;&gt;semaphore_1__long_mult</title>
<path fill="none" stroke="red" stroke-dasharray="5,2" d="M139.159,-303.981C144.541,-301.103 150.029,-298.372 155.399,-296 269.937,-245.416 414.788,-208.44 478.635,-193.412"/>
<polygon fill="red" stroke="red" points="481.712,-187.556 483.991,-197.293 482.044,-197.749 479.764,-188.012 481.712,-187.556"/>
<polyline fill="none" stroke="red" points="483.825,-192.197 478.957,-193.337 "/>
</g>
<!-- job_2__long_mult -->
<g id="node9" class="node"><title>job_2__long_mult</title>
<polygon fill="DeepSkyBlue" stroke="black" points="763.399,-523 603.399,-523 599.399,-519 599.399,-464 759.399,-464 763.399,-468 763.399,-523"/>
<polyline fill="none" stroke="black" points="759.399,-519 599.399,-519 "/>
<polyline fill="none" stroke="black" points="759.399,-519 759.399,-464 "/>
<polyline fill="none" stroke="black" points="759.399,-519 763.399,-523 "/>
<text text-anchor="start" x="624.399" y="-507.3" font-family="Times,serif" font-style="italic" text-decoration="underline" font-size="14.00">job_id:</text>
<text text-anchor="start" x="714.899" y="-507.3" font-family="Times,serif" font-style="italic" font-size="14.00">2</text>
<text text-anchor="start" x="608.899" y="-489.3" font-family="Times,serif" font-size="14.00">a_multiplier:</text>
<text text-anchor="start" x="685.899" y="-489.3" font-family="Times,serif" font-size="14.00"> 327358788</text>
<text text-anchor="start" x="608.399" y="-472.3" font-family="Times,serif" font-size="14.00">b_multiplier:</text>
<text text-anchor="start" x="682.399" y="-472.3" font-family="Times,serif" font-size="14.00"> 9650156169</text>
</g>
<!-- job_9__long_mult -->
<g id="node10" class="node"><title>job_9__long_mult</title>
<polygon fill="grey" stroke="black" points="701.399,-66 603.399,-66 599.399,-62 599.399,-24 697.399,-24 701.399,-28 701.399,-66"/>
<polyline fill="none" stroke="black" points="697.399,-62 599.399,-62 "/>
<polyline fill="none" stroke="black" points="697.399,-62 697.399,-24 "/>
<polyline fill="none" stroke="black" points="697.399,-62 701.399,-66 "/>
<text text-anchor="start" x="625.899" y="-50.8" font-family="Times,serif" font-style="italic" text-decoration="underline" font-size="14.00">job_id:</text>
<text text-anchor="start" x="685.399" y="-50.8" font-family="Times,serif" font-style="italic" font-size="14.00">9</text>
<text text-anchor="start" x="608.399" y="-33.8" font-family="Times,serif" font-style="italic" text-decoration="underline" font-size="14.00">params from:</text>
<text text-anchor="start" x="685.399" y="-33.8" font-family="Times,serif" font-style="italic" font-size="14.00">2</text>
</g>
<!-- job_2__long_mult&#45;&gt;job_9__long_mult -->
<g id="edge13" class="edge"><title>job_2__long_mult&#45;&gt;job_9__long_mult</title>
<path fill="none" stroke="blue" d="M763.531,-481.273C857.744,-466.514 1003.49,-437.278 1036.4,-394 1062.76,-359.328 1057.21,-334.265 1036.4,-296 966.941,-168.26 800.964,-95.7477 710.942,-64.5318"/>
<polygon fill="blue" stroke="blue" points="712.007,-61.1971 701.413,-61.2833 709.748,-67.8227 712.007,-61.1971"/>
</g>
<!-- job_10__long_mult -->
<g id="node11" class="node"><title>job_10__long_mult</title>
<polygon fill="green" stroke="black" points="769.899,-363 664.899,-363 660.899,-359 660.899,-304 765.899,-304 769.899,-308 769.899,-363"/>
<polyline fill="none" stroke="black" points="765.899,-359 660.899,-359 "/>
<polyline fill="none" stroke="black" points="765.899,-359 765.899,-304 "/>
<polyline fill="none" stroke="black" points="765.899,-359 769.899,-363 "/>
<text text-anchor="start" x="687.899" y="-347.3" font-family="Times,serif" font-style="italic" text-decoration="underline" font-size="14.00">job_id:</text>
<text text-anchor="start" x="747.399" y="-347.3" font-family="Times,serif" font-style="italic" font-size="14.00">10</text>
<text text-anchor="start" x="670.399" y="-330.3" font-family="Times,serif" font-style="italic" text-decoration="underline" font-size="14.00">params from:</text>
<text text-anchor="start" x="750.899" y="-330.3" font-family="Times,serif" font-style="italic" font-size="14.00">2</text>
<text text-anchor="start" x="693.399" y="-312.3" font-family="Times,serif" font-size="14.00">digit:</text>
<text text-anchor="start" x="748.899" y="-312.3" font-family="Times,serif" font-size="14.00"> 5</text>
</g>
<!-- job_2__long_mult&#45;&gt;job_10__long_mult -->
<g id="edge10" class="edge"><title>job_2__long_mult&#45;&gt;job_10__long_mult</title>
<path fill="none" stroke="blue" d="M687.556,-463.887C693.027,-438.464 701.069,-401.091 707.106,-373.04"/>
<polygon fill="blue" stroke="blue" points="710.548,-373.679 709.23,-363.166 703.705,-372.206 710.548,-373.679"/>
</g>
<!-- job_11__long_mult -->
<g id="node13" class="node"><title>job_11__long_mult</title>
<polygon fill="green" stroke="black" points="1023.9,-363 918.899,-363 914.899,-359 914.899,-304 1019.9,-304 1023.9,-308 1023.9,-363"/>
<polyline fill="none" stroke="black" points="1019.9,-359 914.899,-359 "/>
<polyline fill="none" stroke="black" points="1019.9,-359 1019.9,-304 "/>
<polyline fill="none" stroke="black" points="1019.9,-359 1023.9,-363 "/>
<text text-anchor="start" x="941.899" y="-347.3" font-family="Times,serif" font-style="italic" text-decoration="underline" font-size="14.00">job_id:</text>
<text text-anchor="start" x="1001.4" y="-347.3" font-family="Times,serif" font-style="italic" font-size="14.00">11</text>
<text text-anchor="start" x="924.399" y="-330.3" font-family="Times,serif" font-style="italic" text-decoration="underline" font-size="14.00">params from:</text>
<text text-anchor="start" x="1004.9" y="-330.3" font-family="Times,serif" font-style="italic" font-size="14.00">2</text>
<text text-anchor="start" x="947.399" y="-312.3" font-family="Times,serif" font-size="14.00">digit:</text>
<text text-anchor="start" x="1002.9" y="-312.3" font-family="Times,serif" font-size="14.00"> 6</text>
</g>
<!-- job_2__long_mult&#45;&gt;job_11__long_mult -->
<g id="edge11" class="edge"><title>job_2__long_mult&#45;&gt;job_11__long_mult</title>
<path fill="none" stroke="blue" d="M763.47,-464.427C807.704,-447.402 862.131,-423.304 906.399,-394 916.69,-387.188 926.854,-378.632 935.917,-370.15"/>
<polygon fill="blue" stroke="blue" points="938.478,-372.542 943.249,-363.081 933.62,-367.502 938.478,-372.542"/>
</g>
<!-- job_12__long_mult -->
<g id="node14" class="node"><title>job_12__long_mult</title>
<polygon fill="green" stroke="black" points="896.899,-363 791.899,-363 787.899,-359 787.899,-304 892.899,-304 896.899,-308 896.899,-363"/>
<polyline fill="none" stroke="black" points="892.899,-359 787.899,-359 "/>
<polyline fill="none" stroke="black" points="892.899,-359 892.899,-304 "/>
<polyline fill="none" stroke="black" points="892.899,-359 896.899,-363 "/>
<text text-anchor="start" x="814.899" y="-347.3" font-family="Times,serif" font-style="italic" text-decoration="underline" font-size="14.00">job_id:</text>
<text text-anchor="start" x="874.399" y="-347.3" font-family="Times,serif" font-style="italic" font-size="14.00">12</text>
<text text-anchor="start" x="797.399" y="-330.3" font-family="Times,serif" font-style="italic" text-decoration="underline" font-size="14.00">params from:</text>
<text text-anchor="start" x="877.899" y="-330.3" font-family="Times,serif" font-style="italic" font-size="14.00">2</text>
<text text-anchor="start" x="820.399" y="-312.3" font-family="Times,serif" font-size="14.00">digit:</text>
<text text-anchor="start" x="875.899" y="-312.3" font-family="Times,serif" font-size="14.00"> 9</text>
</g>
<!-- job_2__long_mult&#45;&gt;job_12__long_mult -->
<g id="edge12" class="edge"><title>job_2__long_mult&#45;&gt;job_12__long_mult</title>
<path fill="none" stroke="blue" d="M710.555,-463.887C737.257,-437.683 776.894,-398.785 805.733,-370.483"/>
<polygon fill="blue" stroke="blue" points="808.503,-372.669 813.189,-363.166 803.6,-367.673 808.503,-372.669"/>
</g>
<!-- semaphore_2__long_mult -->
<g id="node12" class="node"><title>semaphore_2__long_mult</title>
<polygon fill="grey" stroke="black" points="701.001,-190.562 669.399,-203 637.797,-190.562 637.827,-170.438 700.972,-170.438 701.001,-190.562"/>
<text text-anchor="start" x="648.399" y="-181.8" font-family="Times,serif" font-weight="bold" font-style="italic" font-size="14.00" fill="brown">local: 3</text>
</g>
<!-- job_10__long_mult&#45;&gt;semaphore_2__long_mult -->
<g id="edge1" class="edge"><title>job_10__long_mult&#45;&gt;semaphore_2__long_mult</title>
<path fill="none" stroke="red" stroke-dasharray="5,2" d="M706.421,-303.906C697.4,-275.177 683.727,-231.631 675.767,-206.279"/>
<polygon fill="red" stroke="red" points="669.783,-203.914 679.324,-200.918 679.923,-202.826 670.382,-205.822 669.783,-203.914"/>
<polyline fill="none" stroke="red" points="674.254,-201.462 675.752,-206.232 "/>
</g>
<!-- semaphore_2__long_mult&#45;&gt;job_9__long_mult -->
<g id="edge20" class="edge"><title>semaphore_2__long_mult:s&#45;&gt;job_9__long_mult:n</title>
<path fill="none" stroke="red" stroke-dasharray="5,2" d="M669.399,-169C669.399,-124.177 651.783,-113.335 650.476,-71.0347"/>
<polygon fill="red" stroke="red" points="645.415,-67.076 655.414,-66.9238 655.444,-68.9235 645.445,-69.0758 645.415,-67.076"/>
<polyline fill="none" stroke="red" points="650.399,-66 650.475,-70.9994 "/>
</g>
<!-- job_11__long_mult&#45;&gt;semaphore_2__long_mult -->
<g id="edge2" class="edge"><title>job_11__long_mult&#45;&gt;semaphore_2__long_mult</title>
<path fill="none" stroke="red" stroke-dasharray="5,2" d="M921.148,-303.954C916.2,-301.205 911.221,-298.509 906.399,-296 830.885,-256.703 738.726,-215.909 694.905,-196.93"/>
<polygon fill="red" stroke="red" points="689.244,-199.93 693.213,-190.751 695.048,-191.545 691.079,-200.723 689.244,-199.93"/>
<polyline fill="none" stroke="red" points="690.31,-194.943 694.9,-196.928 "/>
</g>
<!-- job_12__long_mult&#45;&gt;semaphore_2__long_mult -->
<g id="edge3" class="edge"><title>job_12__long_mult&#45;&gt;semaphore_2__long_mult</title>
<path fill="none" stroke="red" stroke-dasharray="5,2" d="M808.632,-303.906C772.268,-273.111 715.796,-225.29 687.236,-201.104"/>
<polygon fill="red" stroke="red" points="680.762,-202.174 687.224,-194.543 688.75,-195.835 682.288,-203.467 680.762,-202.174"/>
<polyline fill="none" stroke="red" points="683.23,-197.712 687.046,-200.943 "/>
</g>
</g>
</svg>
