<?xml version="1.0" encoding="UTF-8" standalone="no"?>
<!DOCTYPE svg PUBLIC "-//W3C//DTD SVG 1.1//EN"
 "http://www.w3.org/Graphics/SVG/1.1/DTD/svg11.dtd">
<!-- Generated by graphviz version 2.38.0 (20140413.2041)
 -->
<!-- Title: test Pages: 1 -->
<svg width="1081pt" height="795pt"
 viewBox="0.00 0.00 1080.56 794.74" xmlns="http://www.w3.org/2000/svg" xmlns:xlink="http://www.w3.org/1999/xlink">
<g id="graph0" class="graph" transform="scale(1 1) rotate(0) translate(0 794.737)">
<title>test</title>
<polygon fill="white" stroke="none" points="0,-0 0,-794.737 1080.56,-794.737 1080.56,-0 0,-0"/>
<g id="clust1" class="cluster"><title>cluster_long_mult</title>
<polygon fill="#ccebc5" stroke="black" stroke-width="2" points="22.7763,-8 22.7763,-786.737 1062.78,-786.737 1062.78,-8 22.7763,-8"/>
<text text-anchor="middle" x="542.776" y="-771.537" font-family="Times,serif" font-size="14.00">long_mult</text>
</g>
<g id="clust2" class="cluster"><title>cluster_add_together</title>
<path fill="green" stroke="black" d="M238.776,-16C238.776,-16 956.776,-16 956.776,-16 962.776,-16 968.776,-22 968.776,-28 968.776,-28 968.776,-423.737 968.776,-423.737 968.776,-429.737 962.776,-435.737 956.776,-435.737 956.776,-435.737 238.776,-435.737 238.776,-435.737 232.776,-435.737 226.776,-429.737 226.776,-423.737 226.776,-423.737 226.776,-28 226.776,-28 226.776,-22 232.776,-16 238.776,-16"/>
<text text-anchor="middle" x="597.776" y="-420.537" font-family="Times,serif" font-size="14.00">add_together</text>
</g>
<g id="clust3" class="cluster"><title>cluster_part_multiply</title>
<path fill="DeepSkyBlue" stroke="black" d="M54.7763,-497.737C54.7763,-497.737 1030.78,-497.737 1030.78,-497.737 1036.78,-497.737 1042.78,-503.737 1042.78,-509.737 1042.78,-509.737 1042.78,-583.737 1042.78,-583.737 1042.78,-589.737 1036.78,-595.737 1030.78,-595.737 1030.78,-595.737 54.7763,-595.737 54.7763,-595.737 48.7763,-595.737 42.7763,-589.737 42.7763,-583.737 42.7763,-583.737 42.7763,-509.737 42.7763,-509.737 42.7763,-503.737 48.7763,-497.737 54.7763,-497.737"/>
<text text-anchor="middle" x="542.776" y="-580.537" font-family="Times,serif" font-size="14.00">part_multiply</text>
</g>
<g id="clust4" class="cluster"><title>cluster_take_b_apart</title>
<path fill="DeepSkyBlue" stroke="black" d="M431.776,-657.737C431.776,-657.737 769.776,-657.737 769.776,-657.737 775.776,-657.737 781.776,-663.737 781.776,-669.737 781.776,-669.737 781.776,-743.737 781.776,-743.737 781.776,-749.737 775.776,-755.737 769.776,-755.737 769.776,-755.737 431.776,-755.737 431.776,-755.737 425.776,-755.737 419.776,-749.737 419.776,-743.737 419.776,-743.737 419.776,-669.737 419.776,-669.737 419.776,-663.737 425.776,-657.737 431.776,-657.737"/>
<text text-anchor="middle" x="600.776" y="-740.537" font-family="Times,serif" font-size="14.00">take_b_apart</text>
</g>
<!-- job_1__long_mult -->
<g id="node1" class="node"><title>job_1__long_mult</title>
<polygon fill="DeepSkyBlue" stroke="black" points="591.776,-724.737 431.776,-724.737 427.776,-720.737 427.776,-665.737 587.776,-665.737 591.776,-669.737 591.776,-724.737"/>
<polyline fill="none" stroke="black" points="587.776,-720.737 427.776,-720.737 "/>
<polyline fill="none" stroke="black" points="587.776,-720.737 587.776,-665.737 "/>
<polyline fill="none" stroke="black" points="587.776,-720.737 591.776,-724.737 "/>
<text text-anchor="start" x="452.776" y="-709.037" font-family="Times,serif" font-style="italic" text-decoration="underline" font-size="14.00">job_id:</text>
<text text-anchor="start" x="543.276" y="-709.037" font-family="Times,serif" font-style="italic" font-size="14.00">1</text>
<text text-anchor="start" x="437.276" y="-691.037" font-family="Times,serif" font-size="14.00">a_multiplier:</text>
<text text-anchor="start" x="510.776" y="-691.037" font-family="Times,serif" font-size="14.00"> 9650156169</text>
<text text-anchor="start" x="436.776" y="-674.037" font-family="Times,serif" font-size="14.00">b_multiplier:</text>
<text text-anchor="start" x="514.276" y="-674.037" font-family="Times,serif" font-size="14.00"> 327358788</text>
</g>
<!-- job_3__long_mult -->
<g id="node2" class="node"><title>job_3__long_mult</title>
<polygon fill="green" stroke="black" points="401.776,-66 303.776,-66 299.776,-62 299.776,-24 397.776,-24 401.776,-28 401.776,-66"/>
<polyline fill="none" stroke="black" points="397.776,-62 299.776,-62 "/>
<polyline fill="none" stroke="black" points="397.776,-62 397.776,-24 "/>
<polyline fill="none" stroke="black" points="397.776,-62 401.776,-66 "/>
<text text-anchor="start" x="326.276" y="-50.8" font-family="Times,serif" font-style="italic" text-decoration="underline" font-size="14.00">job_id:</text>
<text text-anchor="start" x="385.776" y="-50.8" font-family="Times,serif" font-style="italic" font-size="14.00">3</text>
<text text-anchor="start" x="308.776" y="-33.8" font-family="Times,serif" font-style="italic" text-decoration="underline" font-size="14.00">params from:</text>
<text text-anchor="start" x="385.776" y="-33.8" font-family="Times,serif" font-style="italic" font-size="14.00">1</text>
</g>
<!-- job_1__long_mult&#45;&gt;job_3__long_mult -->
<g id="edge4" class="edge"><title>job_1__long_mult&#45;&gt;job_3__long_mult</title>
<path fill="none" stroke="blue" d="M427.482,-689.171C305.748,-679.768 86.8466,-654.9 38.7763,-595.737 -108.421,-414.571 204.391,-154.935 314.399,-72.3034"/>
<polygon fill="blue" stroke="blue" points="316.646,-74.9932 322.572,-66.2101 312.462,-69.3812 316.646,-74.9932"/>
</g>
<!-- job_4__long_mult -->
<g id="node3" class="node"><title>job_4__long_mult</title>
<polygon fill="DeepSkyBlue" stroke="black" points="652.776,-564.737 550.776,-564.737 546.776,-560.737 546.776,-505.737 648.776,-505.737 652.776,-509.737 652.776,-564.737"/>
<polyline fill="none" stroke="black" points="648.776,-560.737 546.776,-560.737 "/>
<polyline fill="none" stroke="black" points="648.776,-560.737 648.776,-505.737 "/>
<polyline fill="none" stroke="black" points="648.776,-560.737 652.776,-564.737 "/>
<text text-anchor="start" x="573.276" y="-549.037" font-family="Times,serif" font-style="italic" text-decoration="underline" font-size="14.00">job_id:</text>
<text text-anchor="start" x="634.776" y="-549.037" font-family="Times,serif" font-style="italic" font-size="14.00">4</text>
<text text-anchor="start" x="555.776" y="-532.037" font-family="Times,serif" font-style="italic" text-decoration="underline" font-size="14.00">params from:</text>
<text text-anchor="start" x="634.776" y="-532.037" font-family="Times,serif" font-style="italic" font-size="14.00">1</text>
<text text-anchor="start" x="578.776" y="-514.037" font-family="Times,serif" font-size="14.00">digit:</text>
<text text-anchor="start" x="632.776" y="-514.037" font-family="Times,serif" font-size="14.00"> 2</text>
</g>
<!-- job_1__long_mult&#45;&gt;job_4__long_mult -->
<g id="edge5" class="edge"><title>job_1__long_mult&#45;&gt;job_4__long_mult</title>
<path fill="none" stroke="blue" d="M526.075,-665.624C540.747,-639.866 562.406,-601.842 578.451,-573.674"/>
<polygon fill="blue" stroke="blue" points="581.539,-575.325 583.447,-564.903 575.457,-571.86 581.539,-575.325"/>
</g>
<!-- job_5__long_mult -->
<g id="node5" class="node"><title>job_5__long_mult</title>
<polygon fill="DeepSkyBlue" stroke="black" points="528.776,-564.737 426.776,-564.737 422.776,-560.737 422.776,-505.737 524.776,-505.737 528.776,-509.737 528.776,-564.737"/>
<polyline fill="none" stroke="black" points="524.776,-560.737 422.776,-560.737 "/>
<polyline fill="none" stroke="black" points="524.776,-560.737 524.776,-505.737 "/>
<polyline fill="none" stroke="black" points="524.776,-560.737 528.776,-564.737 "/>
<text text-anchor="start" x="449.276" y="-549.037" font-family="Times,serif" font-style="italic" text-decoration="underline" font-size="14.00">job_id:</text>
<text text-anchor="start" x="510.776" y="-549.037" font-family="Times,serif" font-style="italic" font-size="14.00">5</text>
<text text-anchor="start" x="431.776" y="-532.037" font-family="Times,serif" font-style="italic" text-decoration="underline" font-size="14.00">params from:</text>
<text text-anchor="start" x="510.776" y="-532.037" font-family="Times,serif" font-style="italic" font-size="14.00">1</text>
<text text-anchor="start" x="454.776" y="-514.037" font-family="Times,serif" font-size="14.00">digit:</text>
<text text-anchor="start" x="508.776" y="-514.037" font-family="Times,serif" font-size="14.00"> 3</text>
</g>
<!-- job_1__long_mult&#45;&gt;job_5__long_mult -->
<g id="edge6" class="edge"><title>job_1__long_mult&#45;&gt;job_5__long_mult</title>
<path fill="none" stroke="blue" d="M503.619,-665.624C498.148,-640.2 490.106,-602.827 484.07,-574.776"/>
<polygon fill="blue" stroke="blue" points="487.471,-573.943 481.945,-564.903 480.627,-575.416 487.471,-573.943"/>
</g>
<!-- job_6__long_mult -->
<g id="node6" class="node"><title>job_6__long_mult</title>
<polygon fill="DeepSkyBlue" stroke="black" points="404.776,-564.737 302.776,-564.737 298.776,-560.737 298.776,-505.737 400.776,-505.737 404.776,-509.737 404.776,-564.737"/>
<polyline fill="none" stroke="black" points="400.776,-560.737 298.776,-560.737 "/>
<polyline fill="none" stroke="black" points="400.776,-560.737 400.776,-505.737 "/>
<polyline fill="none" stroke="black" points="400.776,-560.737 404.776,-564.737 "/>
<text text-anchor="start" x="325.276" y="-549.037" font-family="Times,serif" font-style="italic" text-decoration="underline" font-size="14.00">job_id:</text>
<text text-anchor="start" x="386.776" y="-549.037" font-family="Times,serif" font-style="italic" font-size="14.00">6</text>
<text text-anchor="start" x="307.776" y="-532.037" font-family="Times,serif" font-style="italic" text-decoration="underline" font-size="14.00">params from:</text>
<text text-anchor="start" x="386.776" y="-532.037" font-family="Times,serif" font-style="italic" font-size="14.00">1</text>
<text text-anchor="start" x="330.776" y="-514.037" font-family="Times,serif" font-size="14.00">digit:</text>
<text text-anchor="start" x="384.776" y="-514.037" font-family="Times,serif" font-size="14.00"> 5</text>
</g>
<!-- job_1__long_mult&#45;&gt;job_6__long_mult -->
<g id="edge7" class="edge"><title>job_1__long_mult&#45;&gt;job_6__long_mult</title>
<path fill="none" stroke="blue" d="M481.164,-665.624C454.959,-639.42 416.061,-600.521 387.759,-572.22"/>
<polygon fill="blue" stroke="blue" points="389.989,-569.499 380.443,-564.903 385.039,-574.449 389.989,-569.499"/>
</g>
<!-- job_7__long_mult -->
<g id="node7" class="node"><title>job_7__long_mult</title>
<polygon fill="DeepSkyBlue" stroke="black" points="280.776,-564.737 178.776,-564.737 174.776,-560.737 174.776,-505.737 276.776,-505.737 280.776,-509.737 280.776,-564.737"/>
<polyline fill="none" stroke="black" points="276.776,-560.737 174.776,-560.737 "/>
<polyline fill="none" stroke="black" points="276.776,-560.737 276.776,-505.737 "/>
<polyline fill="none" stroke="black" points="276.776,-560.737 280.776,-564.737 "/>
<text text-anchor="start" x="201.276" y="-549.037" font-family="Times,serif" font-style="italic" text-decoration="underline" font-size="14.00">job_id:</text>
<text text-anchor="start" x="262.776" y="-549.037" font-family="Times,serif" font-style="italic" font-size="14.00">7</text>
<text text-anchor="start" x="183.776" y="-532.037" font-family="Times,serif" font-style="italic" text-decoration="underline" font-size="14.00">params from:</text>
<text text-anchor="start" x="262.776" y="-532.037" font-family="Times,serif" font-style="italic" font-size="14.00">1</text>
<text text-anchor="start" x="206.776" y="-514.037" font-family="Times,serif" font-size="14.00">digit:</text>
<text text-anchor="start" x="260.776" y="-514.037" font-family="Times,serif" font-size="14.00"> 7</text>
</g>
<!-- job_1__long_mult&#45;&gt;job_7__long_mult -->
<g id="edge8" class="edge"><title>job_1__long_mult&#45;&gt;job_7__long_mult</title>
<path fill="none" stroke="blue" d="M428.686,-665.702C385.559,-648.651 332.725,-624.673 289.776,-595.737 279.627,-588.899 269.616,-580.333 260.697,-571.85"/>
<polygon fill="blue" stroke="blue" points="263.075,-569.281 253.482,-564.783 258.177,-574.281 263.075,-569.281"/>
</g>
<!-- job_8__long_mult -->
<g id="node8" class="node"><title>job_8__long_mult</title>
<polygon fill="DeepSkyBlue" stroke="black" points="156.776,-564.737 54.7763,-564.737 50.7763,-560.737 50.7763,-505.737 152.776,-505.737 156.776,-509.737 156.776,-564.737"/>
<polyline fill="none" stroke="black" points="152.776,-560.737 50.7763,-560.737 "/>
<polyline fill="none" stroke="black" points="152.776,-560.737 152.776,-505.737 "/>
<polyline fill="none" stroke="black" points="152.776,-560.737 156.776,-564.737 "/>
<text text-anchor="start" x="77.2763" y="-549.037" font-family="Times,serif" font-style="italic" text-decoration="underline" font-size="14.00">job_id:</text>
<text text-anchor="start" x="138.776" y="-549.037" font-family="Times,serif" font-style="italic" font-size="14.00">8</text>
<text text-anchor="start" x="59.7763" y="-532.037" font-family="Times,serif" font-style="italic" text-decoration="underline" font-size="14.00">params from:</text>
<text text-anchor="start" x="138.776" y="-532.037" font-family="Times,serif" font-style="italic" font-size="14.00">1</text>
<text text-anchor="start" x="82.7763" y="-514.037" font-family="Times,serif" font-size="14.00">digit:</text>
<text text-anchor="start" x="136.776" y="-514.037" font-family="Times,serif" font-size="14.00"> 8</text>
</g>
<!-- job_1__long_mult&#45;&gt;job_8__long_mult -->
<g id="edge9" class="edge"><title>job_1__long_mult&#45;&gt;job_8__long_mult</title>
<path fill="none" stroke="blue" d="M427.541,-682.241C354.954,-669.046 248.172,-643.116 165.776,-595.737 154.864,-589.462 144.41,-580.86 135.297,-572.146"/>
<polygon fill="blue" stroke="blue" points="137.531,-569.431 127.978,-564.849 132.589,-574.388 137.531,-569.431"/>
</g>
<!-- semaphore_1__long_mult -->
<g id="node4" class="node"><title>semaphore_1__long_mult</title>
<polygon fill="darkgreen" stroke="black" points="234.675,-249.177 414.776,-167.131 594.878,-249.177 594.709,-381.928 234.843,-381.928 234.675,-249.177"/>
<text text-anchor="start" x="400.776" y="-342.668" font-family="Times,serif" font-weight="bold" font-style="italic" font-size="14.00" fill="white">open</text>
<text text-anchor="start" x="412.776" y="-324.668" font-family="Times,serif" font-size="14.00"> </text>
<text text-anchor="start" x="335.776" y="-308.668" font-family="Times,serif" font-weight="bold" text-decoration="underline" font-size="14.00">partial_product</text>
<text text-anchor="start" x="312.776" y="-290.668" font-family="Times,serif" font-size="14.00">{2}</text>
<text text-anchor="start" x="368.776" y="-291.668" font-family="Times,serif" font-size="14.00"> </text>
<text text-anchor="start" x="372.776" y="-291.668" font-family="Times,serif" font-weight="bold" font-size="14.00">&#45;&#45;&gt;</text>
<text text-anchor="start" x="390.776" y="-291.668" font-family="Times,serif" font-size="14.00"> </text>
<text text-anchor="start" x="429.776" y="-290.668" font-family="Times,serif" font-size="14.00">&quot;19300312338&quot;</text>
<text text-anchor="start" x="312.776" y="-273.668" font-family="Times,serif" font-size="14.00">{3}</text>
<text text-anchor="start" x="368.776" y="-274.668" font-family="Times,serif" font-size="14.00"> </text>
<text text-anchor="start" x="372.776" y="-274.668" font-family="Times,serif" font-weight="bold" font-size="14.00">&#45;&#45;&gt;</text>
<text text-anchor="start" x="390.776" y="-274.668" font-family="Times,serif" font-size="14.00"> </text>
<text text-anchor="start" x="429.776" y="-273.668" font-family="Times,serif" font-size="14.00">&quot;28950468507&quot;</text>
<text text-anchor="start" x="312.776" y="-256.668" font-family="Times,serif" font-size="14.00">{5}</text>
<text text-anchor="start" x="368.776" y="-257.668" font-family="Times,serif" font-size="14.00"> </text>
<text text-anchor="start" x="372.776" y="-257.668" font-family="Times,serif" font-weight="bold" font-size="14.00">&#45;&#45;&gt;</text>
<text text-anchor="start" x="390.776" y="-257.668" font-family="Times,serif" font-size="14.00"> </text>
<text text-anchor="start" x="429.776" y="-256.668" font-family="Times,serif" font-size="14.00">&quot;48250780845&quot;</text>
<text text-anchor="start" x="312.776" y="-239.668" font-family="Times,serif" font-size="14.00">{8}</text>
<text text-anchor="start" x="368.776" y="-240.668" font-family="Times,serif" font-size="14.00"> </text>
<text text-anchor="start" x="372.776" y="-240.668" font-family="Times,serif" font-weight="bold" font-size="14.00">&#45;&#45;&gt;</text>
<text text-anchor="start" x="390.776" y="-240.668" font-family="Times,serif" font-size="14.00"> </text>
<text text-anchor="start" x="429.776" y="-239.668" font-family="Times,serif" font-size="14.00">&quot;77201249352&quot;</text>
<text text-anchor="start" x="312.776" y="-222.668" font-family="Times,serif" font-size="14.00">{7}</text>
<text text-anchor="start" x="368.776" y="-223.668" font-family="Times,serif" font-size="14.00"> </text>
<text text-anchor="start" x="372.776" y="-223.668" font-family="Times,serif" font-weight="bold" font-size="14.00">&#45;&#45;&gt;</text>
<text text-anchor="start" x="390.776" y="-223.668" font-family="Times,serif" font-size="14.00"> </text>
<text text-anchor="start" x="429.776" y="-222.668" font-family="Times,serif" font-size="14.00">&quot;67551093183&quot;</text>
</g>
<!-- job_4__long_mult&#45;&gt;semaphore_1__long_mult -->
<g id="edge14" class="edge"><title>job_4__long_mult&#45;&gt;semaphore_1__long_mult</title>
<path fill="none" stroke="darkgreen" stroke-dasharray="5,2" d="M578.192,-505.376C555.603,-475.171 518.912,-426.11 486.014,-382.122"/>
</g>
<!-- semaphore_1__long_mult&#45;&gt;job_3__long_mult -->
<g id="edge19" class="edge"><title>semaphore_1__long_mult:s&#45;&gt;job_3__long_mult:n</title>
<path fill="none" stroke="darkgreen" stroke-dasharray="5,2" d="M414.776,-167C414.776,-113.858 350.776,-119.142 350.776,-66"/>
</g>
<!-- job_5__long_mult&#45;&gt;semaphore_1__long_mult -->
<g id="edge15" class="edge"><title>job_5__long_mult&#45;&gt;semaphore_1__long_mult</title>
<path fill="none" stroke="darkgreen" stroke-dasharray="5,2" d="M468.659,-505.376C461.211,-475.171 449.113,-426.11 438.265,-382.122"/>
</g>
<!-- job_6__long_mult&#45;&gt;semaphore_1__long_mult -->
<g id="edge16" class="edge"><title>job_6__long_mult&#45;&gt;semaphore_1__long_mult</title>
<path fill="none" stroke="darkgreen" stroke-dasharray="5,2" d="M359.127,-505.376C366.819,-475.171 379.314,-426.11 390.517,-382.122"/>
</g>
<!-- job_7__long_mult&#45;&gt;semaphore_1__long_mult -->
<g id="edge17" class="edge"><title>job_7__long_mult&#45;&gt;semaphore_1__long_mult</title>
<path fill="none" stroke="darkgreen" stroke-dasharray="5,2" d="M249.594,-505.376C272.427,-475.171 309.515,-426.11 342.769,-382.122"/>
</g>
<!-- job_8__long_mult&#45;&gt;semaphore_1__long_mult -->
<g id="edge18" class="edge"><title>job_8__long_mult&#45;&gt;semaphore_1__long_mult</title>
<path fill="none" stroke="darkgreen" stroke-dasharray="5,2" d="M139.756,-505.619C177.73,-475.414 239.651,-426.162 295.132,-382.033"/>
</g>
<!-- job_2__long_mult -->
<g id="node9" class="node"><title>job_2__long_mult</title>
<polygon fill="DeepSkyBlue" stroke="black" points="773.776,-724.737 613.776,-724.737 609.776,-720.737 609.776,-665.737 769.776,-665.737 773.776,-669.737 773.776,-724.737"/>
<polyline fill="none" stroke="black" points="769.776,-720.737 609.776,-720.737 "/>
<polyline fill="none" stroke="black" points="769.776,-720.737 769.776,-665.737 "/>
<polyline fill="none" stroke="black" points="769.776,-720.737 773.776,-724.737 "/>
<text text-anchor="start" x="634.776" y="-709.037" font-family="Times,serif" font-style="italic" text-decoration="underline" font-size="14.00">job_id:</text>
<text text-anchor="start" x="725.276" y="-709.037" font-family="Times,serif" font-style="italic" font-size="14.00">2</text>
<text text-anchor="start" x="619.276" y="-691.037" font-family="Times,serif" font-size="14.00">a_multiplier:</text>
<text text-anchor="start" x="696.276" y="-691.037" font-family="Times,serif" font-size="14.00"> 327358788</text>
<text text-anchor="start" x="618.776" y="-674.037" font-family="Times,serif" font-size="14.00">b_multiplier:</text>
<text text-anchor="start" x="692.776" y="-674.037" font-family="Times,serif" font-size="14.00"> 9650156169</text>
</g>
<!-- job_9__long_mult -->
<g id="node10" class="node"><title>job_9__long_mult</title>
<polygon fill="DeepSkyBlue" stroke="black" points="898.776,-66 800.776,-66 796.776,-62 796.776,-24 894.776,-24 898.776,-28 898.776,-66"/>
<polyline fill="none" stroke="black" points="894.776,-62 796.776,-62 "/>
<polyline fill="none" stroke="black" points="894.776,-62 894.776,-24 "/>
<polyline fill="none" stroke="black" points="894.776,-62 898.776,-66 "/>
<text text-anchor="start" x="823.276" y="-50.8" font-family="Times,serif" font-style="italic" text-decoration="underline" font-size="14.00">job_id:</text>
<text text-anchor="start" x="882.776" y="-50.8" font-family="Times,serif" font-style="italic" font-size="14.00">9</text>
<text text-anchor="start" x="805.776" y="-33.8" font-family="Times,serif" font-style="italic" text-decoration="underline" font-size="14.00">params from:</text>
<text text-anchor="start" x="882.776" y="-33.8" font-family="Times,serif" font-style="italic" font-size="14.00">2</text>
</g>
<!-- job_2__long_mult&#45;&gt;job_9__long_mult -->
<g id="edge13" class="edge"><title>job_2__long_mult&#45;&gt;job_9__long_mult</title>
<path fill="none" stroke="blue" d="M773.908,-683.009C868.121,-668.25 1013.87,-639.015 1046.78,-595.737 1111.24,-510.95 1080.61,-365.551 969.776,-167 948.404,-128.712 911.353,-94.501 883.675,-72.3077"/>
<polygon fill="blue" stroke="blue" points="885.8,-69.5263 875.776,-66.0945 881.472,-75.0281 885.8,-69.5263"/>
</g>
<!-- job_10__long_mult -->
<g id="node11" class="node"><title>job_10__long_mult</title>
<polygon fill="DeepSkyBlue" stroke="black" points="780.276,-564.737 675.276,-564.737 671.276,-560.737 671.276,-505.737 776.276,-505.737 780.276,-509.737 780.276,-564.737"/>
<polyline fill="none" stroke="black" points="776.276,-560.737 671.276,-560.737 "/>
<polyline fill="none" stroke="black" points="776.276,-560.737 776.276,-505.737 "/>
<polyline fill="none" stroke="black" points="776.276,-560.737 780.276,-564.737 "/>
<text text-anchor="start" x="698.276" y="-549.037" font-family="Times,serif" font-style="italic" text-decoration="underline" font-size="14.00">job_id:</text>
<text text-anchor="start" x="757.776" y="-549.037" font-family="Times,serif" font-style="italic" font-size="14.00">10</text>
<text text-anchor="start" x="680.776" y="-532.037" font-family="Times,serif" font-style="italic" text-decoration="underline" font-size="14.00">params from:</text>
<text text-anchor="start" x="761.276" y="-532.037" font-family="Times,serif" font-style="italic" font-size="14.00">2</text>
<text text-anchor="start" x="703.776" y="-514.037" font-family="Times,serif" font-size="14.00">digit:</text>
<text text-anchor="start" x="759.276" y="-514.037" font-family="Times,serif" font-size="14.00"> 5</text>
</g>
<!-- job_2__long_mult&#45;&gt;job_10__long_mult -->
<g id="edge10" class="edge"><title>job_2__long_mult&#45;&gt;job_10__long_mult</title>
<path fill="none" stroke="blue" d="M697.933,-665.624C703.404,-640.2 711.447,-602.827 717.483,-574.776"/>
<polygon fill="blue" stroke="blue" points="720.925,-575.416 719.608,-564.903 714.082,-573.943 720.925,-575.416"/>
</g>
<!-- job_11__long_mult -->
<g id="node13" class="node"><title>job_11__long_mult</title>
<polygon fill="DeepSkyBlue" stroke="black" points="1034.28,-564.737 929.276,-564.737 925.276,-560.737 925.276,-505.737 1030.28,-505.737 1034.28,-509.737 1034.28,-564.737"/>
<polyline fill="none" stroke="black" points="1030.28,-560.737 925.276,-560.737 "/>
<polyline fill="none" stroke="black" points="1030.28,-560.737 1030.28,-505.737 "/>
<polyline fill="none" stroke="black" points="1030.28,-560.737 1034.28,-564.737 "/>
<text text-anchor="start" x="952.276" y="-549.037" font-family="Times,serif" font-style="italic" text-decoration="underline" font-size="14.00">job_id:</text>
<text text-anchor="start" x="1011.78" y="-549.037" font-family="Times,serif" font-style="italic" font-size="14.00">11</text>
<text text-anchor="start" x="934.776" y="-532.037" font-family="Times,serif" font-style="italic" text-decoration="underline" font-size="14.00">params from:</text>
<text text-anchor="start" x="1015.28" y="-532.037" font-family="Times,serif" font-style="italic" font-size="14.00">2</text>
<text text-anchor="start" x="957.776" y="-514.037" font-family="Times,serif" font-size="14.00">digit:</text>
<text text-anchor="start" x="1013.28" y="-514.037" font-family="Times,serif" font-size="14.00"> 6</text>
</g>
<!-- job_2__long_mult&#45;&gt;job_11__long_mult -->
<g id="edge11" class="edge"><title>job_2__long_mult&#45;&gt;job_11__long_mult</title>
<path fill="none" stroke="blue" d="M773.848,-666.164C818.081,-649.139 872.508,-625.041 916.776,-595.737 927.067,-588.925 937.232,-580.369 946.294,-571.886"/>
<polygon fill="blue" stroke="blue" points="948.856,-574.278 953.626,-564.818 943.997,-569.239 948.856,-574.278"/>
</g>
<!-- job_12__long_mult -->
<g id="node14" class="node"><title>job_12__long_mult</title>
<polygon fill="DeepSkyBlue" stroke="black" points="907.276,-564.737 802.276,-564.737 798.276,-560.737 798.276,-505.737 903.276,-505.737 907.276,-509.737 907.276,-564.737"/>
<polyline fill="none" stroke="black" points="903.276,-560.737 798.276,-560.737 "/>
<polyline fill="none" stroke="black" points="903.276,-560.737 903.276,-505.737 "/>
<polyline fill="none" stroke="black" points="903.276,-560.737 907.276,-564.737 "/>
<text text-anchor="start" x="825.276" y="-549.037" font-family="Times,serif" font-style="italic" text-decoration="underline" font-size="14.00">job_id:</text>
<text text-anchor="start" x="884.776" y="-549.037" font-family="Times,serif" font-style="italic" font-size="14.00">12</text>
<text text-anchor="start" x="807.776" y="-532.037" font-family="Times,serif" font-style="italic" text-decoration="underline" font-size="14.00">params from:</text>
<text text-anchor="start" x="888.276" y="-532.037" font-family="Times,serif" font-style="italic" font-size="14.00">2</text>
<text text-anchor="start" x="830.776" y="-514.037" font-family="Times,serif" font-size="14.00">digit:</text>
<text text-anchor="start" x="886.276" y="-514.037" font-family="Times,serif" font-size="14.00"> 9</text>
</g>
<!-- job_2__long_mult&#45;&gt;job_12__long_mult -->
<g id="edge12" class="edge"><title>job_2__long_mult&#45;&gt;job_12__long_mult</title>
<path fill="none" stroke="blue" d="M720.932,-665.624C747.634,-639.42 787.271,-600.521 816.11,-572.22"/>
<polygon fill="blue" stroke="blue" points="818.88,-574.405 823.566,-564.903 813.977,-569.409 818.88,-574.405"/>
</g>
<!-- semaphore_2__long_mult -->
<g id="node12" class="node"><title>semaphore_2__long_mult</title>
<polygon fill="darkgreen" stroke="black" points="612.912,-258.272 786.776,-196.566 960.641,-258.272 960.479,-358.116 613.074,-358.116 612.912,-258.272"/>
<text text-anchor="start" x="773.276" y="-325.668" font-family="Times,serif" font-weight="bold" font-style="italic" font-size="14.00" fill="white">open</text>
<text text-anchor="start" x="785.276" y="-307.668" font-family="Times,serif" font-size="14.00"> </text>
<text text-anchor="start" x="711.776" y="-291.668" font-family="Times,serif" font-weight="bold" text-decoration="underline" font-size="14.00">partial_product</text>
<text text-anchor="start" x="688.776" y="-273.668" font-family="Times,serif" font-size="14.00">{5}</text>
<text text-anchor="start" x="744.776" y="-274.668" font-family="Times,serif" font-size="14.00"> </text>
<text text-anchor="start" x="748.776" y="-274.668" font-family="Times,serif" font-weight="bold" font-size="14.00">&#45;&#45;&gt;</text>
<text text-anchor="start" x="766.776" y="-274.668" font-family="Times,serif" font-size="14.00"> </text>
<text text-anchor="start" x="805.776" y="-273.668" font-family="Times,serif" font-size="14.00">&quot;1636793940&quot;</text>
<text text-anchor="start" x="688.776" y="-256.668" font-family="Times,serif" font-size="14.00">{6}</text>
<text text-anchor="start" x="744.776" y="-257.668" font-family="Times,serif" font-size="14.00"> </text>
<text text-anchor="start" x="748.776" y="-257.668" font-family="Times,serif" font-weight="bold" font-size="14.00">&#45;&#45;&gt;</text>
<text text-anchor="start" x="766.776" y="-257.668" font-family="Times,serif" font-size="14.00"> </text>
<text text-anchor="start" x="805.776" y="-256.668" font-family="Times,serif" font-size="14.00">&quot;1964152728&quot;</text>
<text text-anchor="start" x="688.776" y="-239.668" font-family="Times,serif" font-size="14.00">{9}</text>
<text text-anchor="start" x="744.776" y="-240.668" font-family="Times,serif" font-size="14.00"> </text>
<text text-anchor="start" x="748.776" y="-240.668" font-family="Times,serif" font-weight="bold" font-size="14.00">&#45;&#45;&gt;</text>
<text text-anchor="start" x="766.776" y="-240.668" font-family="Times,serif" font-size="14.00"> </text>
<text text-anchor="start" x="805.776" y="-239.668" font-family="Times,serif" font-size="14.00">&quot;2946229092&quot;</text>
</g>
<!-- job_10__long_mult&#45;&gt;semaphore_2__long_mult -->
<g id="edge1" class="edge"><title>job_10__long_mult&#45;&gt;semaphore_2__long_mult</title>
<path fill="none" stroke="darkgreen" stroke-dasharray="5,2" d="M732.893,-505.376C741.724,-469.564 757.092,-407.244 769.162,-358.3"/>
</g>
<!-- semaphore_2__long_mult&#45;&gt;job_9__long_mult -->
<g id="edge20" class="edge"><title>semaphore_2__long_mult:s&#45;&gt;job_9__long_mult:n</title>
<path fill="none" stroke="darkgreen" stroke-dasharray="5,2" d="M786.776,-195.868C786.776,-132.099 847.776,-129.769 847.776,-66"/>
</g>
<!-- job_11__long_mult&#45;&gt;semaphore_2__long_mult -->
<g id="edge2" class="edge"><title>job_11__long_mult&#45;&gt;semaphore_2__long_mult</title>
<path fill="none" stroke="darkgreen" stroke-dasharray="5,2" d="M957.259,-505.376C929.318,-469.564 880.695,-407.244 842.508,-358.3"/>
</g>
<!-- job_12__long_mult&#45;&gt;semaphore_2__long_mult -->
<g id="edge3" class="edge"><title>job_12__long_mult&#45;&gt;semaphore_2__long_mult</title>
<path fill="none" stroke="darkgreen" stroke-dasharray="5,2" d="M845.076,-505.376C835.521,-469.564 818.893,-407.244 805.835,-358.3"/>
</g>
</g>
</svg>
