<?xml version="1.0" encoding="UTF-8" standalone="no"?>
<!DOCTYPE svg PUBLIC "-//W3C//DTD SVG 1.1//EN"
 "http://www.w3.org/Graphics/SVG/1.1/DTD/svg11.dtd">
<!-- Generated by graphviz version 2.38.0 (20140413.2041)
 -->
<!-- Title: test Pages: 1 -->
<svg width="394pt" height="153pt"
 viewBox="0.00 0.00 394.00 153.00" xmlns="http://www.w3.org/2000/svg" xmlns:xlink="http://www.w3.org/1999/xlink">
<g id="graph0" class="graph" transform="scale(1 1) rotate(0) translate(0 153)">
<title>test</title>
<polygon fill="white" stroke="none" points="0,-0 0,-153 394,-153 394,-0 0,-0"/>
<g id="clust1" class="cluster"><title>cluster_long_mult</title>
<polygon fill="#ccebc5" stroke="black" stroke-width="2" points="8,-8 8,-145 386,-145 386,-8 8,-8"/>
<text text-anchor="middle" x="197" y="-129.8" font-family="Times,serif" font-size="14.00">long_mult</text>
</g>
<g id="clust2" class="cluster"><title>cluster_take_b_apart</title>
<path fill="green" stroke="black" d="M28,-16C28,-16 366,-16 366,-16 372,-16 378,-22 378,-28 378,-28 378,-102 378,-102 378,-108 372,-114 366,-114 366,-114 28,-114 28,-114 22,-114 16,-108 16,-102 16,-102 16,-28 16,-28 16,-22 22,-16 28,-16"/>
<text text-anchor="middle" x="197" y="-98.8" font-family="Times,serif" font-size="14.00">take_b_apart</text>
</g>
<!-- job_1__long_mult -->
<g id="node1" class="node"><title>job_1__long_mult</title>
<polygon fill="green" stroke="black" points="370,-83 210,-83 206,-79 206,-24 366,-24 370,-28 370,-83"/>
<polyline fill="none" stroke="black" points="366,-79 206,-79 "/>
<polyline fill="none" stroke="black" points="366,-79 366,-24 "/>
<polyline fill="none" stroke="black" points="366,-79 370,-83 "/>
<text text-anchor="start" x="231" y="-67.3" font-family="Times,serif" font-style="italic" text-decoration="underline" font-size="14.00">job_id:</text>
<text text-anchor="start" x="321.5" y="-67.3" font-family="Times,serif" font-style="italic" font-size="14.00">1</text>
<text text-anchor="start" x="215.5" y="-49.3" font-family="Times,serif" font-size="14.00">a_multiplier:</text>
<text text-anchor="start" x="289" y="-49.3" font-family="Times,serif" font-size="14.00"> 9650156169</text>
<text text-anchor="start" x="215" y="-32.3" font-family="Times,serif" font-size="14.00">b_multiplier:</text>
<text text-anchor="start" x="292.5" y="-32.3" font-family="Times,serif" font-size="14.00"> 327358788</text>
</g>
<!-- job_2__long_mult -->
<g id="node2" class="node"><title>job_2__long_mult</title>
<polygon fill="green" stroke="black" points="188,-83 28,-83 24,-79 24,-24 184,-24 188,-28 188,-83"/>
<polyline fill="none" stroke="black" points="184,-79 24,-79 "/>
<polyline fill="none" stroke="black" points="184,-79 184,-24 "/>
<polyline fill="none" stroke="black" points="184,-79 188,-83 "/>
<text text-anchor="start" x="49" y="-67.3" font-family="Times,serif" font-style="italic" text-decoration="underline" font-size="14.00">job_id:</text>
<text text-anchor="start" x="139.5" y="-67.3" font-family="Times,serif" font-style="italic" font-size="14.00">2</text>
<text text-anchor="start" x="33.5" y="-49.3" font-family="Times,serif" font-size="14.00">a_multiplier:</text>
<text text-anchor="start" x="110.5" y="-49.3" font-family="Times,serif" font-size="14.00"> 327358788</text>
<text text-anchor="start" x="33" y="-32.3" font-family="Times,serif" font-size="14.00">b_multiplier:</text>
<text text-anchor="start" x="107" y="-32.3" font-family="Times,serif" font-size="14.00"> 9650156169</text>
</g>
</g>
</svg>
